<?xml version="1.0" encoding="UTF-8"?>
<svg id="a" xmlns="http://www.w3.org/2000/svg" version="1.1" viewBox="0 0 240 120">
  <defs>
    <style>
      .cls-1 {
        fill: #48a747;
      }

      .cls-1, .cls-2, .cls-3, .cls-4, .cls-5 {
        stroke-width: 0px;
      }

      .cls-2 {
        fill: #df2127;
      }

      .cls-3 {
        fill: #f7ad5f;
      }

      .cls-4 {
        fill-rule: evenodd;
      }

      .cls-4, .cls-5 {
        fill: #243746;
      }
    </style>
  </defs>
  <path class="cls-1" d="M122.1,76.6c0-1.3-.2-4.9-.2-7.1.2-14.1,1.3-24.6,18.8-50,6.7-9.7,9.6-14.4-9.4-10.6l.4,1.7c16.3-3.3,14.1-1.4,7.6,7.9-16.2,22.7-19.1,36.2-19.5,51.4,0,1.6-.2,6.5-.2,6.5v.2c0,.6.6,1.1,1.3,1.1s1.3-.5,1.3-1.1h0Z"/>
  <path class="cls-1" d="M125.9,71.1c1.5-19.4,10.5-21.8,20-31,8.7-8.4,9.6-14.9-9.4-11l.4,1.8c16.3-3.4,15.5-.3,7.6,8.2-9.4,10-18.1,9.7-20.5,31.4-.5,4.4,1.7,5.5,1.7,5.5h1.2c0,.1-1.1-1.9-.9-4.8"/>
  <path class="cls-1" d="M117.1,71.3c-.3-23,8.3-29.4,12.8-42.4,3.9-11.4,4.8-17.1-12.2-7.8l.9,1.6c14.6-8,13.4-5.4,9.6,5.6-4.6,13.4-14.5,22.3-13.8,43.2l.3,4.7h3.1l.3-.5-.9-4.4"/>
  <g>
    <path class="cls-4" d="M49.5,116.4h14.1v-9.9h-.9c-.9,6.3-3.5,6.8-7.8,6.8h-.8v-26.7h-4.6v29.8Z"/>
    <path class="cls-4" d="M86.2,106.1c0,4.8-.4,6.9-1.9,10.3h4.8c.1-.3.3-.6.4-1,0,0,1.5,2.1,5.2,2.1s9.5-2.9,9.5-11.3-5.9-11-9.6-11-2.6.2-3.8.7v-13.2h-4.6v23.4ZM99.6,106.3c0,7.9-3.1,9.9-4.9,9.9s-3.1-2-3.9-3.9v-14c1-1,2.1-1.7,3.3-1.7,2.9,0,5.5,3.1,5.5,9.7"/>
    <path class="cls-4" d="M116.5,97.6c0,.7-.3,1.2-.3,1.8,0,1,.6,1.9,1.9,1.9s2-.8,2-2.3c0-2.4-1.3-3.8-4.1-3.8s-4.3,1.4-5.7,3.2c0,0-.6-1.8-1-2.8h-4.8c1.5,3.4,1.9,5.5,1.9,10.3v10.5h7.8v-1.3h-3.2v-7.9c0-1.3.1-3,.3-4.2.7-3.8,2.7-6.4,4.2-6.4s.9.2.9,1"/>
    <path class="cls-4" d="M152,112.4c-.7,1.9-1.9,3.8-3.8,3.8s-4.9-2-4.9-9.8,2.5-9.8,5.4-9.8,2.3.7,3.3,1.7v14.1ZM159.6,116.4v-1.4h-3v-27.1h-4.6v8c-1.2-.5-2.2-.7-3.7-.7-3.8,0-9.6,2.8-9.6,11s5.3,11.3,9.4,11.3,4.2-1.2,4.2-1.2h7.3Z"/>
    <path class="cls-4" d="M174.1,106.4c0,3.1-.5,8.4-4.8,8.4s-4.7-5.4-4.7-8.4.5-9.8,4.7-9.8,4.8,6.7,4.8,9.8M178.8,106.4c0-8.3-4.9-11.2-9.4-11.2s-9.4,2.8-9.4,11.2,5.3,11.2,9.4,11.2,9.4-2.4,9.4-11.2"/>
    <path class="cls-4" d="M191.8,97.6c0,.7-.3,1.2-.3,1.8,0,1,.6,1.9,1.9,1.9s2-.8,2-2.3c0-2.4-1.3-3.8-4.1-3.8s-4.3,1.4-5.7,3.2c0,0-.6-1.8-1-2.8h-4.8c1.5,3.4,1.9,5.5,1.9,10.3v10.5h7.8v-1.3h-3.2v-7.9c0-1.3.1-3,.3-4.2.7-3.8,2.7-6.4,4.2-6.4s.9.2.9,1"/>
    <path class="cls-4" d="M26.2,46.8h.7v-1.3h-12v1.3h.3c2.4,0,4,.3,4,4.6v18.5l-9.7-20.7h-4.4v27.7h6.4v-1.3h-1.8v-17.6l8.8,18.9h3.7v-25.5c0-4.3,1.6-4.6,4-4.6"/>
    <path class="cls-4" d="M38.9,64.5h-9.5c.7-4.6,2.1-7.4,4.8-7.4s4.3,3.6,4.7,7.4M43.6,68.3v-.7c0-2.2-.1-4.2-1-6.2-1.1-2.8-3.4-5.7-8.2-5.7-7,0-9.9,5.7-9.9,11.3s2.9,11,10.1,11,4.8-.6,6.7-1.5c1-.5,1.5-1,1.5-2s-.8-2.1-1.9-2.1-.9.1-1.3.3c-1.9.9-3.4,1.4-5.1,1.4-2.7,0-4.9-1.5-5.3-5.8h14.3Z"/>
    <path class="cls-4" d="M63.4,61.6l-2.3,11.6-3.8-12.2c.6-2.1,1.7-3.9,3.6-3.9s3,1.9,2.5,4.5M67,60.6c0-2.3-1.6-4.9-5.6-4.9s-5.1,1.9-6.1,5.3l-3.7,12.1-2-15.7h3.1v-1.3h-8.2l3.9,20.8h5.1l2.9-8.9,2.9,8.9h4.5l2.7-12.7c.2-.9.5-2.5.5-3.6"/>
    <path class="cls-4" d="M80.3,40.6c0,.4,0,.5,0,.9,0,1,.6,1.7,1.8,1.7s1.8-.6,1.8-1.8c0-2.7-3.2-3.4-5.4-3.4-3,0-6.3,1.3-7.4,4.9-.3,1.1-.3,2.4-.3,3.1v2.1h-3.4v3.9h3.4v36.7h7.7v-1.3h-3v-35.4h13v-3.9h-13v-3.2c0-2.1.2-5.6,3.1-5.6s1.9.6,1.9,1.4"/>
    <path class="cls-4" d="M93.2,66.9c0,3.1-.5,8.4-4.8,8.4s-4.8-5.4-4.8-8.4.5-9.8,4.8-9.8,4.8,6.7,4.8,9.8M97.9,66.9c0-8.3-4.9-11.2-9.4-11.2s-9.4,2.8-9.4,11.2,5.3,11.2,9.4,11.2,9.4-2.4,9.4-11.2"/>
    <path class="cls-4" d="M101.5,73.2c.4,3.2,2.6,4.8,5.7,4.8s5-1,6.3-3.1v.3c0,1.3,1.1,2.3,2.3,2.3s2.3-1,2.3-2.3v-19.2h-4.6v13.5c0,3.5-1.6,6.8-4.6,6.8s-2.6-1.3-2.8-2.7c0-.4-.1-1.1-.1-1.4v-16.2h-7.6v1.3h3v14.3c0,.3,0,1.1.1,1.5"/>
    <path class="cls-4" d="M140.3,75.6v-13.5c0-.3,0-1.1-.1-1.5-.4-3.2-2.6-4.8-5.7-4.8s-5.6,1.4-6.8,4c0,0-.5-2-1.2-3.6h-4.8c1.5,3.4,1.9,5.5,1.9,10.3v10.5h6.9v-1.3h-2.2v-11.4c0-3.5,1.6-6.8,4.6-6.8s2.6,1.3,2.8,2.7c0,.4.1,1,.1,1.4v14.1h-3v1.3h10.6v-1.3h-3Z"/>
    <path class="cls-4" d="M157.2,72.9c-.7,1.9-1.9,3.8-3.8,3.8s-4.9-2-4.9-9.8,2.5-9.8,5.4-9.8,2.3.7,3.3,1.7v14.1ZM164.8,76.9v-1.3h-3v-27.6h-4.6v8.4c-1.2-.5-2.2-.7-3.7-.7-3.8,0-9.6,2.8-9.6,11s5.3,11.3,9.4,11.3,4.2-1.2,4.2-1.2h7.3Z"/>
    <path class="cls-4" d="M171.8,73.4v-25.5h-8.4v3.9h3.7v21.7c0,.9.1,2.1.3,2.8,1,3.3,4.1,4.8,7.3,4.8s2.1-.2,2.9-.4v-1.3s-.5.1-1.1.1c-2.7,0-4.2-1.4-4.7-4,0-.5-.1-1.5-.1-2.1"/>
    <path class="cls-4" d="M212.7,75.6v-13.5c0-.3,0-1.1-.1-1.5-.4-3.2-2.6-4.8-5.7-4.8s-5.6,1.4-6.9,4c0,0-.5-2-1.2-3.6h-4.8c1.5,3.4,1.9,5.5,1.9,10.3v10.5h6.9v-1.3h-2.2v-11.4c0-3.5,1.6-6.8,4.6-6.8s2.6,1.3,2.8,2.7c0,.4.1,1,.1,1.4v14.1h-3v1.3h10.6v-1.3h-3Z"/>
    <path class="cls-4" d="M229,72.9c-.7,1.9-1.9,3.8-3.8,3.8s-4.9-2-4.9-9.8,2.5-9.8,5.4-9.8,2.3.7,3.3,1.7v14.1ZM236.6,76.9v-1.3h-3v-27.2h-4.6v8c-1.2-.5-2.2-.7-3.7-.7-3.8,0-9.6,2.8-9.6,11s5.3,11.3,9.4,11.3,4.2-1.2,4.2-1.2h7.3Z"/>
    <path class="cls-4" d="M192,62.5c0-1.3-.3-3.2-1.6-4.6-1.3-1.3-3.3-2.2-5.7-2.2s-6.6,1-6.6,4,.6,1.9,1.8,1.9,1.8-.5,1.8-1.9c0-2.1,1.3-2.7,2.7-2.7s2.2.7,2.6,1.5c.4.7.5,1.6.5,2.7v2.2s-1.6-.6-4.3-.6c-5.4,0-8.6,3.4-8.6,7.7s2.2,7.1,7.8,7.1,4.6-1,5.1-1.8h0c0,1.1,1,1.8,2.2,1.8s2.2-.7,2.2-1.7v-.3h0v-13ZM187.4,72.1c-.9,1.2-2.2,1.9-4.4,1.9s-3.7-1.5-3.9-3.6c-.2-2.8,1.4-4.8,4.2-5,2.3-.1,4.1.8,4.1.8v5.9Z"/>
    <path class="cls-4" d="M82.7,102.1c0-1.3-.3-3.2-1.6-4.6-1.3-1.3-3.3-2.2-5.7-2.2s-6.6,1-6.6,4,.6,1.9,1.8,1.9,1.7-.5,1.7-1.9c0-2.1,1.3-2.7,2.7-2.7s2.2.7,2.6,1.5c.4.8.5,1.6.5,2.7v2.2s-1.6-.6-4.3-.6c-5.4,0-8.6,3.4-8.6,7.7s2.2,7.1,7.9,7.1,4.6-1,5.1-1.8h0c0,1.1,1,1.8,2.2,1.8s2.2-.7,2.2-1.7v-.3h0v-13ZM78,111.6c-.9,1.2-2.2,1.9-4.4,1.9s-3.7-1.5-3.9-3.6c-.2-2.8,1.4-4.8,4.2-5,2.3-.1,4.1.8,4.1.8v5.9Z"/>
    <path class="cls-4" d="M136.6,102.1c0-1.3-.3-3.2-1.6-4.6-1.3-1.3-3.3-2.2-5.7-2.2s-6.6,1-6.6,4,.6,1.9,1.8,1.9,1.7-.5,1.7-1.9c0-2.1,1.3-2.7,2.7-2.7s2.2.7,2.6,1.5c.4.8.5,1.6.5,2.7v2.2s-1.6-.6-4.3-.6c-5.4,0-8.6,3.4-8.6,7.7s2.2,7.1,7.9,7.1,4.6-1,5.1-1.8h0c0,1.1,1,1.8,2.2,1.8s2.2-.7,2.2-1.7v-.3h0v-13ZM132,111.6c-.9,1.2-2.2,1.9-4.4,1.9s-3.7-1.5-3.9-3.6c-.2-2.8,1.4-4.8,4.2-5,2.3-.1,4.1.8,4.1.8v5.9Z"/>
  </g>
  <path class="cls-5" d="M117.7,83.2c0,0,0,.3,0,.5,0,.5.2.9.5,1.3.4.5,1.1.6,1.6.4.4-.2.6-.5.8-.9.2-.4.2-.9.2-1.3,0-.5,0-1-.3-1.5-.2-.3-.4-.6-.7-.7-.6-.2-1.4-.1-1.8.7-.2.5-.3,1-.3,1.6M121.5,91.5c-1.1-1.4-2.3-2.7-3.4-4.1,0,0,0,0,0,0-.4.2-.7.6-.8,1-.2.6-.3,1.2-.2,1.7.1.9.7,1.5,1.5,1.8.6.3,1.2.2,1.9.1.5,0,.8-.3,1.2-.7M116.8,86c-.1-.2-.2-.3-.4-.5-.4-.5-.6-1-.7-1.6-.1-1.4.4-2.7,1.8-3.5.5-.3,1.1-.4,1.6-.4.5,0,.9,0,1.4.3.6.3,1,.8,1.2,1.4.2.6.3,1.2.2,1.9,0,.6-.3,1.2-.7,1.7-.2.3-.5.5-.8.7-.3.2-.5.4-.8.5.9,1.1,1.8,2.1,2.7,3.2v-4.3h3.1v.6h-1.4c0,1.2,0,2.2,0,3.3,0,.5,0,1-.3,1.4,0,.1-.1.3-.2.4.3.4.7.8,1.3.9.4,0,.8,0,1.1-.4.2-.3.2-.6,0-.9,0-.1-.2-.3-.2-.4-.2-.5,0-1,.6-1,.5,0,.8.2.9.7.1.6,0,1.1-.3,1.5-.5.7-1.2,1.2-2,1.4-.7.2-1.4.2-2.1-.1-.2,0-.4-.2-.5-.3,0,0,0,0-.1,0-.5.3-1.1.4-1.7.5-.7,0-1.4,0-2.1,0-1.1-.2-2-.7-2.7-1.6-.4-.5-.6-1.1-.6-1.7,0-.7,0-1.3.3-1.9.3-.7.8-1.2,1.5-1.6,0,0,0,0,0,0,0,0,0,0,0,0"/>
  <ellipse class="cls-2" cx="115" cy="24.4" rx="7.7" ry="9.2" transform="translate(4.8 65.3) rotate(-32.4)"/>
  <path class="cls-3" d="M123,24.4c-.1-.8-.3-1.5-.6-2.3-2-.1-6.7-.2-10.9,1.6.9-2.4,2.5-4.9,5.2-7.5-1-.4-2-.6-3-.6-1.3,1.1-3.5,3.5-4.5,7.4-1.4-1.2-1.8-2.3-2-2.7-.3,1-.5,2.2-.4,3.3.5.6,1,1.2,1.7,1.7-.4.3-.7.6-1.1.9.2.7.5,1.4.9,2,.1-.1.2-.2.3-.3,0,.3,0,.6,0,.9.6.8,1.2,1.5,1.9,2.1-.1-1.1-.2-2.5,0-4.1.5,1.4,1.7,3.7,4.1,6.1.9.2,1.9.2,2.8,0-1.2-1-2.8-2.7-4-4.8,3.3,1.4,6.6,2.1,8,2.3.4-.6.8-1.2,1.1-1.9-4.2-.9-7.3-2-9.6-3.1,2.4-.9,5.7-1.4,10-1.2Z"/>
  <ellipse class="cls-2" cx="128.1" cy="11.2" rx="7.7" ry="9.2" transform="translate(13.9 70.3) rotate(-32.4)"/>
  <path class="cls-3" d="M136.2,11.2c-.1-.8-.3-1.5-.6-2.3-2-.1-6.7-.2-10.9,1.6.9-2.4,2.5-4.9,5.2-7.5-1-.4-2-.6-3-.6-1.3,1.1-3.5,3.5-4.5,7.4-1.4-1.2-1.8-2.3-2-2.7-.3,1-.5,2.2-.4,3.3.5.6,1,1.2,1.7,1.7-.4.3-.7.6-1.1.9.2.7.5,1.4.9,2,.1-.1.2-.2.3-.3,0,.3,0,.6,0,.9.6.8,1.2,1.5,1.9,2.1-.1-1.1-.2-2.5,0-4.1.5,1.4,1.7,3.7,4.1,6.1.9.2,1.9.2,2.8,0-1.2-1-2.8-2.7-4-4.8,3.3,1.4,6.6,2.1,8,2.3.4-.6.8-1.2,1.1-1.9-4.2-.9-7.3-2-9.6-3.1,2.4-.9,5.7-1.4,10-1.2Z"/>
  <ellipse class="cls-2" cx="133.1" cy="31.5" rx="7.7" ry="9.2" transform="translate(3.8 76.1) rotate(-32.4)"/>
  <path class="cls-3" d="M141.2,31.5c-.1-.8-.3-1.5-.6-2.3-2-.1-6.7-.2-10.9,1.6.9-2.4,2.5-4.9,5.2-7.5-1-.4-2-.6-3-.6-1.3,1.1-3.5,3.5-4.5,7.4-1.4-1.2-1.8-2.3-2-2.7-.3,1-.5,2.2-.4,3.3.5.6,1,1.2,1.7,1.7-.4.3-.7.6-1.1.9.2.7.5,1.4.9,2,.1-.1.2-.2.3-.3,0,.3,0,.6,0,.9.6.8,1.2,1.5,1.9,2.1-.1-1.1-.2-2.5,0-4.1.5,1.4,1.7,3.7,4.1,6.1.9.2,1.9.2,2.8,0-1.2-1-2.8-2.7-4-4.8,3.3,1.4,6.6,2.1,8,2.3.4-.6.8-1.2,1.1-1.9-4.2-.9-7.3-2-9.6-3.1,2.4-.9,5.7-1.4,10-1.2Z"/>
</svg>