<?xml version="1.0" encoding="UTF-8"?>
<svg xmlns="http://www.w3.org/2000/svg" xmlns:xlink="http://www.w3.org/1999/xlink" version="1.1" viewBox="0 0 486.8 392">
  <defs>
    <style>
      .cls-1 {
        fill: none;
      }

      .cls-2 {
        fill: #555d77;
      }

      .cls-3 {
        fill: #776c3b;
      }

      .cls-4 {
        fill: #2d1e1d;
      }

      .cls-5 {
        fill: #010101;
      }

      .cls-6, .cls-7 {
        fill: #673f5a;
      }

      .cls-8, .cls-9, .cls-10, .cls-11, .cls-12, .cls-13, .cls-7 {
        isolation: isolate;
      }

      .cls-8, .cls-10, .cls-11, .cls-12, .cls-13 {
        opacity: .5;
      }

      .cls-8, .cls-14 {
        fill: #de7352;
      }

      .cls-15 {
        fill: #805670;
      }

      .cls-16 {
        fill: #8a4725;
      }

      .cls-17 {
        fill: #898543;
      }

      .cls-18 {
        fill: #fff8ec;
      }

      .cls-19 {
        fill: #a5a155;
      }

      .cls-20 {
        fill: #d58e62;
      }

      .cls-21 {
        fill: #989db9;
      }

      .cls-9, .cls-10, .cls-22 {
        fill: #ab4949;
      }

      .cls-9, .cls-7 {
        opacity: .3;
      }

      .cls-23, .cls-13 {
        fill: #ad6842;
      }

      .cls-11, .cls-24 {
        fill: #5f5429;
      }

      .cls-25 {
        fill: #d3b298;
      }

      .cls-26 {
        fill: #d28935;
      }

      .cls-27 {
        fill: #e0ebf8;
      }

      .cls-12, .cls-28 {
        fill: #71799d;
      }

      .cls-29 {
        fill: #f7b952;
      }

      .cls-30 {
        fill: #fff;
      }

      .cls-31 {
        fill: #f8a57d;
      }

      .cls-32 {
        fill: #423130;
      }

      .cls-33 {
        clip-path: url(#clippath);
      }

      .cls-34 {
        fill: #7d4029;
      }

      .cls-35 {
        fill: #c5605b;
      }

      .cls-36 {
        fill: #ddbda2;
      }
    </style>
    <clipPath id="clippath">
      <path class="cls-1" d="M146.8,273.8s-6,12.8-9.7,32.8c-3.8,20-6.5,49.7-4.9,51.9,1.6,2.1,20.5,2.7,30.8,2.7s20,1.1,27.5,0c7.6-1.1,14.6-4.9,14.6-4.9l-2.9-83.8s-33.3,10.1-55.5,1.2h0Z"/>
    </clipPath>
  </defs>
  <!-- Generator: Adobe Illustrator 28.7.1, SVG Export Plug-In . SVG Version: 1.2.0 Build 142)  -->
  <g>
    <g id="Layer_1">
      <g id="Layer_1-2" data-name="Layer_1">
        <g>
          <g>
            <g>
              <path class="cls-27" d="M481.3,316c-15.1,28.1-291.8,32.4-389,30.2-83.4-1.8-95.9-46.8-89.1-79.8,1.1-5.5,2.8-10.6,4.8-15.2,32.4-75.7,162-181.6,250.7-170.8,17.8,2.2,34,7.5,48.9,14.7,9.8,4.8,19,10.4,27.7,16.5,44.1,30.9,75.3,74.7,102.7,87.6,16.4,7.8,29,23.4,37.2,41.2,12.5,26.9,15.1,58.6,6,75.5h0Z"/>
              <path class="cls-30" d="M342.4,275.8c.3-3.3-3.9-5.3-7.1-4.7s-6,2.8-9,3.9c-8.7,3-18.5-3.2-27.4-.6-2.4.7-4.5,2-6.8,3-16,7.6-35.9,4.4-50.9,13.9-1.4.9-2.8,2-3.4,3.6,2.1-6.4,42.3-2.3,49.2-3.7,18.7-4,37.3-9.2,55.5-15.4h-.1Z"/>
              <path class="cls-30" d="M446,233.8c0,2.4-15.5,2.9-15.5,2.9,0,0-1.5,5.5-14.4,5-12.9-.4-20.7-3.7-22.7-3.9s-18.6,1.3-22.7-.2c-4.2-1.5,9.2-6.5,12-7.6s7.4-6.8,13.8-7.9,16.6.4,16.6.4c0,0,3.3-3.7,7.9-3.3s9.6,6.1,9.6,6.1c0,0,25.1,2.2,25.3,4.8s-9.8,3.7-9.8,3.7h0Z"/>
              <path class="cls-30" d="M51.9,215c1,1.9,5.5,1.2,6.7,1.8s3.7,4.6,9.2,4c5.5-.6,7-2.1,11-1.5s13.8,3.4,20.8,1.8c7-1.5,9.5-5.5,9.5-5.5,0,0,7-.9,6.7-2.8-.3-1.8-13.5-2.1-15.3-3s-2.2-5.5-14.1-4.6-16.5,6.1-20.5,5.8-14.7,2.8-14.1,4h.1Z"/>
              <path class="cls-30" d="M335.3,111.7c-6.4.4-17.5-.6-19-.4-2,.2-9.8,3.5-22.7,3.9-12.9.4-14.4-5-14.4-5,0,0-15.5-.4-15.5-2.9,0,0-10-1.1-9.8-3.7s25.3-4.8,25.3-4.8c0,0,5-5.7,9.6-6.1s7.9,3.3,7.9,3.3c0,0,5.5-.8,11-.8,9.8,4.8,19,10.4,27.7,16.5h-.1Z"/>
              <circle class="cls-18" cx="315.9" cy="151.8" r="8.7"/>
            </g>
            <g>
              <path class="cls-19" d="M481.3,316c-4.8,8.9-35.6,15.4-78.6,20-4.6.5-9.4,1-14.3,1.5-1.8.2-3.7.4-5.6.5-35.3,3.1-76.5,5.3-117.5,6.7-32,1.1-63.8,1.7-92.5,1.9-32,.3-60.2.1-80.5-.4-83.5-1.8-95.9-46.8-89.1-79.8,3.3-.9,6.8-1,10.2-.4,7,1.1,14,4.7,20.1,8.7,10,6.6,20.1,14.5,32,14.8,3.7,0,7.4-.6,11,.4,10,2.8,12.2,16.2,20.2,22.8,7.9,6.5,19.3,4.9,29.5,4.9,34.5-.1,65.9,21,100.3,24,14.7,1.3,29.5-.8,44.1-3,1-.1,2-.3,3.1-.5,16.3-2.6,33.4-5.4,46.7-15.2,4.5-3.3,8.5-7.4,12.6-11.2,2.6-2.4,5.2-4.8,8-6.8,1.7-1.2,3.4-2.3,5.2-3.4,7-4,14.7-6.8,22-10.2,13.2-6.1,25.5-14.4,36.1-24.4,5.5-5.1,10.7-10.8,16.5-15.5,2.6-2.1,5.3-4,8.2-5.5,13.9-7.4,30.5-6.5,46.3-5.2,12.5,26.9,15.1,58.6,6,75.5h0v-.2Z"/>
              <path class="cls-17" d="M113.6,341.1c19.8.9,39.6,2.7,59.2,5.5-32,.3-60.2.1-80.5-.4-83.4-1.8-95.9-46.8-89.1-79.8,3.3-.9,6.8-1,10.2-.4,1,1.2,1.6,2.5,1.8,3.8,7.2-4,15.4,4.4,17.3,12.4s1.1,17.1,6.3,23.6c2.1,2.6,4.9,4.5,6.9,7.2,4.4,6,4.5,15.5,11.2,18.6,7.8,3.6,17.5-5.1,25-1,1.7.9,3,2.4,4.4,3.6,7.3,6.2,17.7,6.7,27.2,7.1h0v-.2Z"/>
              <path class="cls-17" d="M382.8,338c-35.3,3.1-76.5,5.3-117.5,6.7,1.7-2.1,3.4-4.3,5.2-6.3,1-.1,2-.3,3.1-.5,16.3-2.6,33.4-5.4,46.7-15.2,4.5-3.3,8.5-7.4,12.6-11.2,6.3-.5,12.5.7,17.5,4.5-5.7,4.1-11.3,8.1-17,12.2,1.2,3.9,6,5.4,10,5.1,4-.4,7.8-2,11.8-2.3,9.5-.7,18.5,6.5,27.5,7.1h0Z"/>
              <path class="cls-17" d="M402.6,336.1c-4.6.5-9.4,1-14.3,1.5,4-1.1,7.9-3.8,11.9-2.6.9.2,1.7.7,2.4,1.2h0Z"/>
              <path class="cls-17" d="M418.5,297.8c-.5,1.4-2,2-3.3,2.4-15.6,4.6-31.9-6.8-48-4.8-6.7.8-12.8,3.9-19.2,5.6-.5.1-1.1.3-1.6.4,7-4,14.7-6.8,22-10.2,13.2-6.1,25.5-14.4,36.1-24.4,5.5-5.1,10.7-10.8,16.5-15.5,6.9,6-3.3,15.5-8.6,18.5-5,2.8-11.7,6.1-11,11.8.8,6.8,10.7,7.3,15.7,11.9,1.2,1.1,2.2,2.7,1.6,4.2h-.2Z"/>
              <path class="cls-19" d="M41.1,282.2s2.3-10.5,4.1-11l1.8-.6s3.2,10.8,4.4,11.4,3.2-5.2,4.7-5.2,4.7,9.6,4.7,9.6l3.2,5.2-16.9-2-5.8-7.3h-.2Z"/>
              <path class="cls-17" d="M445.3,281.4s0-.9.1-2.1c.2-2.5.9-6.8,2.8-10.1,2.9-5,3.6,7.2,5,10.8,1.4,3.6-7.9,3.6-7.9,1.5h0Z"/>
              <path class="cls-17" d="M453.9,277.3s0-1.1.2-2.9c.3-3.4,1.2-9,3.7-13.5,3.8-6.8,4.8,9.6,6.8,14.5,2,4.9-10.6,4.8-10.6,1.9h-.1Z"/>
            </g>
            <g>
              <path class="cls-31" d="M248,179.2l14.4-40s-3.4-5.5-3.4-7.8,1.5-19,1.5-20.2,2.5-1.9,3.1.3c.6,2.1,0,11.4,1.2,11.6s4-7.6,4.6-9.5,4.9-13.2,6.1-13.5,1.6.4,1.4,1.8-3.2,11.5-3.2,11.5c0,0-1.8,5.3-1.4,6s2.8-4.4,4.1-8.3c1.4-3.9,4.6-12.4,6-12.6s1.2,1.1.9,2.5-2.8,9.6-2.8,9.6c0,0,3.7-9.4,4.8-9.9s1.8.4,1.2,2.8c-.7,2.3-3,11-3,11,0,0-3,8.1-2.3,8.3.7.2,3.9-7.4,4.4-8.1s3.5-8.7,5.3-8.3c1.8.4-1.6,9.6-2.3,11s-6.5,18.5-7.2,20.5-6.7,5.8-6.7,5.8l-8,36.5-18.8-1.1h0Z"/>
              <path class="cls-14" d="M272.2,135c-.2,0-.5,0-.5-.4-1.7-3.7-4.5-9.1-5.7-9.5-.3,0-.5-.5-.3-.8.1-.3.5-.4.8-.3,2,.8,5.6,8.6,6.3,10.1.1.3,0,.6-.3.8h-.3Z"/>
              <path class="cls-14" d="M280.7,127.2c-.1,0-.2,0-.4,0-1.6-1.2-9-3.5-11.8-4.3-.3,0-.5-.4-.4-.7,0-.3.4-.5.7-.4.4,0,10,2.8,12.2,4.5.2.2.3.6,0,.8-.1,0-.3.2-.5.2h.2Z"/>
              <path class="cls-14" d="M276.9,120.5h-.2c-.3,0-.5-.5-.3-.8l4-9.8c.1-.3.5-.4.8-.3s.5.5.3.8l-4,9.8c0,.2-.3.4-.5.4h0Z"/>
            </g>
            <path class="cls-5" d="M259.5,196.8c-1.8-.5-3.8-3-3.9-3.1h.2c0-.1,2.1,2.4,3.8,2.9v.2h-.1Z"/>
            <g>
              <g>
                <path class="cls-32" d="M149.2,155.8c1.8,1.9,5.1,2.4,6.5,4.6.5.8.7,1.7,1.2,2.6,1.2,2.2,4,3.2,6.7,3.6s5.5.3,8,1.1c2.7.8,5,2.4,7.6,3.3.2,0,.4.1.6.2h0c2.7.8,6.6,1.6,8.2-.3.5.4,1,.6,1.6.9,3.6,1.3,8.3.2,10.3-2.9.5-.6.8-1.4,1.3-2,1-1.1,2.6-1.5,4.1-1.8s3.1-.5,4.3-1.4c1.2-.8,2-2.5,1.2-3.6-.4-.5-1-.9-1.5-1.4-1.5-1.6-1-4.1,0-6,1-1.9,2.5-3.8,2.4-5.9,0-1.8-1.2-3.3-2.3-4.8-2-2.8-1.6-6.1-2.5-9.2s-2.4-6.5-5.5-8.3c-1.2-.8-2.7-1.2-3.7-2.2-2.3-2.3-1.1-6.2-2.8-9-2.1-3.6-7.8-3.7-11.9-2.2-4.2,1.4-7.9,4.1-12.3,4.4-3.8.4-8.4-.8-11.1,1.7-1.1,1-1.7,2.6-3.2,3.1-.7.3-1.5.3-2.2.5-2.5.5-4.4,2.6-5,4.9s-.2,4.7.5,6.9c.7,2,1.5,3.9,1.6,6,0,3-1.7,5.8-2.9,8.6s-1.7,6.4.5,8.6h.3Z"/>
                <path class="cls-4" d="M171,157.1c.2,3,.8,5.9,2.5,8.5,1.5,2.4,3.8,4.3,6.4,5.4h0c2.7.8,6.6,1.6,8.2-.3.5.4,1,.6,1.6.9,2.7-.8,5.1-2.3,6.8-4.4.8-1,1.5-2.1,2.7-2.8s2.7-.9,3.4-1.9c1-1.5-.3-3.4-1.5-4.8-1.2-1.3-2.6-3.2-1.7-4.8.7-1.1,2.2-1.4,3.3-2.1,3.1-2,2.5-6.7.4-9.7s-5.3-5.2-7-8.4c-1-1.9-2-10.1-3.3-11.8-1.8-2.4-5,.2-8.1,0-2.1,0-7.7,2.3-8.5,4.8-.5,1.6,1.5,2.6,2.1,3.8.8,1.6.8,3.3.2,5-.7,1.7-1.8,3.2-2.8,4.7-3.4,5.3-5,11.6-4.7,17.8h0Z"/>
              </g>
              <g>
                <path class="cls-31" d="M199.8,173.5c0,1.6-.3,10.4-7.9,15.6-9,6.1-23,7.2-30.2,5.4-6.6-1.6-12.3-10-13.2-11.4,6.6-3.1,13.5-5.8,16.1-8.4.8-.8,1.4-3.3,1.9-6.1.5-2.7.8-5.6,1-7.8.2-1.8.2-3,.2-3,2.3-2.4,17.4,2.5,17.4,2.5l1.3,10.2.3,2.1.2,1.3s8-.4,13-.4h-.1Z"/>
                <path class="cls-14" d="M186.6,172.6c-2.6.6-5.5.8-8.1.2-5.5-1.3-10.3-10.3-11.2-12.1.2-1.8.2-3,.2-3,2.3-2.4,17.4,2.5,17.4,2.5l1.6,12.4h.1Z"/>
                <path class="cls-25" d="M166.9,157c1.8-.8,4.5,7.9.5,7.2-3.9-.8-2.2-6.4-.5-7.2Z"/>
              </g>
              <g>
                <path class="cls-6" d="M135.7,226.5s-5.8.7-7.2,2.5c-1.5,1.8-1.5,6.9-1.8,9.7s-4.7,23-5.4,30.2c-.7,7.2-.7,15.9.7,16.9,1.5,1.1,11.9,5.8,14.4,6.1s9-2.9,9-2.9l7.6-32.4-10.8-27.4-6.5-2.9h0v.2Z"/>
                <path class="cls-15" d="M134.4,282.4c-.7,0-2-.2-4.4-1.1-2-.7-4.2-1.8-5-2.5-.3-.3-.9-.9-.6-9,0-3.9.4-7.7.4-7.7,0-.4.4-.7.8-.6.4,0,.7.4.7.8-.5,6.9-.7,14.6-.2,15.7,1,.9,7,3.2,8.3,3.1.3-1,.5-5.2.5-12.8s-.4-12.3-.6-13.1c-.4-1.2-4.1-2.4-6.7-2.8-.4,0-.7-.4-.6-.8,0-.4.4-.6.8-.6,1.2.2,7,1.3,7.8,3.7.5,1.4.7,9.2.7,14.1s0,6.4-.1,8.6c-.2,4.3-.5,4.5-.9,4.7-.1,0-.3.2-1,.2h0ZM134.6,281h0ZM126.1,277.9h0Z"/>
              </g>
              <g>
                <path class="cls-26" d="M205.2,356.2s-7,3.8-14.6,4.9c-7.5,1.1-17.3,0-27.5,0s-29.2-.5-30.8-2.7c-.7-1-.6-7.4.1-16,.9-10.7,2.7-24.8,4.8-35.8,3.8-20,9.7-32.8,9.7-32.8,22.2,8.8,55.5-1.2,55.5-1.2v3.5c.1,0,2.9,80.2,2.9,80.2h0Z"/>
                <g class="cls-33">
                  <g>
                    <g>
                      <path class="cls-36" d="M141.9,319.5c-.6-.8-.9-1.8-1.1-2.8-.2-1-.4-1.9-.5-2.9,0-.9-.2-1.8.2-2.6.2-.5.5-1,.9-1.4,1.5-1.8,3.7-2.9,6-3,1.2-.1,2.5.1,3.3,1,.6.7.7,1.6.8,2.5,0,.2,0,.5-.2.7h-.5c-2.1-.1-4.4-.2-5.9,1.2-.8.7-1.2,1.6-1.3,2.6,0,.7.2,1.5.8,2,.7.5,1.5.4,2.3.7,1,.4,1.5,1.7,1.2,2.7-1.9,1-4.6,1.1-6-.8h0Z"/>
                      <path class="cls-36" d="M147.8,313c-.6.2-1.1.7-1.2,1.3.6.3,1.2.6,1.8.5.7-.1,1.2-.9.8-1.5-.2-.2-.3-.3-.5-.4s-.5-.2-.8-.2-.5.2-.5.5l.4-.4h0v.2Z"/>
                      <path class="cls-36" d="M148.8,317.8c1.4-.5,2.5-2,2.3-3.5v-.5c.2-.3.6-.3.8-.1s.3.5.4.9c.2,1.2.2,2.5-.5,3.5s-2.2,1.5-3.2.8v-1h.2Z"/>
                    </g>
                    <g>
                      <path class="cls-36" d="M200.9,346.5c.2,1,0,2-.3,3-.2,1-.5,1.9-.9,2.8-.3.8-.7,1.6-1.3,2.2s-.9.6-1.5.9c-2.2.9-4.6.8-6.8,0-1.1-.5-2.2-1.3-2.5-2.5-.2-.9.2-1.8.5-2.6,0-.2.2-.5.5-.5s.3,0,.4.1c1.8,1.1,3.8,2.2,5.8,1.7,1-.2,1.8-.9,2.4-1.8.4-.6.5-1.4.2-2.1s-1.2-1.1-1.7-1.7c-.7-.9-.6-2.2.2-2.9,2.2,0,4.6,1.1,4.9,3.4h.1Z"/>
                      <path class="cls-36" d="M192.7,349.5c.6.1,1.3-.1,1.7-.6-.4-.5-.8-1.1-1.4-1.3s-1.5.3-1.3,1c0,.2.2.4.3.6.2.2.3.4.6.5.2.1.6,0,.7-.2h-.5c0,.1-.1,0-.1,0Z"/>
                      <path class="cls-36" d="M194,344.9c-1.5-.2-3.1.6-3.7,2,0,.1-.1.3-.2.4-.2.2-.7,0-.8-.3s0-.6,0-1c.3-1.1,1-2.3,2.1-2.8s2.6-.3,3.2.8c0,.2-.2.5-.3.8h-.2v.2h-.1Z"/>
                    </g>
                    <g>
                      <path class="cls-36" d="M168.1,287.5c1-.1,2,0,3,.3,1,.2,1.9.5,2.8.9.8.3,1.6.7,2.2,1.3.4.4.7.9.8,1.5.8,2.1.8,4.6,0,6.8-.5,1.1-1.3,2.2-2.5,2.5-.9.2-1.8-.1-2.6-.5-.2-.1-.5-.2-.5-.5s0-.3.2-.4c1.1-1.8,2.2-3.8,1.7-5.8-.2-1-.9-1.9-1.8-2.4-.6-.4-1.4-.5-2.1-.2-.7.4-1.1,1.2-1.7,1.7-.8.7-2.2.6-2.9-.2,0-2.1,1.1-4.6,3.4-4.9h0Z"/>
                      <path class="cls-36" d="M171.1,295.8c.1-.6-.1-1.3-.6-1.7-.5.4-1.1.8-1.3,1.4s.3,1.5,1,1.3c.2,0,.4-.2.6-.3.2-.1.4-.3.5-.6s0-.6-.2-.7v.5c.1,0,0,0,0,0h0Z"/>
                      <path class="cls-36" d="M166.5,294.5c-.2,1.5.6,3.1,2,3.7.2,0,.3.1.4.2.2.2,0,.6-.3.8s-.6,0-1,0c-1.2-.3-2.3-1-2.8-2.1s-.3-2.6.8-3.2c.2.1.5.2.8.3v.2h.1Z"/>
                    </g>
                    <g>
                      <path class="cls-36" d="M152.9,278.9c0,1-.2,2-.6,3-.3.9-.7,1.8-1.2,2.7-.4.8-.8,1.6-1.5,2.1-.5.4-1,.6-1.5.7-2.2.7-4.7.4-6.7-.6-1.1-.5-2.1-1.5-2.2-2.6,0-.9.3-1.8.7-2.6,0-.2.3-.5.5-.5s.3,0,.4.2c1.7,1.2,3.6,2.5,5.7,2.2,1-.2,1.9-.7,2.5-1.5.4-.6.7-1.4.4-2.1-.3-.8-1.1-1.1-1.5-1.8-.6-.9-.4-2.2.5-2.9,2.2.1,4.5,1.5,4.6,3.8h0Z"/>
                      <path class="cls-36" d="M144.6,281.4c.6.2,1.3,0,1.7-.5-.3-.6-.7-1.2-1.3-1.4s-1.5.2-1.4.8c0,.2.2.4.3.6.2.2.3.5.5.5.2.1.6,0,.7-.2h-.5v.2Z"/>
                      <path class="cls-36" d="M146.2,276.8c-1.5-.4-3.1.4-3.8,1.7,0,.1-.2.3-.3.4-.3.2-.7,0-.8-.4s0-.6,0-.9c.4-1.1,1.2-2.2,2.3-2.6,1.1-.5,2.6,0,3.1,1-.1.2-.2.5-.4.8h-.2c0,.1,0,0,0,0h0Z"/>
                    </g>
                    <g>
                      <path class="cls-36" d="M167.7,330.9c.2-1,.7-1.9,1.3-2.7.5-.8,1.2-1.6,1.8-2.4.5-.7,1.2-1.3,2-1.6.5-.2,1.1-.3,1.7-.3,2.3-.1,4.7.8,6.4,2.3.9.8,1.7,1.9,1.5,3.1-.1.9-.7,1.6-1.3,2.3-.2.2-.4.4-.6.4s-.2-.1-.3-.3c-1.3-1.6-2.8-3.3-4.9-3.5-1,0-2,.2-2.8.9-.5.5-1,1.2-.9,1.9,0,.8.8,1.4,1,2.1.3,1-.2,2.2-1.2,2.7-2-.6-4-2.5-3.5-4.9h-.2Z"/>
                      <path class="cls-36" d="M176.4,330.8c-.5-.3-1.3-.3-1.8,0,.2.6.4,1.3.9,1.7s1.5.2,1.5-.5,0-.5-.1-.6c0-.2-.2-.5-.4-.7s-.5-.2-.7,0h.6Z"/>
                      <path class="cls-36" d="M173.7,334.6c1.3.7,3.1.4,4.2-.7,0-.1.2-.2.4-.3.3-.1.6.2.7.5,0,.3-.2.6-.3.9-.7,1-1.7,1.8-2.9,2s-2.5-.6-2.8-1.8c.2-.2.4-.4.5-.6h.2Z"/>
                    </g>
                    <g>
                      <path class="cls-36" d="M192.8,307.9c.2-1,.7-1.9,1.3-2.7.5-.8,1.2-1.6,1.8-2.4.5-.7,1.2-1.3,2-1.6.5-.2,1.1-.3,1.7-.3,2.3-.1,4.7.8,6.4,2.3.9.8,1.7,1.9,1.5,3.1-.1.9-.7,1.6-1.3,2.3-.2.2-.4.4-.6.4s-.2-.1-.3-.3c-1.3-1.6-2.8-3.3-4.9-3.5-1,0-2,.2-2.8.9-.5.5-1,1.2-.9,1.9,0,.8.8,1.4,1,2.1.3,1-.2,2.2-1.2,2.7-2-.6-4-2.5-3.5-4.9h-.2Z"/>
                      <path class="cls-36" d="M201.5,307.6c-.5-.3-1.3-.3-1.8,0,.2.6.4,1.3.9,1.7s1.5.2,1.5-.5,0-.5-.1-.6c0-.2-.2-.5-.4-.7s-.5-.2-.7,0h.6Z"/>
                      <path class="cls-36" d="M198.8,311.6c1.3.7,3.1.4,4.2-.7,0-.1.2-.2.4-.3.3-.1.6.2.7.5,0,.3-.2.6-.3.9-.7,1-1.7,1.8-2.9,2s-2.5-.6-2.8-1.8c.2-.2.4-.4.5-.6h.2Z"/>
                    </g>
                    <g>
                      <path class="cls-36" d="M200.4,285.8c-.9-.5-1.5-1.3-2.1-2.1-.6-.8-1.1-1.6-1.6-2.5-.4-.8-.8-1.5-.9-2.4,0-.6,0-1.1.2-1.7.7-2.2,2.3-4.1,4.3-5.2,1-.6,2.4-.9,3.5-.4.8.4,1.3,1.2,1.7,2,.1.2.2.5,0,.7,0,.1-.2.2-.4.2-2,.7-4.1,1.5-5,3.5-.4.9-.5,2-.1,3,.2.7.8,1.4,1.5,1.5.8.2,1.6-.2,2.4-.2s2,.9,2.2,2c-1.3,1.7-3.8,2.9-5.8,1.7h.1Z"/>
                      <path class="cls-36" d="M203.2,277.5c-.5.4-.7,1.1-.6,1.7.7,0,1.3.1,1.9-.3s.7-1.3,0-1.6c-.2-.1-.4-.1-.7-.1s-.5,0-.8.1-.4.4-.2.6l.2-.5h.2Z"/>
                      <path class="cls-36" d="M206,281.4c1.1-1,1.5-2.8.8-4.1,0-.1-.2-.3-.2-.5,0-.3.4-.5.7-.4s.5.4.7.6c.7,1,1.2,2.2.9,3.4s-1.4,2.2-2.6,2c-.1-.2-.2-.5-.4-.8v-.2h.1Z"/>
                    </g>
                    <g>
                      <path class="cls-36" d="M145.9,358.6c-.9-.5-1.6-1.2-2.2-2-.6-.8-1.2-1.5-1.7-2.4-.5-.7-.9-1.5-1-2.4,0-.6,0-1.1.2-1.7.6-2.2,2.1-4.2,4-5.4,1-.6,2.3-1,3.4-.5.8.4,1.3,1.2,1.8,1.9.1.2.3.5.2.7,0,.1-.2.2-.4.2-1.9.8-4,1.8-4.8,3.7-.4.9-.4,2,0,3,.3.7.8,1.3,1.5,1.4.8.1,1.5-.3,2.3-.4,1.1,0,2.1.8,2.2,1.9-1.2,1.8-3.6,3-5.7,2h.2Z"/>
                      <path class="cls-36" d="M148.3,350.2c-.5.4-.7,1.1-.5,1.7.7,0,1.3,0,1.9-.4s.6-1.4,0-1.6c-.2-.1-.4,0-.7,0s-.5,0-.8.2c-.2.1-.3.5-.2.7l.2-.5h.1Z"/>
                      <path class="cls-36" d="M151.3,353.9c1.1-1,1.3-2.9.5-4.1,0-.1-.2-.3-.2-.5,0-.3.4-.5.7-.5s.5.3.8.6c.7,1,1.2,2.1,1,3.3s-1.3,2.2-2.5,2.1c-.2-.2-.3-.5-.4-.7v-.2h0Z"/>
                    </g>
                  </g>
                </g>
                <path class="cls-9" d="M202.4,276c-.3-.1-.7-.2-1.1-.2-1.8,0-3.8.8-5.6,1.2-7.9,2-15.8,4.1-24,4.5-5.8.3-11.6-.3-17.2-1.7-1.4-.4-2.9-.7-4.2-.2-1.4.6-2.2,2.1-2.7,3.6-2.9,7.4-4,15.3-5.7,23-1.2,5.7-2.8,11.4-4.4,17-1.8,6.4-3.5,12.7-5.3,19,.9-10.7,2.7-24.8,4.8-35.8,3.8-20,9.7-32.8,9.7-32.8,22.2,8.8,55.5-1.2,55.5-1.2v3.5c.1,0,0,0,0,0h.2Z"/>
              </g>
              <g>
                <path class="cls-31" d="M169.2,127.1c-2.2,1.4-.7,10.1-.3,13,.3,2.9-2.2,5.4-2.2,5.4,0,0-4.7-.4-6.1,2.5s2.5,10.2,5.4,10.8c2.1.4,3.3-.4,3.3-.4,0,0,2.8,5.7,9.6,8.7,5.9,2.6,14,1.1,16.2-1.1s3-16.8,2.5-20.5-1.1-5.4-1.9-8.1c-.8-2.7-1.1-7.6-2.4-10.5s-3.2-3.8-6.2-2.7-10.3,4.3-13,3.8c-2.7-.6-5-.8-5-.8h0Z"/>
                <path class="cls-16" d="M174.4,138.8c0,1.1,2.5-1.9,4.8-2.1s4.1,0,4-.9-3-1.2-4.5-.8-4.3,3.1-4.3,3.8h0Z"/>
                <path class="cls-32" d="M179.9,139.3c-2.9.9-.7,6.1,1.1,5.4s1.1-6.1-1.1-5.4Z"/>
                <path class="cls-8" d="M171.5,150.5c-.5,1.8,7.9,2.1,7.9.4s-7.4-2.1-7.9-.4Z"/>
                <path class="cls-32" d="M193.4,136.6c-1.8.6-.7,5.3.7,4.8s1.4-5.5-.7-4.8Z"/>
                <path class="cls-30" d="M196.2,151.4c0,.6-.5,3.6-1,4-.5.5-4.1,2.3-7,2.3s-6.1-3.2-6.1-3.2h.2c1.2.3,3.5.8,5,.3,2.2-.7,4.5-1.8,5.8-2,.9-.1,2.2-.7,3-1.4h.1Z"/>
                <path class="cls-16" d="M190.3,133.9c.3.9,2.3,0,3-.2s1.8,0,1.8,0l-.3-1.6s-1.5-.3-2.5,0-2.2,1.2-1.9,1.9h-.1Z"/>
                <path class="cls-14" d="M168.4,156.3c-.2,0-.5-.1-.6-.4-.6-1.8-3.7-4.1-4.9-4.8-.3-.2-.4-.6-.2-.8s.5-.4.8-.2c.2,0,4.5,2.9,5.4,5.4,0,.3,0,.6-.4.8h-.2,0Z"/>
                <path class="cls-14" d="M165.4,155.8c-.2,0-.3,0-.4-.2-.2-.2-.2-.6,0-.8,0,0,1.1-1.1,2.6-1.1s.6.3.6.6-.3.6-.6.6c-1,0-1.7.7-1.8.7-.1.1-.3.2-.4.2h0Z"/>
                <path class="cls-14" d="M194,149c-.2,0-.3,0-.4-.2-.2-.2-.2-.6,0-.9,0,0,.5-.6.5-1.6s-1.3-2.4-2.1-3.5c-.9-1.2-1.7-2.4-1.8-3-.4-1.3-.7-4.8-.8-5,0-.3.2-.6.5-.6s.6.2.7.5c0,0,.3,3.6.7,4.8.1.4,1,1.6,1.7,2.6,1.5,2.1,2.3,3.4,2.3,4.2,0,1.5-.8,2.4-.9,2.4-.1,0-.3.2-.4.2h0Z"/>
                <path class="cls-14" d="M190,150.3c-.4,0-1,0-1.6-.5-1-.7-.8-2.4-.8-2.5,0-.3.3-.6.7-.5s.5.3.5.6h0c0,.4,0,1.2.3,1.4.5.4,1.2.2,1.2.2.3,0,.6,0,.7.5,0,.3-.2.6-.5.7h-.5,0Z"/>
                <path class="cls-14" d="M185.9,155.6c-1.3,0-2.7-.3-3.7-.6-.4-.1-.6-.1-.6-.1-.3,0-.5-.3-.5-.6s.3-.6.6-.6.5.1.8.2c1.2.4,3.3.9,4.7.4.8-.3,1.6-.6,2.4-.9,1.4-.5,2.6-1,3.5-1.1.7-.1,1.9-.6,2.8-1.3.4-.3.6-.6.8-.9.1-.3.5-.4.8-.3s.5.5.3.8c-.2.4-.5.9-1.1,1.4-.9.8-2.3,1.4-3.3,1.5-.7.1-1.9.6-3.2,1.1-.8.3-1.7.6-2.5.9-.5.2-1,.2-1.7.2h-.1Z"/>
                <path class="cls-14" d="M181.7,156.1c-.2,0-.3,0-.5-.2-1-1.3.5-3.1.6-3.2.2-.2.6-.3.8,0s.3.6,0,.8c-.3.4-.9,1.4-.6,1.8.2.2.2.6-.1.8,0,0-.2.1-.3.1h.1Z"/>
                <path class="cls-14" d="M189,162c-.2,0-.5-.1-.5-.4-.1-.3,0-.6.3-.8.8-.4,5-2.1,6.5-1.9.3,0,.5.4.5.7s-.3.6-.7.5c-.8-.1-3.9,1-5.8,1.9h-.3Z"/>
              </g>
              <g>
                <path class="cls-35" d="M202.6,248.8c1,8,1.9,15.5,1.9,16.7,0,2.7-2.2,7-2.2,7,0,0-12.5,5.7-29.8,5.4-3.7,0-7-.3-9.9-.6-3.4-.4-6.3-.9-8.6-1.4-4.8-1.1-7.2-2.1-7.2-2.1,0,0-2.4-1.4-3.2-4.3-.8-3-1.9-16.6-1.9-16.6,0,0-3.2-1.1-4.8-4-1.6-3-4-13.5-4.8-27s1.6-29.1,5.7-32.4c2.8-2.2,6.7-4.2,10.7-6.1,6.6-3.1,13.5-5.8,16.1-8.4.2-.2.3-.4.5-.8,0,0,0-.2.1-.2,0-.2.2-.4.2-.6v-.2c.2-.6.4-1.3.5-2.1,0-.2,0-.4.2-.7,0-.2,0-.4.1-.7v-.4h0v-.4c1.6,1.2,8.5,5.9,20,1.9l.3,2.1.2,1.3s8-.4,13-.4,2.5,0,3.2.1c3.2.4,9.7,3.9,9.7,3.9l-10.4,39.8-2.6,9.9s1.5,11.2,2.8,21.5h0l.2-.2Z"/>
                <path class="cls-10" d="M202.6,248.8c-1.9,1.7-3.8,3.4-5.7,5.1-4.9,4.4-9.9,8.9-15.9,11.5-5.9,2.6-13.1,3.6-17,8.7-.8,1.1-1.2,2.2-1.4,3.2-3.4-.4-6.3-.9-8.6-1.4-3.3-11.1-11.8-20.6-12.6-32.1-.2-3.4,6.8-3.1,7.9-6.4,1.8-5.4,9.2-6.9,14.6-8.6,3.4-1.1-4.6-13-3.5-16.2.8-2.4-.7-5.1,3.2-4.7,2.5.3,3.5,3.4,4.5,5.7,2.2,4.9,7.2,8,12.5,8.9,5.3.8,10.7-.5,15.5-2.9,1.7-.8,3.3-1.7,5.1-2.1.4,0,.8-.1,1.3-.1l-2.6,9.9s1.5,11.2,2.8,21.5h-.1Z"/>
                <path class="cls-22" d="M166.4,230.4c-2.9,7.6-15.1,19.1-21.5,21.9-1.4.6-2.5.8-3.2.5-4.5-2.1-4.7-5.6-2.6-9.4,4.1-7.6,17.4-16.6,23.7-18.6,1.5-.5,2.6-.5,3.1,0,1.4,1.3,1.4,3.3.5,5.7h0Z"/>
                <path class="cls-22" d="M165.9,225.6c-.2,0-.4,0-.6-.2-4.2-4.1-9.4-22.1-9.6-22.9-.1-.5.1-.9.6-1s.9.1,1,.6c0,.2,5.2,18.4,9.1,22.1.3.3.3.9,0,1.2s-.4.3-.6.3h.1Z"/>
                <g>
                  <path class="cls-31" d="M180,260c-2.9,3.6-15.8,10.8-22.7,6.5-3.6-2.3-8.5-8.7-12.4-14.2-2.9-4.2-5.2-8-5.8-8.9,4.1-7.6,17.4-16.6,23.7-18.6l3.7,5.7,1.7,2.6,5.4-4s9.4,27.4,6.5,31h0Z"/>
                  <path class="cls-14" d="M162.7,243.3h-.2c-.3-.1-.5-.4-.4-.8,0-.3,2.2-7,5.6-10,.2-.2.6-.2.8,0s.2.6,0,.9c-3.1,2.8-5.2,9.4-5.2,9.5,0,.2-.3.4-.6.4h0Z"/>
                </g>
                <path class="cls-22" d="M177.5,182.4h-2.1c-4-.2-9.1-.9-11.8-4.6-.3-.4-.2-.9.2-1.2s.9-.2,1.2.2c2.3,3.1,6.8,3.7,10.5,3.9,2.1.1,4.5.1,6.7-.6,1.7-.6,3.7-2,4.2-4.2,0-.4.5-.8,1-.6.5.1.8.6.7,1-.5,2.4-2.5,4.5-5.3,5.4-1.7.6-3.5.8-5.2.8h0Z"/>
                <path class="cls-22" d="M167.9,176.8h0c-.5,0-.8-.5-.8-.9l.5-3.8c0-.5.5-.8,1-.8s.8.5.8.9l-.5,3.8c0,.4-.4.8-.8.8h-.2Z"/>
                <path class="cls-22" d="M171.9,178.2c-.4,0-.8-.3-.8-.7-.2-1.5,0-3.1.7-4.5s.7-.6,1.2-.4c.4.2.6.7.4,1.1-.5,1.1-.7,2.3-.5,3.5,0,.5-.2.9-.7,1h-.3Z"/>
                <path class="cls-22" d="M174.8,179.5c-.5,0-.8-.4-.8-.8v-3.9c0-.5.5-.8,1-.8s.8.5.8.9c-.2,1.2-.2,2.4,0,3.6,0,.5-.3.9-.8.9h-.2Z"/>
                <path class="cls-22" d="M178.1,178.9h0c-.5,0-.8-.5-.8-.9.2-1.3,0-2.7-.4-3.9-.2-.4,0-.9.5-1.1.5-.1.9,0,1.1.5.5,1.5.7,3.1.5,4.7,0,.4-.4.8-.8.8h-.1Z"/>
                <path class="cls-22" d="M181.8,181.1c-.3,0-.7-.2-.8-.6-.5-1.5-.8-3.1-1-4.7,0-.5.3-.9.8-.9s.9.3.9.8c.1,1.4.4,2.9.9,4.3.2.4,0,.9-.5,1.1h-.3,0Z"/>
                <path class="cls-22" d="M184.4,177.8c-.5,0-.8-.4-.8-.8-.1-1.4-.7-2.8-1.5-3.9-.3-.4-.2-.9.2-1.2s.9-.2,1.2.2c1,1.4,1.7,3.1,1.8,4.8,0,.5-.3.9-.8.9h0Z"/>
                <path class="cls-22" d="M186.2,176c-.5,0-.8-.4-.8-.9s-.2-1.4-.6-1.9c-.3-.4-.2-.9.2-1.2s.9-.2,1.2.2c.6.8.9,1.9.9,2.9s-.4.9-.8.9h0Z"/>
              </g>
              <path class="cls-6" d="M157.3,179.1s3.9,5.5,5.9,17,1.1,26.5,1.1,26.5c0,0-2.9-6.1-4-8.8,0,0-.4-10.4-1.5-16.8-1.8-11.2-5.6-16.1-5.6-16.1l4-1.8h.1Z"/>
            </g>
            <g>
              <g>
                <path class="cls-6" d="M279.7,355.9c-1.8,2.1-9.4,4.7-9.4,4.7l-4.7,1.1c-3.2.8-9.8.5-14.1,0-1.9-.2-3.4-.5-4-.7-1.8-.7-1.5-12.2-3.6-12.2s-5,12.6-5,12.6c0,0-2.8.8-6.2,1.6-3.9.9-8.6,1.9-11.1,1.6-3.5-.3-13.8-1.5-19.5-2.9-.2,0-.5-.1-.7-.2-1.5-.4-2.6-.8-2.9-1.2-1.5-1.8-1.1-19.8-.3-28.1.5-6.4,2.6-15.6,3.5-19.5.3-1.1.4-1.8.4-1.8,0,0,1.2,0,3.2-.1,14.5-.6,72.7-2.7,72.7.1s.2,3,.3,6.1c.8,12,2.5,37.1,1.1,38.9h.3Z"/>
                <path class="cls-15" d="M244.4,339.2c-.3,0-.5-.2-.7-.5-.2-.4,0-.8.4-.9,1.5-.6,4-1.9,4.5-2.9.5-1.1,1.7-11.7,2.3-18.1,0-.4.4-.7.8-.6.4,0,.7.4.7.8-.2,1.7-1.7,16.9-2.4,18.6-.8,1.8-4.8,3.5-5.2,3.6h-.4Z"/>
                <path class="cls-15" d="M209.4,331c-2.7,0-5-.1-5.5-.2-.4,0-.7-.4-.7-.8s.4-.7.8-.6c3.5.2,13.1.5,15.2-1.3,2.5-2.1,3.2-8.3,3.2-8.4,0-.4.4-.7.8-.6.4,0,.7.4.6.8,0,.3-.8,6.8-3.7,9.3-1.7,1.5-6.7,1.8-10.7,1.8h0Z"/>
                <path class="cls-15" d="M202.3,362.4c-.4,0-.7-.3-.7-.7s-1.1-17.1.4-30.4c.8-6.9,3.5-15.3,3.6-15.6.1-.4.5-.6.9-.5s.6.5.5.9c0,0-2.8,8.6-3.6,15.4-1.4,13.1-.4,30-.3,30.1,0,.4-.3.7-.7.8h0Z"/>
                <path class="cls-7" d="M278.7,316.9c-.1.1-.3.2-.4.4-1.3.9-3,1.1-4.5,1.3-10.2,1.2-20.3,2.4-30.5,3.5-5,.6-10.1,1.2-15.2,1-4.9-.1-8.4,1.8-13.3,1.1-2.5-.3-4.3-2.5-5.8-.4-1.1,1.5-3.6,2.9-3.5,4.7.3,4.5-.4,9-1,13.5-1,6.4-1.9,12.8-2.8,19.2-1.5-.4-2.6-.8-2.9-1.2-1.5-1.8-1.1-19.8-.3-28.1.5-6.4,2.6-15.6,3.5-19.5,1.2-.7,2.4-1.3,3.7-1.9,14.5-.6,72.7-2.7,72.7.1s.2,3,.3,6.1h0v.2Z"/>
                <path class="cls-15" d="M272.1,327c-2,0-4.1-.2-5.3-.9-3-1.6-3.2-8.8-3.2-9.6s.3-.7.7-.7.7.3.7.7c0,2.8.8,7.5,2.5,8.4,2,1.1,8,.6,10.2.3.4,0,.8.2.8.6s-.2.8-.6.8-3.1.4-5.8.4h0Z"/>
                <path class="cls-7" d="M239,361.2s.1-.5.3-1.4c0,1-.2,1.9-.2,2.8v-1.4h-.1Z"/>
                <path class="cls-7" d="M255.2,339.2c-.3,1.3-1.3,2.3-2.2,3.2-3.5,4-4.7,9.8-3,14.8.5,1.4,1.2,2.8,1.7,4.3-1.9-.2-3.4-.5-4-.7-1.8-.7-1.5-12.2-3.6-12.2s-3.9,7.9-4.7,11.2c.4-4.6.8-9.2,1.6-11.7.2-.8.5-1.6.3-2.4s-1-1.4-1.6-2c-2-1.8-3.5-4-4.5-6.4,3.8-.1,5.3,6.3,9.1,6.4,1.8,0,3.2-1.4,4.4-2.7,1-1.1,2.1-2.3,3.2-3.4.3-.4.7-.7,1.2-.9,1.3-.4,2.4,1.2,2.1,2.5h0Z"/>
              </g>
              <g>
                <path class="cls-3" d="M312.1,196.6c0,8.1-2.4,19.8-5.6,25.8-1.3,2.5-2.8,4-4.4,3.9h-.5c0-.1-23.1-6-23.1-6-.6-.2-1-.3-1-.3,0,0,0,36.2.5,43.8.5,7.5,3.3,36.8,3.8,40s0,7.5-4.3,9.7c-4.3,2.1-31.3,7.5-53,7-21.6-.5-26.2-6.8-26.2-6.8,0,0,.3-12.4,1.9-20,1.8-8.5.5-57.5.5-57.5,0,0-7.3-2.1-14.3-1.9s-6.2.5-8.5,1.1c-7.6,2-8.6,6.2-8.6,6.2-.5-16.5,3.2-39.5,10.3-47.5,4.1-4.8,15.7-11,24.8-16.2,1.3-.8,2.6-1.5,3.8-2.2,4.7-2.7,8.1-5.1,8.7-6.5.3-.9.5-2,.7-3.4.7-5.7.3-14.4.3-14.4l23,2.7,1.7,11.4.7,4.6s1.8,0,4.6.2c1.2,0,2.5.1,3.8.1,7.7.1,17.2-.2,22.1,1.4,3,.9,6.6,2.3,10.2,3.9,10.1,4.3,21.2,10.1,25.7,12.5h0c1.5.8,2.2,4.1,2.2,8.5h.2Z"/>
                <path class="cls-11" d="M284.2,175.6c-4.8.6-9.5.9-14.3,1-9.1,0-18.2-1.1-27.3-1.2-9.5,0-22,0-30.4,4.8-8,4.7-18.6,9.3-25.5,15.5-9.8,8.9-10.2,24-8.9,37.1,0,.9.2,1.8.2,2.6-7.6,2-8.6,6.2-8.6,6.2-.5-16.5,3.2-39.5,10.3-47.5,4.1-4.8,15.7-11,24.8-16.2,1.3-.8,2.6-1.5,3.8-2.2,4.7-2.7,8.1-5.1,8.7-6.5.3-.9.5-2,.7-3.4.7-5.7.3-14.4.3-14.4l23,2.7,1.7,11.4.7,4.6s1.8,0,4.6.2c1.2,0,2.5.1,3.8.1,7.7.1,17.2-.2,22.1,1.4,3,.9,6.6,2.3,10.2,3.9h0Z"/>
                <path class="cls-24" d="M232.4,190c-4.4,0-8.9-.6-12.3-1.1h-.2c-11.5-1.7-14.5-9.4-14.6-9.8-.2-.4,0-.9.5-1.1s.9,0,1.1.5c.1.3,2.9,7.1,13.3,8.6h.2c6.6,1,17.6,2.6,23-1.5,7.8-5.8,7.6-12.3,7.6-12.6,0-.5.3-.9.8-.9s.9.4.9.8.3,7.6-8.3,14.1c-3,2.3-7.5,3-12,3h0Z"/>
                <path class="cls-25" d="M217.1,222.5c-2,2,.7,29.2,1.1,33.5s0,9.7.7,10.8,29.9,1.1,33.2.4,4-.7,4-.7c0,0,12.6-2.5,14-4.3,1.5-1.8-.7-23.4-.7-25.9v-2.5s1.5-14.4-.7-15.5-15.8,1.5-27.7,2.5-22.7.7-23.8,1.8h0Z"/>
                <path class="cls-24" d="M169.5,241.6c-1.2,4.8,13,12.2,25.2,6.1s.2-12.3.2-12.3c0,0-23-2.8-25.4,6.2h0Z"/>
                <path class="cls-24" d="M203.6,220.3c-.4,0-.8-.3-.8-.8-.5-5.8-2.1-14.4-2.2-14.5,0-.5.2-.9.7-1s.9.2,1,.7c0,0,1.6,8.8,2.2,14.7,0,.5-.3.9-.8.9h0Z"/>
                <path class="cls-24" d="M277.6,220.9h0c-.5,0-.8-.4-.8-.9.3-6.3-.8-14.9-.8-15,0-.5.3-.9.8-1,.5,0,.9.3,1,.8,0,.4,1.1,8.8.8,15.3,0,.5-.4.8-.8.8h-.2Z"/>
                <path class="cls-24" d="M312.1,196.6c0,8.1-2.4,19.8-5.6,25.8-1,1.9-2,3.1-3.2,3.6-.4.2-.8.3-1.2.2h-.4c-.7-.4-1.3-1-1.8-2-.7-1.3-1.2-3.1-1.5-5.1-.5-3.5-.5-7.4-.3-10.1.5-7.8,6.1-21.7,11.4-21,.2,0,.3,0,.4.1h0c.2.1.4.2.5.4,1.2,1.2,1.7,4.2,1.7,8.1Z"/>
                <path class="cls-11" d="M303.3,226.1c-.4.2-.8.3-1.2.2h-.5c0-.1-23.1-6-23.1-6-.1-.5-.2-1.1-.3-1.7-.4-3.7-1.2-9,0-12.4,5.4,5.6,5.7,12.7,14.4,15.8,2.3.9,4.9,1.3,7.2,2.2,1.3.5,2.5,1,3.5,1.9h0Z"/>
              </g>
              <path class="cls-23" d="M209.7,139.2s-3.5,12-2.1,16.4,11.4,6.4,13,5.8c1.7-.6,2.7-12.4,2.7-12.4,0,0-11.4-4.4-13.7-9.7h.1Z"/>
              <path class="cls-20" d="M243,182.6c-6.2,3.1-17,2.7-24.8.5-8.7-2.4-9.7-7.4-9.7-7.4h0c4.7-2.8,8.1-5.1,8.7-6.5,1-2.6,1.2-8.3,1.2-12.6v-5.2l23,2.7,2.4,15.9s1.8,0,4.6.2c.3,2.4-.3,9.8-5.2,12.3h-.2Z"/>
              <g>
                <path class="cls-20" d="M368.1,166.6s-18.7,45.3-23,51.2c-4.3,6-10.5,14.4-19.6,12.6-3.7-.7-12.4-4.1-19-6.9-4-1.6-7.2-3-8.1-3.4-.5-3.5-.5-7.6-.3-10.5.5-8,6.1-22.5,11.4-21.7l1,.5,13.8,7.2,29.3-35.6,14.6,6.5h0Z"/>
                <path class="cls-23" d="M321.9,206.9h0c-.3,0-.6-.2-.6-.6s0-7.4,2.5-11c.2-.2.5-.3.8-.1s.3.5.2.8c-2.2,3.2-2.2,10.2-2.2,10.3,0,.3-.3.6-.6.6h0Z"/>
              </g>
              <g>
                <path class="cls-20" d="M250,154.1c-.2,5.2-2.1,9.6-6.6,11.2-5.7,2.1-13.2-.1-16.1-1.6-3.4-1.8-7.8-10.5-7.9-10.8h0s-.6,1.2-3.2,1.1c-1.6-.1-3.1-2.8-3.8-4.4s-1.9-6-.5-7.5c1.5-1.4,3.5-.8,3.5-.8l-1.5-9.1s-1.8,0,7.2-8.3,22.9-6.1,22.9-6.1c0,0,1.2.6,2,7.9.3,2.7,1.5,5.9,2.4,9.1.2.8.4,1.6.5,2.5,0,.3,0,.6.1.9.2,2.1.5,4.1.6,6.1.3,4.1.4,7.7.3,10h0v-.2Z"/>
                <path class="cls-34" d="M250,154.1c-.2,5.2-2.1,9.6-6.6,11.2-5.7,2.1-13.2-.1-16.1-1.6-3.4-1.8-7.8-10.5-7.9-10.8h0c.1,0,4,1.9,5.2,2.4,1.2.6,3.5-2.1,3.2-3.4-.2-1.2-.5-6.2,1-6.6s5.9-2.6,5.9-2.6c0,0,.5.2,1.5.2s1.7-.8,4.3-1c1.8,0,2.7-1.7,2.7-1.7,0,0,3.5-.9,4.4-.2.8.6,2.2,4.1,2.2,4.1.3,4.1.4,7.7.3,10h0Z"/>
                <path class="cls-23" d="M243,141.2s-.2,0-.3,0c-.2-.2-.3-.5-.2-.8h0c.3-.4.7-1.4.4-1.9-.5-.6-4-5.4-4.4-6.9-.4-1.3,0-4.2,0-4.6s.3-.5.6-.5.5.3.5.6c0,.8-.3,3.1,0,4.1.3,1.1,3.3,5.4,4.2,6.5,1,1.2-.2,3-.3,3.2,0,.2-.3.2-.5.2h0v.2Z"/>
                <path class="cls-23" d="M235.8,143.6c-.6,0-1.2,0-1.5-.6-.4-.6-.5-2.3-.5-3s.2-.6.6-.6.6.2.6.6c0,1,.1,2.1.2,2.4.2,0,1,0,1.6,0,.3,0,.6,0,.7.4s-.2.6-.5.7c-.3,0-.8,0-1.2,0h0ZM235.2,142.4h0Z"/>
                <path class="cls-23" d="M237.1,142.1h0c-.3,0-.5-.4-.5-.6,0-.4.5-1.3,1.7-1.3s.7,0,1.1,0c.7,0,1.5,0,1.9,0,.3,0,.6,0,.8.2s0,.6-.2.8c-.6.3-1.6.2-2.5,0h-1c-.3,0-.5.2-.5.4,0,.3-.3.5-.5.5h-.3Z"/>
                <path class="cls-32" d="M227.8,131.5c1.8-.9,2.9,4.6,1.1,5.2-1.8.6-3.1-4.2-1.1-5.2Z"/>
                <path class="cls-34" d="M222,130.6c.9.8,3.3-2.8,5-3.2,1.7-.5,3.3.4,4.1-.6.7-.9-2.8-2.6-5.3-1.8-2.5.9-4.8,4.8-3.8,5.6h0Z"/>
                <path class="cls-32" d="M230.4,150.6c-.2,0-.4,0-.5-.3-.4-.7,0-2.5.5-3.9,0-.3.4-.4.7-.4s.5.4.3.7c-.4,1.3-.7,2.7-.7,3,.2.3,0,.6-.2.8h-.3.2ZM230.9,149.8h0ZM230.9,149.7h0Z"/>
                <path class="cls-32" d="M234.7,149.5c-1.9,0-4.2-.7-4.3-.7-.3,0-.5-.4-.4-.7s.4-.5.7-.4c0,0,3.1.9,4.8.6,1-.2,1.7-.6,2.6-1,.6-.3,1.2-.6,2-.9,1.2-.4,1.9-.5,2.5-.5s.9,0,1.4-.2c.9-.3,1.9-1.8,2.2-2.3.2-.3.5-.4.8-.2.3,0,.3.5.2.8-.1.2-1.3,2.2-2.8,2.8-.7.2-1.2.3-1.7.3s-1.2,0-2.2.4c-.8.3-1.3.6-1.9.9-.9.4-1.7.9-2.9,1.1-.3,0-.7,0-1,0h0Z"/>
                <path class="cls-34" d="M216.9,128s3.5,11.2,2.5,13.1c-1.1,2-3.9,0-3.9,0,0,0-5.1-1.2-4,5.1,0,0-1.7-1.8-2.4-3.7,0,0,0-7.6,7.8-14.6h0Z"/>
                <path class="cls-32" d="M241.2,131.6c-.1,0-.2,0-.4,0-.2-.2-.3-.6,0-.8.8-.9,3-2.3,5.4-.9.3,0,.3.5.2.8-.2.3-.5.4-.8.2-2.2-1.4-3.9.5-4,.6s-.3.2-.4.2h0Z"/>
                <path class="cls-34" d="M237.4,127.4c.3.8,2.5,1.2,3.5,1s1.8-1.7,3.3-1.7,1.9.7,2.2-.2c.3-.9-2.2-2.1-3.4-1.8s-2.2,2-3.1,1.8c-1.5-.4-2.8,0-2.4.9h-.1Z"/>
                <path class="cls-23" d="M219,151.2c-.2,0-.5-.2-.5-.4-1-3.8-4.7-4.4-4.8-4.4-.3,0-.5-.3-.5-.6s.3-.5.7-.5,4.5.7,5.8,5.2c0,.3,0,.6-.4.7h-.3Z"/>
                <path class="cls-23" d="M215.8,150.5h-.2c-.3,0-.5-.4-.3-.7.2-.7,1.2-1.9,3.2-1.2.3,0,.5.4.3.7,0,.3-.4.4-.7.4-1.3-.5-1.7.4-1.8.5,0,.2-.3.4-.5.4h0Z"/>
                <path class="cls-32" d="M239.2,156.8c-.2,0-.3,0-.5-.2s-.1-.6.1-.8c.2-.1,4.2-3,7.1-2.4.3,0,.5.4.5.7s-.3.5-.7.4c-2.4-.5-6.2,2.2-6.2,2.2,0,0-.2.1-.3.1h0Z"/>
                <path class="cls-13" d="M221.9,142.2c-.9,2,5.4,2.9,6.5.9s-6-2.1-6.5-.9Z"/>
                <path class="cls-13" d="M249,137.2c-1.1,1.3-2.7,2.3-3.1,1.4-.6-1.4,1.2-3.3,2.5-3.9.2.8.4,1.6.5,2.5h.1Z"/>
                <path class="cls-29" d="M244.1,117.7s-14-2.1-25.2,8.3c-10.6,9.9-9.7,16.6-9.7,16.6,0,0-4.3-10.1-4-14.8.3-4.7,4.3-13.5,9.4-16.8s14.8-5.2,21.2-2.7c6.5,2.5,8.3,9.4,8.3,9.4h0Z"/>
                <path class="cls-34" d="M226.3,113.9c-.8.9.3,2.5.9,2.7s9.2-2,10.6-1.8-1.5-2.4-2.2-2.5c-.7-.2-7.6-.4-9.4,1.6h0Z"/>
              </g>
              <g>
                <path class="cls-20" d="M288,167.5c-.7.9-9.5,6.4-9.5,6.4,1.4,1.9,1.2,5.7,1.2,5.7,1.2,1.4,1.2,4.8,1.2,4.8,0,0,.7,4.5-.3,5.9s-14.6,10-18.4,10.4-6.2-1.4-6.2-1.4l-8.7-13.5h0c0-.1,0-.9.7-3.1.9-2.4,5.7-11.3,7.3-15.9,1.5-4.7-1.4-6.6.3-7.3s4.8,2.8,5.4,6.6c.5,3.8-.9,8.1.2,8.5s13.6-5.6,13.6-5.6c0,0,9.4-4.1,11.6-4.3s2.2,2,1.5,2.9h0Z"/>
                <path class="cls-20" d="M259.6,196.6s-44.1,61.2-52.8,66.1c-8.7,4.9-17.8,5.8-22.7,2.7-6.5-4-11.5-27.4-11.5-27.4,4.3-4.3,14-3.7,14-3.7,0,0,9.9-9.5,15-13.2,5.1-3.8,49-38.5,49-38.5l9,14h0Z"/>
                <path class="cls-23" d="M270.9,177.4c-.2,0-.4-.1-.5-.4,0-.3,0-.6.3-.7l7.6-2.9c.3-.1.6,0,.7.3s0,.6-.3.7l-7.6,2.9h-.2Z"/>
                <path class="cls-23" d="M273.9,182.1c-.2,0-.5-.1-.5-.4s0-.6.3-.7l5.9-2c.3-.1.6,0,.7.4,0,.3,0,.6-.3.7l-5.9,2h-.2Z"/>
                <path class="cls-23" d="M275.4,187.1c-.2,0-.4-.1-.5-.4,0-.3,0-.6.3-.7l5.5-2.1c.3-.1.6,0,.7.3,0,.3,0,.6-.3.7l-5.5,2.1h-.2Z"/>
                <path class="cls-23" d="M184.5,240.6h-.2c-.3-.1-.4-.5-.2-.8,0,0,3-5.9,7.3-10.9s14.1-11.4,14.5-11.6c.3-.2.6-.1.8.2s0,.6-.2.8c0,0-10.1,6.5-14.3,11.4s-7.1,10.6-7.1,10.7c0,.2-.3.3-.5.3h-.1Z"/>
              </g>
              <g>
                <g>
                  <path class="cls-20" d="M352.2,152.8c.5-4.9,4.6-10.1,5.4-12.2s1.2-1.6,1.9,1.4c.5,2.1,13.6,7.6,14.6,11.6.4,1.6-10.7,4.5-10.7,4.5l-10.9,1.4-.4-6.6h.1Z"/>
                  <path class="cls-32" d="M352.9,118.3l3.6-1.3,4.8,39.9-3.7-.4c-.7,0-1.2-.5-1.3-1.1l-4.4-35.6c0-.6.3-1.2,1-1.4h0Z"/>
                  <path class="cls-6" d="M354.6,119.2l4.3,35.7c.2,1.4,1.8,2.2,3.3,1.8l9.6-2.9c1.2-.4,1.9-1.4,1.8-2.4l-3.8-32.1c-.1-1-1-1.8-2.2-1.9l-10-.8c-1.7,0-3.1,1.1-2.9,2.5h0Z"/>
                  <path class="cls-32" d="M361.5,121.1c.2,1.5-.7,2.8-1.8,3s-2.3-.9-2.5-2.4.7-2.8,1.8-3,2.3.9,2.5,2.4Z"/>
                </g>
                <path class="cls-20" d="M365.5,167.8s4.8-.8,6.7-2.6c2.3-2,8.3-12.8,9.5-15.3,1-2.1-1.3-4.4-1.3-4.4,0,0,.3-3-.2-4.5s-1.5-2.5-1.5-2.5c0,0,0-3.1-.8-4.4s-2.3-2-2.3-2c0,0-.4-2.4-1.5-2.9-1.1-.6-11.7,2.5-12.8,3.4s-.3,3.3,1.5,3.4,9-.8,9-.8c0,0-11.1,2.4-11.5,3.3s.4,2.3,1,2.3c0,0,0,2.9,1.5,3.2s11.3-.5,11.3-.5c0,0-6.4,1.3-8.3,2.1s-1.2,2.5-.1,2.7l1,.2,6.7.2-.4,4.9-9.4,3.1-7.2-.2-3.3-6.2s-1.7,9.9,0,11.9c.7.9,1.2,1.9,3,3.1,1.8,1.2,9.2,2.3,9.2,2.3h0l.2.2Z"/>
                <path class="cls-23" d="M373,155.2h0c-.3,0-.5-.3-.5-.6s.3-4.4,1.2-5.8c.2-.2.5-.3.7-.2.3,0,.3.5.2.7-.6,1.1-1,4.2-1,5.4s-.2.5-.5.5h-.1Z"/>
                <path class="cls-23" d="M361.4,141.5c-.2,0-.5,0-.5-.4s0-.6.4-.6c1.4-.4,14-3.5,16.2-2.8.3,0,.4.4.3.7,0,.3-.4.4-.7.3-1.4-.5-10.3,1.4-15.5,2.8h-.2,0Z"/>
                <path class="cls-23" d="M365.9,146.3c-.2,0-.5,0-.5-.4s0-.6.4-.6l8.4-2.1c1.2-.2,5.2-.9,6.2.4.2.2.1.6,0,.8-.2.2-.5,0-.8,0-.4-.5-3-.4-5.2,0l-8.3,2.1h-.2Z"/>
                <path class="cls-23" d="M364.7,137c-.2,0-.5,0-.5-.4s0-.6.4-.6l11.5-2.9c.3,0,.6,0,.7.4s0,.6-.4.6l-11.5,2.9h-.2Z"/>
              </g>
            </g>
            <g>
              <path class="cls-31" d="M178.8,195.4s-.2-8.2,1.2-9.7,3-2.2,4.7-3.2c1.8-1,2.2-1.5,3.7-2s2.5-1.8,4.2-2,3.4.6,4.9,1.6,5.3,7.4,5.3,7.4l3,8.6c0,1.5-2.1,1.6-2.7,1.2-2.2-1.3-5.3-7.5-5.3-7.5l-4.3-4.6,3.9,5.8s4,6.8,4.2,8.5c.2,2.5-2.7,2.2-2.7,2.2,0,0-1.7,1.4-2.9.9-2.4-.9-6.9-8.3-6.9-8.3l-3.5-3.7,3.5,5.1s3.6,6.4,3.1,7.4-2,1.1-3.1.5c-1.3-.9-4.5-5.8-4.5-5.8l-4.7-3.5-1.3,1h.2Z"/>
              <path class="cls-14" d="M198.8,202.6c-.2,0-.4-.1-.5-.3-1.1-2.2-4-8.1-4.7-9.1-.9-1.2-4.8-6.4-4.8-6.5-.2-.2-.2-.6.1-.8.2-.2.6-.1.8.1.2.2,4,5.2,4.9,6.5s4.6,9,4.8,9.3,0,.6-.3.8h-.3Z"/>
              <path class="cls-31" d="M195.3,183.1s2.1-6.1,2.7-7.6c.5-1.5,2-1.5,3-.8s1.5,4.9.9,7.6-8.2,4.4-8.2,4.4l1.7-3.5h0Z"/>
            </g>
          </g>
          <g id="tourist_set">
            <g>
              <path class="cls-28" d="M224.7,65.2s-1.4,9-1.8,9.5c-.5.5-3.3,1.9-3.3,1.9l-3.2-10.4,8.4-1h0Z"/>
              <path class="cls-28" d="M263.5,55.6s-5.6,22-6.6,24.8-5.2,6.7-5.2,6.7l-6.1-25.6,17.8-5.9h.1Z"/>
              <path class="cls-21" d="M271.4,54c-4.8,1.6-38.5,11.9-42.3,12.4-3.7.4-16.8.4-17.5-.3-.1,0-.2-.2-.3-.4-.3-.4-.2-.8-.2-.8,0,0,11.7-5.8,26-10.4s36.8-10.7,40.3-10.7,7.7,1.5,7.5,3.2-3.5,3.6-13.6,7h.1Z"/>
              <path class="cls-21" d="M214.6,54.5l2.9,8.8,9.5-4.3s-7.9-5.1-8.7-5.3-3.7.7-3.7.7h0Z"/>
              <path class="cls-28" d="M206.8,23.1s7.3,0,10.9,1.7,42.9,24.8,42.9,24.8l-19,4.9-34.8-31.4h0Z"/>
              <path class="cls-28" d="M201.9,53.6l11.6,10.9,9.1-3.2s-13.3-7.4-15.2-7.8-5.5.1-5.5.1h0Z"/>
              <path class="cls-12" d="M271.4,54c-4.8,1.6-38.5,11.9-42.3,12.4-3.7.4-16.8.4-17.5-.3-.1,0-.2-.2-.3-.4l21.3-7.6s30.8-7.7,39.3-10.9c8.5-3.2,13-.3,13-.3-.2,1.7-3.5,3.6-13.6,7h.1Z"/>
              <g>
                <path class="cls-21" d="M238.5,37.2c-.2.4-.5.8-.8,1-.2,0-.5.2-1,.3-.2,0-.4,0-.6.2-2.6.6-7.2,1.5-7.6.7,0-.2,0-.5.5-.9,1.6-1.5,6.4-4,7-4.2h0c.8-.3,1.8.3,2.3,1.4.2.6.3,1.2.2,1.7h0v-.2Z"/>
                <path class="cls-12" d="M236.6,38.5c-.2,0-.4,0-.6.2-2.6.6-7.2,1.5-7.6.7,0-.2,0-.5.5-.9,0,.2.1.3.3.3.7,0,5.5-1.8,5.5-1.8l1.9,1.6h0Z"/>
                <path class="cls-21" d="M238.5,37.2c-.2.4-.5.8-.8,1-.5.4-1.1.6-1.6.4h-.3c-1-.4-1.3-1.8-.7-3.2.2-.5.6-.9,1-1.2.6-.4,1.3-.6,1.9-.3,1,.4,1.3,1.8.7,3.2,0,0,0,.2-.1.2h0Z"/>
                <path class="cls-12" d="M238.5,37.2c-.2.4-.5.8-.8,1-.5.4-1.1.6-1.6.4h-.3c-1-.4-1.3-1.8-.7-3.2.2-.5.6-.9,1-1.2.6-.4,1.3-.6,1.9-.3,1,.4,1.3,1.8.7,3.2,0,0,0,.2-.1.2h0Z"/>
                <path class="cls-2" d="M238.2,36.8c-.5,1-1.5,1.6-2.2,1.2s-1-1.4-.5-2.5,1.5-1.6,2.2-1.2,1,1.4.5,2.5Z"/>
              </g>
              <g>
                <path class="cls-21" d="M247.3,42.7c-.2.4-.5.8-.8,1-.2,0-.5.2-1,.3-.2,0-.4,0-.6.2-2.6.6-7.2,1.5-7.6.7,0-.2,0-.5.5-.9,1.6-1.5,6.4-4,7-4.2h0c.8-.3,1.8.3,2.3,1.4.2.6.3,1.2.2,1.7h0v-.2Z"/>
                <path class="cls-12" d="M245.5,44c-.2,0-.4,0-.6.2-2.6.6-7.2,1.5-7.6.7,0-.2,0-.5.5-.9,0,.2.1.3.3.3.7,0,5.5-1.8,5.5-1.8l1.9,1.6h0Z"/>
                <path class="cls-21" d="M247.3,42.7c-.2.4-.5.8-.8,1-.5.4-1.1.6-1.6.4h-.3c-1-.4-1.3-1.8-.7-3.2.2-.5.6-.9,1-1.2.6-.4,1.3-.6,1.9-.3,1,.4,1.3,1.8.7,3.2,0,0,0,.2-.1.2h0Z"/>
                <path class="cls-12" d="M247.3,42.7c-.2.4-.5.8-.8,1-.5.4-1.1.6-1.6.4h-.3c-1-.4-1.3-1.8-.7-3.2.2-.5.6-.9,1-1.2.6-.4,1.3-.6,1.9-.3,1,.4,1.3,1.8.7,3.2,0,0,0,.2-.1.2h0Z"/>
                <path class="cls-2" d="M247,42.3c-.5,1-1.5,1.6-2.2,1.2s-1-1.4-.5-2.5,1.5-1.6,2.2-1.2,1,1.4.5,2.5Z"/>
              </g>
              <g>
                <path class="cls-21" d="M261.3,74.4c-.2.4-.5.8-.8,1-.2,0-.5.2-1,.3-.2,0-.4,0-.6,0-2.6.6-7.2,1.5-7.6.7,0-.2,0-.5.5-.9,1.6-1.5,6.4-4,7-4.2h0c.8-.3,1.8.3,2.3,1.4.2.6.3,1.2.2,1.6h0Z"/>
                <path class="cls-12" d="M259.5,75.7c-.2,0-.4,0-.6,0-2.6.6-7.2,1.5-7.6.7,0-.2,0-.5.5-.9,0,.2.1.3.3.3.7,0,5.5-1.8,5.5-1.8l1.9,1.6h0Z"/>
                <path class="cls-21" d="M261.3,74.4c-.2.4-.5.8-.8,1-.5.4-1.1.6-1.6.4,0,0-.2,0-.3,0-1-.4-1.3-1.9-.7-3.2.2-.5.6-.9,1-1.2.6-.4,1.3-.6,1.9-.4,1,.4,1.3,1.9.7,3.2,0,0,0,0-.1.2h-.1Z"/>
                <path class="cls-12" d="M261.3,74.4c-.2.4-.5.8-.8,1-.5.4-1.1.6-1.6.4,0,0-.2,0-.3,0-1-.4-1.3-1.9-.7-3.2.2-.5.6-.9,1-1.2.6-.4,1.3-.6,1.9-.4,1,.4,1.3,1.9.7,3.2,0,0,0,0-.1.2h-.1Z"/>
                <path class="cls-2" d="M261,74c-.5,1-1.5,1.6-2.2,1.2-.8-.4-1-1.4-.5-2.5s1.5-1.6,2.2-1.2c.8.4,1,1.4.5,2.5Z"/>
              </g>
              <g>
                <path class="cls-21" d="M264.9,64.6c-.2.4-.5.8-.8,1-.2,0-.5.2-1,.3-.2,0-.4,0-.6,0-2.6.6-7.2,1.5-7.6.7,0-.2,0-.5.5-.9,1.6-1.5,6.4-4,7-4.2h0c.8-.3,1.8.3,2.3,1.4.2.6.3,1.2.2,1.6h0Z"/>
                <path class="cls-12" d="M263.1,65.9c-.2,0-.4,0-.6,0-2.6.6-7.2,1.5-7.6.7,0-.2,0-.5.5-.9,0,.2.1.3.3.3.7,0,5.5-1.8,5.5-1.8l1.9,1.6h0Z"/>
                <path class="cls-21" d="M264.9,64.6c-.2.4-.5.8-.8,1-.5.4-1.1.6-1.6.4,0,0-.2,0-.3,0-1-.4-1.3-1.9-.7-3.2.2-.5.6-.9,1-1.2.6-.4,1.3-.6,1.9-.4,1,.4,1.3,1.9.7,3.2,0,0,0,0-.1.2h-.1Z"/>
                <path class="cls-12" d="M264.9,64.6c-.2.4-.5.8-.8,1-.5.4-1.1.6-1.6.4,0,0-.2,0-.3,0-1-.4-1.3-1.9-.7-3.2.2-.5.6-.9,1-1.2.6-.4,1.3-.6,1.9-.4,1,.4,1.3,1.9.7,3.2,0,0,0,0-.1.2h-.1Z"/>
                <path class="cls-2" d="M264.6,64.2c-.5,1-1.5,1.6-2.2,1.2-.8-.4-1-1.4-.5-2.5s1.5-1.6,2.2-1.2c.8.4,1,1.4.5,2.5Z"/>
              </g>
            </g>
          </g>
        </g>
      </g>
    </g>
  </g>
</svg>