<?xml version="1.0" encoding="UTF-8"?>
<svg xmlns="http://www.w3.org/2000/svg" version="1.1" viewBox="0 0 303 392">
  <defs>
    <style>
      .cls-1 {
        fill: #5374aa;
      }

      .cls-2 {
        fill: #010101;
      }

      .cls-3 {
        fill: #b76666;
      }

      .cls-4 {
        fill: #758450;
      }

      .cls-5 {
        fill: #854c39;
      }

      .cls-6 {
        fill: #858396;
      }

      .cls-7 {
        fill: #3f2b25;
      }

      .cls-8 {
        fill: #fceae5;
      }

      .cls-9 {
        fill: #fcf3e6;
      }

      .cls-10 {
        fill: #5c443c;
      }

      .cls-11 {
        fill: #a3c0d2;
      }

      .cls-12 {
        fill: #92a56d;
      }

      .cls-13 {
        fill: #eadbda;
      }

      .cls-14 {
        fill: #a2665d;
      }

      .cls-15 {
        fill: #664a59;
      }

      .cls-16, .cls-17 {
        fill: #76423f;
      }

      .cls-17 {
        isolation: isolate;
        opacity: .5;
      }

      .cls-18 {
        fill: #375683;
      }

      .cls-19 {
        fill: #553c31;
      }

      .cls-20 {
        fill: #b6d7e9;
      }

      .cls-21 {
        fill: #adadbd;
      }

      .cls-22 {
        fill: #eab165;
      }

      .cls-23 {
        fill: #fbcb86;
      }

      .cls-24 {
        fill: #dfc6c2;
      }

      .cls-25 {
        fill: #caa9a7;
      }

      .cls-26 {
        fill: #7e5e6e;
      }
    </style>
  </defs>
  <!-- Generator: Adobe Illustrator 28.7.1, SVG Export Plug-In . SVG Version: 1.2.0 Build 142)  -->
  <g>
    <g id="Layer_1">
      <g id="Layer_1-2" data-name="Layer_1">
        <g id="Layer_1-2">
          <g>
            <g>
              <polygon class="cls-26" points="271.4 325.7 274.1 376.8 268.5 376.8 260.5 328.7 271.4 325.7"/>
              <polygon class="cls-26" points="201.7 325.7 199 376.8 204.7 376.8 212.6 328.7 201.7 325.7"/>
              <path class="cls-15" d="M280,317.5l-17.5-.5-8.5,3.1c-5.3-.4-11.3-.5-17.5-.5s-12.2.2-17.5.5l-8.5-3.1-17.5.5s-.4,4.4,2.4,7.8h0c0,3.3,18.5,6,41.2,6s41.2-2.6,41.2-5.9c2.8-3.4,2.4-7.9,2.4-7.9h-.2,0Z"/>
              <ellipse class="cls-26" cx="236.4" cy="317.5" rx="43.6" ry="6.2"/>
            </g>
            <g>
              <path class="cls-4" d="M222.6,241.7c4-2.6-5.9-33.4-8.9-33.8-3-.3-3,2.3-3,2.3,0,0-26.2-28.9-31.8-22s14,24.4,14,24.4c0,0-8.6-3-8.2,2.1.4,4.9,18.8,11,18.8,11,0,0-2,.6-.6,3.3,1.3,2.6,17.7,14.1,19.7,12.8h0Z"/>
              <g>
                <path class="cls-2" d="M230.5,287.8c-11.5,0-23.5-1.5-23.5-4.1s11.9-4.1,23.5-4.1,23.5,1.5,23.5,4.1-11.9,4.1-23.5,4.1ZM230.5,279.9c-13.8,0-23.1,2-23.1,3.8s9.3,3.8,23.1,3.8,23.1-2,23.1-3.8-9.3-3.8-23.1-3.8Z"/>
                <path class="cls-2" d="M217.6,317.1l-.8-.4c-.5-.2-.7-.5-.7-.9s0,0,0-.1v-.4l.3.3c.2.3.4.5.6.8l.5.7h0Z"/>
                <path class="cls-2" d="M243.4,317.1l.5-.7c.2-.3.4-.5.6-.8l.2-.3v.3c.1,0,.1.1.1.1,0,.3-.2.6-.7.9l-.8.4h0Z"/>
                <path class="cls-20" d="M253.8,283.7c0,13-3.6,24.6-9.1,32-.2.3-.4.5-.6.8h0c-1.8,1-7.2,1.7-13.5,1.7s-11.8-.7-13.5-1.7h0c-.2-.3-.4-.5-.6-.8-5.5-7.4-9.1-19-9.1-32,0,2.2,10.4,3.9,23.3,3.9s23.3-1.8,23.3-3.9h-.2,0Z"/>
                <path class="cls-11" d="M253.8,283.7c0,2.2-10.4,3.9-23.3,3.9s-23.3-1.8-23.3-3.9,10.4-3.9,23.3-3.9,23.3,1.8,23.3,3.9Z"/>
              </g>
              <path class="cls-4" d="M236.1,288.3c-.4,0-.7-.3-.7-.6-1.4-21.8,10.6-68.9,17.1-90.7,2.8-9.3,5.4-18.3,7.7-26,3.7-12.4,6.3-21.4,6.7-22.6.1-.4.5-.6.9-.4.4.1.5.5.5.9-.4,1.2-3,10.1-6.7,22.5-2.3,7.7-5,16.7-7.7,26-6.5,21.8-18.4,68.7-17,90.2,0,.4-.3.7-.6.7h-.2Z"/>
              <path class="cls-4" d="M230.5,288.3h-.1c-.4-.1-.6-.5-.5-.8,5-20.9,20.2-34.2,32.2-41.6,13-8.1,24.9-11.3,25-11.3.4-.1.8.1.9.5s-.1.8-.5.9c-.1,0-11.9,3.2-24.6,11.2-11.8,7.3-26.8,20.4-31.6,40.8,0,.3-.4.5-.7.5h0v-.2h0Z"/>
              <path class="cls-4" d="M225.6,289h0c-.4,0-.7-.4-.6-.7,0-.4,1.9-34.3-3.3-61.5-5.2-27.1-15.6-51.4-15.7-51.6-.1-.4,0-.8.4-.9s.8,0,.9.4c.1.2,10.6,24.6,15.8,52,5.2,27.3,3.3,61.5,3.3,61.8s-.3.6-.7.6h0Z"/>
              <path class="cls-4" d="M232.6,288.8h-.1c-.4,0-.6-.4-.6-.8s1.7-12.4-3-30.8-31.9-47.9-32.2-48.2c-.2-.3-.2-.7,0-1s.7-.2,1,0c1.1,1.2,27.7,30.1,32.5,48.8,4.8,18.7,3.1,31.2,3.1,31.3,0,.4-.4.6-.7.6h0Z"/>
              <path class="cls-12" d="M242.4,263.7s1.5-14.1,7.6-18.9,19.2-12.2,20.5-10.9.9,3,.9,3c0,0,1.3-2.6,9.6-4.4,8.3-1.8,21.9-3,21.9.4s-17,8.8-20.5,9.6-14.9,5.2-14.9,5.2c0,0,3-1.8,5.2,1.3s-18.8,10-21.4,11.4c-2.6,1.3-9,3.2-9,3.2h0Z"/>
              <path class="cls-12" d="M278.5,120.2c7.1.3-9.2,43.3-9.2,43.3,0,0,3-5.2,6.1-.9,3,4.4-15.7,34.5-15.7,34.5,0,0,5.2-6.6,6.5,2.6s-14.4,32.4-16.2,35-7.9,4.8-7.9,4.8c0,0-6.5-16.2-6.5-22.7s9.2-48.9,12.7-52.4,6.1-1.8,6.1-1.8c0,0,14.4-42.8,24-42.4h.1Z"/>
              <path class="cls-12" d="M199.4,159.1c7,0,19,33.1,19,33.1,0,0,2.3-5.6,5.2-3.6s3.3,27.5,3.3,27.5c0,0,6.9,3.9,6.9,12.1s-6.9,32.1-8.2,31.8-14.4-43.9-19.4-52.8c-4.9-8.9,2-8.9,2-8.9,0,0-14.4-39.4-8.9-39.4h0v.2h0Z"/>
            </g>
            <g>
              <polygon class="cls-3" points="39.8 353.6 63.5 353.6 59.1 377.5 38.9 377.5 39.8 353.6"/>
              <polygon class="cls-3" points="195.4 353.6 171.7 353.6 176.1 377.5 196.3 377.5 195.4 353.6"/>
              <path class="cls-1" d="M17.3,258.2s-21.1-58.6,99.5-54.5c120.6,4.1,92.7,53.2,92.7,53.2,0,0-20.5,20.5-24.5,52.5H47.3s-4.8-36.8-30-51.1h0Z"/>
              <path class="cls-1" d="M208.3,331.1c-2-8.2-24.5-21.8-24.5-21.8l-56.7-.5v-.2h-11.5c0,.1-11.5,0-11.5,0v.2l-56.7.5s-22.5,13.6-24.6,21.8,2.1,24.5,6.1,26.6c4,2,60.8,3.4,86.1,3.4h1.2c.2,0,0,0,0,0,25.2,0,82-1.4,86-3.4,4.1-2,8.2-18.4,6.1-26.6Z"/>
              <path class="cls-1" d="M22.7,331.1s-7.5-40.2-18.4-53.9.7-18.4,12.9-19.1c12.3-.7,30,31.4,30,51.1,0,0-23.2,14.3-24.6,21.8h.1Z"/>
              <path class="cls-1" d="M208.3,331.1s7.5-40.2,18.4-53.9-.7-18.4-13-19.1-30,31.4-30,51.1c0,0,23.2,14.3,24.5,21.8h.1Z"/>
              <path class="cls-18" d="M185,310.1H47.3c-.4,0-.7-.3-.7-.6s-1.2-9.3-5.5-20c-3.9-9.9-11.3-23.2-24.1-30.5-.3-.2-.5-.6-.3-1s.6-.5,1-.3c13.2,7.5,20.8,21.1,24.8,31.3,3.7,9.3,5.1,17.5,5.5,19.8h136.5c4.2-31.5,24.5-52.1,24.6-52.3s.7-.3,1,0,.3.7,0,1-20.3,20.6-24.3,52.1c0,.4-.4.6-.7.6h-.1Z"/>
              <path class="cls-18" d="M28.9,358.5c-.2,0-.3,0-.5-.2-4.8-4-8-17.8-6.4-27.2,1.6-9.5,23.9-21.8,24.9-22.3.4-.2.8,0,1,.3.2.4,0,.8-.3,1-.2.1-22.7,12.5-24.2,21.3-1.5,8.9,1.5,22.2,5.9,25.9.3.2.3.7,0,1-.2.2-.3.2-.6.2h.2,0Z"/>
              <path class="cls-18" d="M202.3,358.5c-.2,0-.4,0-.5-.2-.2-.3-.2-.8,0-1,4.4-3.7,7.4-17,5.9-25.9s-24-21.2-24.2-21.3c-.4-.2-.5-.6-.3-1s.6-.5,1-.3c1,.5,23.3,12.8,24.9,22.3,1.6,9.5-1.6,23.2-6.4,27.2-.1.1-.3.2-.5.2h.1Z"/>
              <path class="cls-18" d="M31.7,320.4c-.3,0-.6-.2-.7-.5,0-.2-7.2-25.7-13.3-42.5-2.2-6.1-5.2-10.1-9.1-11.9-3.8-1.8-7-.6-7.1-.6-.4.1-.8,0-.9-.4s0-.8.4-.9c.2,0,3.8-1.4,8.1.6,4.2,1.9,7.5,6.2,9.8,12.8,6.1,16.9,13.2,42.4,13.3,42.6,0,.4,0,.8-.5.9h-.2.2Z"/>
              <path class="cls-18" d="M198.5,320.4h-.2c-.4-.1-.6-.5-.5-.9,0-.2,7.2-25.8,13.3-42.6,2.4-6.5,5.7-10.8,9.9-12.8,4.3-2,8-.7,8.1-.6.4.1.5.5.4.9s-.5.5-.9.4c0,0-3.3-1.1-7,.6-3.8,1.8-6.9,5.8-9.1,11.9-6,16.8-13.2,42.3-13.3,42.5-.1.3-.4.5-.7.5h0Z"/>
              <path class="cls-18" d="M116.8,340c-55.8,0-93.8-8.1-94.2-8.2-.4,0-.6-.5-.6-.9s.5-.6.8-.5,38.3,8.1,93.9,8.1,91.1-8,91.5-8.1c.4-.1.8.1.9.5.1.4-.1.8-.5.9-.4,0-36,8.2-91.8,8.2h0Z"/>
            </g>
            <g>
              <rect class="cls-5" x="7.5" y="55.5" width="91.8" height="126.8"/>
              <rect class="cls-13" x="21.7" y="71.3" width="63.3" height="95.3"/>
            </g>
            <g>
              <path class="cls-9" d="M139.5,71.4c-1,5,18.2,9,18.8,2.2s-17.7-7.9-18.8-2.2Z"/>
              <path class="cls-9" d="M144.6,90.3c-2.1,3.6,11.4,2.9,9.7,0-1.6-2.8-8.6-2-9.7,0Z"/>
              <path class="cls-9" d="M161.7,29s-19.4-6.5-22,11.8c-2.6,18.4,31.8,16.1,31.8,16.1,0,0,.6,8.2,17.7,8.8,17,.7,22.6-5.6,22.6-5.6,0,0,30.5,9.2,39-2.6,8.5-11.8-8.5-26.5-21.6-27.5,0,0-6.5-17.4-23.9-7.9,0,0-10.1-9.5-24.9-6.5-14.8,3-18.7,13.5-18.7,13.5h0Z"/>
            </g>
            <g>
              <rect class="cls-5" x="177.2" y="79.7" width="44.4" height="61.3"/>
              <rect class="cls-13" x="184.1" y="87.3" width="30.6" height="46.1"/>
            </g>
            <g>
              <path class="cls-22" d="M56.4,250.8s4,7.2,36.9,11.2,60.2-.8,74.7-8.8-1.6,41.8-1.6,41.8c0,0-24.9,12-29.7,13.6s-31.3,6.4-31.3,6.4l-38.6-27.3-10.4-37h0Z"/>
              <path class="cls-23" d="M85.6,320.8s14.8-6.7,28.4-16,76.7-89.2,97.8-61.6c21,27.5-16.1,47.9-33.9,63.1s-42,25.4-60.8,31.5-30.6,3.5-30.6,3.5l-1-20.5h.1Z"/>
              <g>
                <g>
                  <path class="cls-19" d="M49.1,318.6s-7.6.9-9,2.8c-3.3,4.6-3.3,11.4,1.4,18.4,2.9,4.3,8,6.4,8,6.4l8.4.4-8.8-28h0Z"/>
                  <path class="cls-5" d="M84.5,322.4s5.5-4.4,7.3.5,3.6,14.6,2.7,16.9c-.9,2.2-9,3.5-9,3.5,0,0-13.2,4.1-24.3,4.1s-16.4-10.6-17.3-19.1c-.9-8.4,5.3-10.6,10.2-9.8,4.9.9,27.1,5.3,30.4,4h0Z"/>
                  <path class="cls-19" d="M85.9,342.5s-.3,0-.4-.1c-.3-.2-.4-.6,0-1,5.2-7.1-1.4-18.5-1.5-18.6-.2-.3,0-.8.2-1s.8,0,.9.2c.3.5,7.2,12.4,1.4,20.2,0,.2-.4.3-.6.3h0Z"/>
                  <path class="cls-19" d="M72,332.2c-3.5,0-6.9-.3-9.6-1.3-.4-.1-.6-.5-.4-.9s.5-.5.9-.4c7.9,2.9,24.1-.3,24.2-.4.4,0,.8.2.8.5s-.2.8-.6.8c-.4.1-8,1.6-15.4,1.6h0Z"/>
                  <path class="cls-19" d="M52.8,345.4h-.3c-.3-.2-.5-.6-.3-.9,3.9-7.3,5.2-14,3.7-19.2-1.1-4-3.4-5.8-3.4-5.8-.3-.2-.4-.7,0-1,.2-.3.7-.4,1-.1,0,0,2.6,2.1,3.9,6.4,1.1,4,1.4,10.7-3.8,20.4,0,.2-.4.4-.6.4h0v-.2h-.2Z"/>
                </g>
                <path class="cls-19" d="M81.9,335.3c0,.6.6,1.2,1.2,1.2s1.2-.5,1.2-1.2-.6-1.2-1.2-1.2-1.2.5-1.2,1.2Z"/>
                <circle class="cls-19" cx="76.3" cy="335.9" r="1.2"/>
                <circle class="cls-19" cx="69.5" cy="335.7" r="1.2"/>
                <circle class="cls-19" cx="81.1" cy="326.5" r="1.2"/>
                <circle class="cls-19" cx="75.6" cy="327.1" r="1.2"/>
                <path class="cls-19" d="M68.5,327.1c0,.6.6,1.2,1.2,1.2s1.2-.5,1.2-1.2-.6-1.2-1.2-1.2-1.2.5-1.2,1.2Z"/>
                <path class="cls-25" d="M83.2,336h0c-.4,0-.6-.4-.6-.8.9-4.6-1.9-8.1-1.9-8.2-.2-.3-.2-.7,0-1,.3-.2.7-.2,1,.1,0,.2,3.2,4.1,2.2,9.3,0,.3-.4.5-.7.5h0Z"/>
                <path class="cls-25" d="M76.3,336.6h-.2c-.4-.1-.5-.5-.4-.9,1.7-4.4-.6-8.1-.6-8.1-.2-.3,0-.8.2-1s.8-.1.9.2c0,.2,2.7,4.3.8,9.4,0,.3-.4.5-.6.5h-.1Z"/>
                <path class="cls-25" d="M69.5,336.8c-.2,0-.4,0-.5-.2-.3-.3-.3-.7,0-1,2.4-2.5,0-8.2,0-8.3,0-.4,0-.8.4-.9s.8,0,.9.4c0,.3,2.7,6.6-.4,9.8,0,.1-.3.2-.5.2h0Z"/>
              </g>
              <path class="cls-23" d="M144.2,320.8s-14.8-6.7-28.4-16-76.8-89.2-97.8-61.6c-21.1,27.5,16.1,47.9,33.9,63.1s42,25.4,60.8,31.5,30.6,3.5,30.6,3.5l1-20.5h-.1Z"/>
              <path class="cls-22" d="M136.2,342.8c-5.4,0-13.6-.8-23.9-4.1-17.8-5.8-42.8-16-61.1-31.7-.4-.4-.5-1,0-1.4s1-.5,1.4-.1c18,15.5,42.8,25.5,60.4,31.3,15.7,5.1,26.5,4,29.3,3.6l.9-19c-2.9-1.4-16-7.6-27.9-15.9-.4-.3-.6-.9-.2-1.4.3-.5.9-.6,1.4-.2,13.4,9.2,28.1,15.9,28.3,16l.6.3-1.1,21.9-.8.2c-.2,0-2.8.6-7.2.6h-.1Z"/>
              <g>
                <g>
                  <path class="cls-19" d="M179.7,317.2s7.6.9,9,2.8c3.3,4.6,3.3,11.4-1.4,18.4-2.9,4.3-8,6.4-8,6.4l-8.5.4,8.8-28h0Z"/>
                  <path class="cls-5" d="M144.3,320.9s-5.5-4.4-7.3.5-3.6,14.6-2.7,16.9c.9,2.2,9,3.5,9,3.5,0,0,13.2,4.1,24.3,4.1s16.4-10.6,17.3-19.1c.9-8.4-5.3-10.6-10.2-9.8-4.9.9-27.1,5.3-30.4,4h0Z"/>
                  <path class="cls-19" d="M142.9,341c-.2,0-.4-.1-.6-.3-5.8-7.8,1.1-19.7,1.4-20.2.2-.3.6-.4.9-.2.3.2.4.6.2,1,0,.1-6.7,11.5-1.5,18.6.2.3.1.8-.1,1s-.3.1-.4.1h.1Z"/>
                  <path class="cls-19" d="M156.9,330.8c-7.4,0-14.9-1.5-15.4-1.6-.4,0-.6-.5-.6-.8s.4-.6.8-.5c.1,0,16.3,3.2,24.2.4.4-.1.8,0,.9.4.1.4,0,.8-.4.9-2.6,1-6.1,1.3-9.6,1.3h.1Z"/>
                  <path class="cls-19" d="M176,344c-.2,0-.5-.1-.6-.4-5.2-9.7-4.9-16.4-3.8-20.4,1.3-4.4,3.8-6.4,3.9-6.4.3-.2.7-.2,1,.1.2.3.2.7-.1,1,0,0-2.3,1.9-3.5,5.8-1.5,5.3-.2,12,3.7,19.2.2.3,0,.8-.3.9h-.3v.2h0Z"/>
                </g>
                <circle class="cls-19" cx="145.7" cy="333.8" r="1.2"/>
                <path class="cls-19" d="M153.7,334.4c0,.6-.6,1.2-1.2,1.2s-1.2-.5-1.2-1.2.6-1.2,1.2-1.2,1.2.5,1.2,1.2Z"/>
                <path class="cls-19" d="M160.6,334.3c0,.6-.5,1.2-1.2,1.2s-1.2-.5-1.2-1.2.6-1.2,1.2-1.2,1.2.5,1.2,1.2Z"/>
                <circle class="cls-19" cx="147.7" cy="325.1" r="1.2"/>
                <path class="cls-19" d="M154.5,325.7c0,.6-.6,1.2-1.2,1.2s-1.2-.5-1.2-1.2.6-1.2,1.2-1.2,1.2.5,1.2,1.2Z"/>
                <circle class="cls-19" cx="159.1" cy="325.7" r="1.2"/>
                <path class="cls-25" d="M145.7,334.5c-.3,0-.6-.2-.7-.5-1-5.2,2.1-9.1,2.2-9.3.2-.3.7-.4,1-.1s.4.7.1,1c0,0-2.8,3.6-1.9,8.2,0,.4-.2.8-.6.8h-.2,0Z"/>
                <path class="cls-25" d="M152.5,335.1c-.3,0-.6-.2-.6-.5-1.9-5.1.7-9.2.8-9.4.2-.3.6-.4.9-.2.3.2.4.6.2,1,0,0-2.3,3.7-.7,8.1.1.4,0,.8-.4.9h-.2Z"/>
                <path class="cls-25" d="M159.3,335.4c-.2,0-.4,0-.5-.2-3.1-3.2-.5-9.5-.4-9.8.1-.4.6-.5.9-.4.4.1.5.5.4.9,0,0-2.4,5.8,0,8.3.3.3.2.7,0,1s-.3.2-.5.2h.1Z"/>
              </g>
            </g>
            <g>
              <path class="cls-24" d="M93.2,150s-27.5,10.5-34.8,17.7-9.2,13.1-11.8,27.5-1.3,64.9,2.6,74.1,106.2,9.8,106.2,9.8l11.1-.6s17,9.2,26.2-2c9.2-11.1,1.3-43.9-2.6-64.2-3.9-20.3-11.1-45.9-21-51.1s-38.2-12.9-38.2-12.9l-37.8,1.8h.1Z"/>
              <path class="cls-25" d="M98.2,142.2s-3.3,1-4.1,2.7-3.9,9.8-3.9,9.8c0,0-.4,4.4,2.9,8.8,4.1,5.6,13.6,5.7,17.7,6.4l6.1-7.6,5.2,7.2s8.5-2,12-5.2,4.4-9.6,4.4-9.6c0,0-3.5-10.3-5-11.4s-3.3-1.8-3.3-1.8l.9,6.8s-3.3,9.6-14.2,9.2c-10.9-.4-18.8-9.6-18.8-9.6l.2-5.6h0Z"/>
              <path class="cls-24" d="M94.1,168s-2.3,0-3.9,3.6-3.9,10.8-3.9,10.8l-15.1,25.6s-14.1,23-16.4,27.5c-2.3,4.6-9.5,22-5.6,33.8,2.9,8.5,11.1,11.5,18.7,10.5s14.8-7.2,19.7-14.8,20.7-70.9,20.7-70.9c0,0,1.1,0,2.2-1.6,1.6-2.5,4-11.2,3.8-12.7-.2-1.4-1.4-2.3-1.4-2.3l-18.8-9.6h0Z"/>
              <path class="cls-25" d="M68,280.5l-.2-1.4c6.7-.9,13.9-6.3,19.2-14.5,4.8-7.4,20.5-70,20.6-70.6v-.5h.6s.8,0,1.6-1.3c1.5-2.4,3.9-10.9,3.7-12.2,0-1-.9-1.7-1.1-1.9l-18.5-9.4c-.4,0-2,.5-3.2,3.2-1.6,3.5-3.9,10.7-3.9,10.8h0c0,.1-15.1,25.7-15.1,25.7,0,.2-14.1,23-16.4,27.5l-1.2-.6c2.3-4.6,15.9-26.6,16.4-27.6l15-25.5c.2-.8,2.4-7.4,3.9-10.8,1.8-4,4.4-4,4.6-4h.3l18.8,9.7h0s1.4,1.1,1.6,2.8-2.2,10.6-3.9,13.1c-.8,1.2-1.6,1.6-2.2,1.8-1.5,6-15.9,63.3-20.7,70.6-5.6,8.5-13.1,14.1-20.1,15h.2Z"/>
              <path class="cls-25" d="M108.3,194.9c-10,0-15.6-3.3-18.6-6.1-3.2-3.1-4.1-6.1-4.1-6.2l1.4-.4c0,.4,3.2,11.2,21.4,11.3v1.4h-.1Z"/>
              <path class="cls-25" d="M115.5,234.5h-1.4c0-.1,0-11.3.6-21s-.6-40.9-.6-41.2h1.4c0,.3,1.3,31.6.6,41.3-.6,9.7-.6,20.8-.6,20.9Z"/>
              <path class="cls-25" d="M153.7,235h-1.4c0-.4,2.6-23.3,2.2-29.8-.4-6.6,2.9-18.9,3.1-19.4l1.3.4c0,.1-3.4,12.6-3,19,.4,6.6-2.1,28.9-2.2,29.8h0Z"/>
              <path class="cls-25" d="M155.9,205.4l-1.4-.3c.9-4.1,8.2-11.8,8.5-12.1l1,.9s-7.3,7.8-8.1,11.5h0Z"/>
              <path class="cls-25" d="M74.6,203.1h-1.4c0-8-4.6-15.7-4.7-15.8l1.2-.7c.2.3,4.9,8.1,4.9,16.5h0Z"/>
              <path class="cls-8" d="M119,178c3.1-.8,2.4,6.3.2,6-2.1-.2-2.4-5.5-.2-6Z"/>
              <path class="cls-8" d="M119.7,196.7c3.1-.8,2.4,6.3.2,6-2.1-.3-2.4-5.5-.2-6Z"/>
              <path class="cls-8" d="M120.3,218c3.1-.8,2.4,6.3.2,6s-2.4-5.5-.2-6Z"/>
              <path class="cls-25" d="M139.8,230.4h-.2c-1.8-1-10.9-5.7-11.3-9-.4-3.1-.4-14.5-.4-14.9h1.4c0,.1,0,11.8.4,14.8.3,1.9,6.4,5.7,10.3,7.7,5-1.4,10.4-3.7,10.6-5,.4-2.2,1.1-16.4,1.3-19.7h-10.6c-5.3,0-10.9-1.7-11.1-1.8l.4-1.3s5.6,1.7,10.7,1.7h12.1v.7c0,.7-.9,18-1.4,20.6-.5,2.8-9.2,5.5-11.9,6.2h-.3Z"/>
              <path class="cls-25" d="M180.2,250.2s-8.6-5.1-18.7-2.5l-.3-1.4c10.6-2.6,19.4,2.5,19.8,2.7l-.7,1.2h-.1Z"/>
            </g>
            <path class="cls-16" d="M99,130.1l-1.4,20.6s3.3,7.6,17.6,8.5c13.4.8,16-8.1,16-8.1l-2.1-20.3-30-.6h0Z"/>
            <g>
              <path class="cls-10" d="M89.4,110.8l-.9-7.4s-3.1-3.1-2.9-5.8,3.5-5.8,3.8-7-1.3-3.9,0-7.6,7.4-7.6,7.4-7.6c0,0,1.2-5.7,5.8-7.6s12.7,2.5,12.7,2.5c0,0,6.7-1.4,9.6,0s3.9,4.1,3.9,4.1c0,0,6.1-.2,7.9,3.9,1.8,4.1.9,8,.9,8,0,0,.4,3.5,2.1,9.8s-.7,8.3-.7,8.3l-1.2,7-14.6,8.4-33.9-9h0Z"/>
              <path class="cls-14" d="M99.7,89.3s9.5,2.9,13.4,3.3c3.9.3,9.5-.3,11.5-1,2-.6,6.2-.3,6.2-.3,0,0,2.9,8.9,3.3,12.4.3,3.6.6,8.5.6,8.5,0,0,4.5-1.9,5.4,0,1.4,2.6-1.5,9.9-2.2,11.2-.6,1.3-3.3,1-3.3,1,0,0-1.6,8.2-2.3,11.5-.6,3.3-8.9,11.1-15.7,11.1s-16.1-6.2-18-9.2c-2-2.9-3.9-11.5-3.9-11.5,0,0-3.6.3-4.6-1s-3.6-11.5-2.3-13.4,6.6-.3,6.6-.3c0,0,0-7.9,1.3-12.4,1.3-4.6,3.9-9.8,3.9-9.8h0Z"/>
              <path class="cls-16" d="M94.4,125.3c-.3,0-.6-.2-.7-.5,0,0,0-.6-.9-2.9-.7-2.1-2.5-3.3-2.5-3.3-.3-.2-.4-.6-.2-.9s.6-.4.9-.2c0,0,2.2,1.4,3.1,4,.8,2.4.9,3,.9,3.1,0,.4,0,.8-.5.9h-.2v-.2h0Z"/>
              <path class="cls-16" d="M91.2,122.9c-.2,0-.4,0-.6-.2-.2-.3-.2-.7,0-1,.6-.5,2-1.1,3.2-.2.3.2.4.7,0,1s-.7.4-1,0c-.7-.5-1.5,0-1.6,0h-.4.2l.2.4Z"/>
              <path class="cls-16" d="M134.9,123.2h-.2c-.4,0-.6-.5-.5-.9,0,0,.5-2,1-3.5.6-1.6,2.4-3,2.5-3,.3-.2.8,0,1,.2.2.3.1.8-.2,1h0c-.4.3-1.6,1.4-2,2.4-.5,1.4-1,3.4-1,3.4,0,.3-.4.5-.7.5h0Z"/>
              <path class="cls-16" d="M137.7,121.3c-.2,0-.4,0-.6-.3,0,0-.4-.6-1.1-.4-.4,0-.8,0-.9-.4-.1-.4.1-.8.4-.9,1.3-.4,2.3.4,2.6.9.2.3.1.8-.2,1h-.4.2Z"/>
              <path class="cls-16" d="M110.6,127.9h-.9c-2.1-.2-3.4-1.4-3.5-1.5-.3-.3-.3-.7,0-1s.7-.3,1,0c0,0,1,1,2.6,1.1h3.8c1.1,0,2.4-.2,3.5-.2h7c.4,0,.7.2.8.6s-.2.7-.6.8h-7.3c-1.1,0-2.2,0-3.4.2h-3.1,0Z"/>
              <path class="cls-16" d="M106,127.8h0c-.4,0-.6-.4-.6-.8.2-1.2,1.6-2.5,1.8-2.8s.7-.2,1,0c.2.3.2.7,0,1-.5.5-1.3,1.4-1.4,1.9,0,.4-.4.6-.7.6h-.1Z"/>
              <path class="cls-17" d="M97.8,118.4c-2.4,2.1,4.6,6.4,6.1,4.5,1.4-1.9-4.8-5.7-6.1-4.5Z"/>
              <path class="cls-16" d="M119.1,121.6c-.2,0-.4,0-.5-.2-.3-.3-.3-.7,0-1,.6-.6.9-2.4.7-2.9-.3-.8-1.6-6.9-1.6-8.3s.3-4.7.3-4.9c0-.4.4-.7.8-.6.4,0,.7.4.6.8,0,0-.3,3.5-.3,4.8s1.3,7.1,1.6,7.8c.4,1,0,3.4-1,4.4s-.3.2-.5.2h0Z"/>
              <path class="cls-16" d="M114.3,121.6h0c-1.1,0-1.7-.6-2-1-.8-1.1-.4-2.6-.4-2.8,0-.4.5-.6.9-.5s.6.5.5.9c0,.3-.2,1.1.2,1.6.2.2.5.4.9.4s.7.4.6.7c0,.4-.3.6-.7.6h0Z"/>
              <path class="cls-10" d="M101,104.4s1.5-3.3,3.3-3.9,7.9.8,7.9.8c0,0-.8,2.2-1.3,2.3s-5-.3-6.4-.2c-1.3,0-3.5,1.1-3.5,1.1h0Z"/>
              <path class="cls-10" d="M120.1,101.9s1,1.3,1.5,1.5c.6.2,4.4-.3,5.7,0,1.3.2,3.2,1.5,3.2,1.5,0,0-.8-3.3-2.3-4.1-1.5-.8-8.1,1.1-8.1,1.1h0Z"/>
              <path class="cls-10" d="M106.8,106.1c2.4-.4,3,5.4.5,5.6-2,0-3.4-5.1-.5-5.6Z"/>
              <path class="cls-10" d="M124.4,105.9c2.4-.4,3,5.4.5,5.6-2,0-3.4-5.1-.5-5.6Z"/>
              <path class="cls-7" d="M115.6,86.1c-.7,0-1.4-.2-2-.6-.3-.2-.4-.7-.2-.9.2-.3.6-.4.9-.2.6.4,1.4.5,2.1.2.4-.2.7-.4,1.1-.7.6-.4,1.3-.9,2.1-1.1,1.2-.2,2.3.6,3.1,1,.3.2.4.6.2.9s-.6.4-.9.2c-.8-.5-1.5-.9-2.1-.8-.5,0-1,.4-1.5.8-.4.3-.9.6-1.4.8-.4.2-.9.3-1.4.3h0Z"/>
              <path class="cls-7" d="M135.9,90.6h-.2c-.4,0-.5-.6-.4-.9.4-1.1.5-2.3.2-3.4-.1-.3-.2-.5-.3-.6h-1c-1.2,0-2.5-.6-3.6-1.6-.9-.9-1.6-1.9-2.2-2.9-.2-.3-.1-.8.2-.9.3-.2.8,0,.9.2.6.9,1.2,1.9,2,2.7.8.8,1.8,1.2,2.6,1.2h.3c.4,0,1,0,1.5.3.6.3.8.9.9,1.3.4,1.4.4,3-.2,4.3-.1.3-.4.4-.6.4h0Z"/>
              <path class="cls-7" d="M94.8,89.6c-.2,0-.4,0-.5-.2-.9-1.1-.6-2.7.2-3.8.4-.6,1-1.1,1.5-1.5.3-.2.6-.5.8-.7.9-.9,1.6-2,1.8-3.2,0-.4.4-.6.8-.5s.6.4.5.8c-.3,1.5-1.1,2.9-2.2,3.9-.3.3-.6.6-.9.8-.5.4-.9.8-1.3,1.2-.4.6-.7,1.5-.2,2,.2.3.2.7,0,1,0,0-.3.2-.4.2,0,0,0,0-.1,0Z"/>
              <path class="cls-7" d="M93.3,98.7h-.2l-1.6-.6c-.6-.2-1.2-.5-1.7-1.1-.6-.7-.7-1.8,0-2.5.3-.2.7-.2,1,0s.2.7,0,1v.6c.2.3.8.5,1.2.7l1.6.6c.4,0,.5.6.4.9s-.4.4-.6.4h-.2,0Z"/>
              <path class="cls-7" d="M115.2,79c-1.9,0-3.7-.9-5.2-1.8l-.4-.2c-1.1-.7-2.1-1.3-3.3-1.6-1.1-.2-2.5,0-3.1,1-.2.3-.6.4-.9.2s-.4-.6-.2-.9c1-1.6,3-1.9,4.6-1.6,1.4.3,2.6,1,3.7,1.7l.4.2c1.6.9,3.6,2,5.4,1.5.4,0,.8,0,.9.5s0,.8-.5.8-.9.2-1.4.2h0Z"/>
              <path class="cls-7" d="M121.3,80.9c-.3,0-.6-.2-.6-.5-1-3.2-4.8-5.3-8-4.3-.4,0-.8,0-.9-.5s0-.8.5-.8c3.9-1.2,8.6,1.3,9.8,5.2,0,.4,0,.8-.4.9,0,0-.4,0-.4,0Z"/>
              <path class="cls-17" d="M132.7,118.3c1.9,1.6-4.6,6.1-6.1,4.8s4.4-6.4,6.1-4.8Z"/>
            </g>
            <g>
              <path class="cls-14" d="M94,169.8s3.1-22.3,3.9-23.8,5.7-3.5,5.7-3.5c0,0,10.3-6.1,11.6-6.4s3.5,2.6,3.5,2.6c0,0,3.1.2,4.1,1.5,1.1,1.3,1.3,4.4,1.3,4.4,0,0,1.5-.2,2.6,1.5s.2,5.2.2,5.2c0,0,2.2.4,2.9,2.6s-2,9.2-2,9.2l-7.2,2.4s-1.1-1.5-.9-2.6,2-2.6,2-2.6l-4.1-.6s1.5,2.6.9,7-3.7,8.3-4.8,9.8-3.5,2.4-3.5,2.4c0,0-14.2-1.3-16.2-9.2h0Z"/>
              <path class="cls-16" d="M110.2,179.7c-.3,0-.6-.2-.6-.4,0-.4,0-.8.4-.9,0,0,2.2-.8,3.2-2.1l.3-.4c1.2-1.7,3.8-5.3,4.4-9.1.6-4.1-.8-6.5-.8-6.6l-.7-1.2,7,1.1-1.1,1c-.6.6-1.6,1.6-1.8,2.2,0,.4.2,1.1.5,1.6l6.4-2.1c1-2.7,2.2-7.1,1.9-8.4-.5-1.8-2.3-2.1-2.3-2.1h-.7c0-.1.2-.8.2-.8.2-.9.6-3.5,0-4.7-.8-1.3-1.9-1.2-1.9-1.2h-.7c0,.1,0-.6,0-.6,0-.8-.4-3.1-1.1-4-.8-.9-2.9-1.2-3.7-1.3h-.3l-.2-.3c-.9-1.2-2.3-2.4-2.8-2.4-.8,0-6.4,3.3-11.4,6.2h0c-1.8.8-4.8,2.3-5.4,3.2-.2.3-.6.4-.9.2s-.4-.6-.2-.9c.9-1.6,5-3.4,6-3.8,1.8-1.1,10.4-6.2,11.8-6.4s3.2,1.7,4,2.6c.9,0,3.2.5,4.3,1.8.9,1.1,1.3,3.1,1.4,4.1.7.1,1.8.5,2.6,1.8.9,1.5.6,4,.4,5.1.8.3,2.2,1.1,2.7,2.9.7,2.4-1.7,8.9-2,9.6v.3c-.1,0-8.1,2.7-8.1,2.7l-.3-.4c0-.1-.5-.7-.8-1.4,0,.7,0,1.4-.2,2.2-.6,4.2-3.4,7.9-4.6,9.8l-.3.4c-1.2,1.7-3.7,2.6-3.8,2.6h-.8ZM118.7,160.7c.2.5.4,1.2.5,2,.2-.6.7-1.2,1.1-1.7l-1.6-.2h0Z"/>
              <path class="cls-16" d="M109.1,143.7c-.3,0-.5-.1-.6-.4,0-.4,0-.8.4-.9l9.6-4.1c.4,0,.8,0,.9.4s0,.8-.4.9l-9.6,4.1h-.3Z"/>
              <path class="cls-16" d="M113.7,146.9c-.4,0-.6-.2-.7-.6,0-.4.2-.7.6-.8l10.5-1.5c.4,0,.7.2.8.6,0,.4-.2.7-.6.8l-10.5,1.5h-.1Z"/>
              <path class="cls-16" d="M127,152.2h0l-9.8-.6c-.4,0-.7-.4-.6-.7,0-.4.4-.7.7-.6l9.8.6c.4,0,.7.4.6.7,0,.4-.3.6-.7.6h0Z"/>
            </g>
            <g>
              <path class="cls-6" d="M156.9,293.6h-80.3c-2,0-3.6-1.5-3.8-3.5l-3.9-54.7c0-2.2,1.6-4.1,3.8-4.1h88.2c2.2,0,4,1.9,3.8,4.1l-4,54.7c-.1,2-1.8,3.5-3.8,3.5h0Z"/>
              <ellipse class="cls-21" cx="116.8" cy="263.4" rx="5.6" ry="4.6"/>
            </g>
            <g>
              <path class="cls-14" d="M169.6,274.7c-3.1,1.2-12.7,0-12.7,0l-12.7-3.9s-1.1-2,0-4.4c0,0-2.9-1.5-3.5-2.6s-.2-4.4.6-4.6c0,0-2.4-.4-2.9-2.2-.4-1.8.9-3.9,2-3.9h1.1s-.4-2,.9-3.5,6.4-.9,8.1-1.1c1.8-.2,13.1-.6,13.1-.6l.3-5.2s8.4,1.2,10.4,4.5,3,14.2,1.8,18.6-3,7.6-6.5,9h0Z"/>
              <path class="cls-16" d="M153.7,255l-12.1-1.2c-.4,0-.6-.4-.6-.8s.4-.6.8-.6l12.1,1.2h10.3c.4-.1.7.1.7.5s-.3.7-.7.7h-10.4v.2h-.1Z"/>
              <path class="cls-16" d="M163.8,262h0l-10.8-.9-11.6-1.2c-.4,0-.6-.4-.6-.8s.4-.6.8-.6l11.6,1.2,10.8.9c.4,0,.7.4.6.8,0,.4-.3.6-.7.6h-.1Z"/>
              <path class="cls-16" d="M163.4,269h0l-9.6-.5-9.6-1.5c-.4,0-.6-.4-.6-.8s.4-.6.8-.6l9.6,1.5,9.4.4c.4,0,.7.4.6.7,0,.4-.3.6-.7.6h0v.2h.1Z"/>
            </g>
          </g>
        </g>
      </g>
    </g>
  </g>
</svg>