<?xml version="1.0" encoding="UTF-8"?>
<svg xmlns="http://www.w3.org/2000/svg" version="1.1" viewBox="0 0 521.9 392">
  <defs>
    <style>
      .cls-1 {
        fill: #70463b;
      }

      .cls-2 {
        fill: #713c2e;
      }

      .cls-3, .cls-4 {
        fill: #dc7352;
      }

      .cls-5, .cls-6 {
        fill: #ac6842;
      }

      .cls-7, .cls-8 {
        fill: #75413f;
      }

      .cls-7, .cls-6, .cls-9, .cls-4, .cls-10 {
        opacity: .5;
      }

      .cls-7, .cls-6, .cls-4, .cls-10 {
        isolation: isolate;
      }

      .cls-11 {
        fill: #6b769f;
      }

      .cls-12 {
        fill: #a3674e;
      }

      .cls-13 {
        fill: #68321f;
      }

      .cls-14 {
        fill: #f7a47d;
      }

      .cls-15 {
        fill: #ddf0ef;
      }

      .cls-16 {
        fill: #fce5e0;
      }

      .cls-17 {
        fill: #9398b3;
      }

      .cls-18 {
        fill: #c18565;
      }

      .cls-19 {
        fill: #f8b153;
      }

      .cls-20 {
        fill: #d4ecec;
      }

      .cls-21 {
        fill: #fff;
      }

      .cls-22 {
        fill: #d9664f;
      }

      .cls-23 {
        fill: #562b21;
      }

      .cls-24 {
        fill: #a64948;
      }

      .cls-25 {
        fill: #faefe3;
      }

      .cls-26 {
        fill: #bb7b64;
      }

      .cls-27 {
        fill: #a0665d;
      }

      .cls-28 {
        fill: #fccba5;
      }

      .cls-29 {
        fill: #b28d79;
      }

      .cls-30 {
        opacity: .3;
      }

      .cls-31 {
        fill: #7f5670;
      }

      .cls-10, .cls-32 {
        fill: #ce8434;
      }

      .cls-33 {
        fill: #d48d61;
      }

      .cls-34 {
        fill: #e5c8c3;
      }

      .cls-35 {
        fill: #995434;
      }

      .cls-36 {
        fill: #42312f;
      }

      .cls-37 {
        fill: #545c77;
      }

      .cls-38 {
        fill: #776b3a;
      }

      .cls-39 {
        fill: #a5664c;
      }
    </style>
  </defs>
  <!-- Generator: Adobe Illustrator 28.7.1, SVG Export Plug-In . SVG Version: 1.2.0 Build 142)  -->
  <g>
    <g id="Layer_1">
      <g>
        <path class="cls-38" d="M43.6,311.8H7.1s-8.1-7.7-5.1-12.1c2.9-4.4,18.3-3.7,18.3-3.7,0,0,1.5-13.2,9.5-15.4,8.1-2.2,17.6-.7,17.6-.7l-3.9,31.9Z"/>
        <path class="cls-38" d="M451.4,206.7s8.8,0,16.2,10.3c7.3,10.3.7,59.4.7,59.4,0,0,13.2-7.3,18.3,2.2,5.1,9.5,0,14,0,14,0,0,6.6,2.2,9.5,7.3s-6.6,12-6.6,12h-38.9s2.2-106.6.7-105.1h0Z"/>
        <g>
          <g>
            <rect class="cls-28" x="43.2" y="179.7" width="408.1" height="132.1"/>
            <g class="cls-9">
              <rect class="cls-39" x="43.2" y="179.7" width="303.9" height="8.8"/>
            </g>
          </g>
          <g>
            <g class="cls-30">
              <rect class="cls-29" x="346.9" y="179.7" width="104.4" height="132.1"/>
            </g>
            <g class="cls-9">
              <rect class="cls-39" x="346.9" y="179.7" width="104.4" height="8.8"/>
            </g>
          </g>
          <g>
            <rect class="cls-18" x="250" y="216.1" width="54.8" height="63.4"/>
            <path class="cls-18" d="M302.5,282h-50.3c-2.8,0-5.2-2.5-5.2-5.6h60.6c0,3.1-2.3,5.6-5.2,5.6h0Z"/>
            <rect class="cls-20" x="253.7" y="218.8" width="47.4" height="57.6"/>
            <path class="cls-15" d="M288.9,218.8c-1.8,5.5-6.5,10.4-12.8,13.4-3.1,1.5-6.6,2.5-9.1,4.5-6,4.7-4.6,12.6-8.8,18.3-1.2,1.6-2.8,3-4.5,4.2v-10.8c1.6-2.5,2.4-5.4,4.1-7.9,3.4-5.4,10.3-8.8,16-13,4-3,5.2-5.7,6.3-8.7h8.9Z"/>
            <path class="cls-15" d="M301.1,218.8v18.1c-.4.4-.8.8-1.2,1.1-2.6,2.2-5.5,4.4-7.2,7.1-4.2,6.6-.7,15.1-5.8,21.4-3.4,4.1-10.1,6.7-14.7,9.9h-18.5v-9.8c5.6-2.1,11.8-3.4,17-6.1,2-1,3.8-2.3,5-3.9,1.7-2.3,1.9-5,2.6-7.6,2.2-7.8,9.5-14,15.2-20.7,2.8-3.3,4.1-6.4,4.9-9.4h2.8,0Z"/>
            <g>
              <path class="cls-18" d="M267.8,278.4c-.2,0-.4-.2-.4-.5v-60.5c0-.3.2-.5.4-.5s.4.2.4.5v60.5c0,.3-.2.5-.4.5Z"/>
              <path class="cls-18" d="M287,278.4c-.2,0-.4-.2-.4-.5v-60.5c0-.3.2-.5.4-.5s.4.2.4.5v60.5c0,.3-.2.5-.4.5Z"/>
            </g>
            <g>
              <path class="cls-18" d="M304.2,258.3h-53.6c-.2,0-.4-.2-.4-.5s.2-.5.4-.5h53.6c.2,0,.4.2.4.5s-.2.5-.4.5Z"/>
              <path class="cls-18" d="M304.2,238.1h-53.6c-.2,0-.4-.2-.4-.5s.2-.5.4-.5h53.6c.2,0,.4.2.4.5s-.2.5-.4.5Z"/>
            </g>
          </g>
          <g>
            <rect class="cls-18" x="163.8" y="216.1" width="54.8" height="63.4"/>
            <path class="cls-18" d="M216.3,282h-50.3c-2.8,0-5.2-2.5-5.2-5.6h60.6c0,3.1-2.3,5.6-5.2,5.6h0Z"/>
            <rect class="cls-20" x="167.4" y="218.8" width="47.4" height="57.6"/>
            <path class="cls-15" d="M202.7,218.8c-1.8,5.5-6.5,10.4-12.8,13.4-3.1,1.5-6.6,2.5-9.1,4.5-6,4.7-4.6,12.6-8.8,18.3-1.2,1.6-2.8,3-4.5,4.2v-10.8c1.6-2.5,2.4-5.4,4.1-7.9,3.4-5.4,10.3-8.8,16-13,4-3,5.2-5.7,6.3-8.7h8.9Z"/>
            <path class="cls-15" d="M214.9,218.8v18.1c-.4.4-.8.8-1.2,1.1-2.6,2.2-5.5,4.4-7.2,7.1-4.2,6.6-.7,15.1-5.8,21.4-3.4,4.1-10.1,6.7-14.7,9.9h-18.5v-9.8c5.6-2.1,11.8-3.4,17-6.1,2-1,3.8-2.3,5-3.9,1.7-2.3,1.9-5,2.6-7.6,2.2-7.8,9.5-14,15.2-20.7,2.8-3.3,4.1-6.4,4.9-9.4h2.8,0Z"/>
            <g>
              <path class="cls-18" d="M181.6,278.4c-.2,0-.4-.2-.4-.5v-60.5c0-.3.2-.5.4-.5s.4.2.4.5v60.5c0,.3-.2.5-.4.5Z"/>
              <path class="cls-18" d="M200.8,278.4c-.2,0-.4-.2-.4-.5v-60.5c0-.3.2-.5.4-.5s.4.2.4.5v60.5c0,.3-.2.5-.4.5Z"/>
            </g>
            <g>
              <path class="cls-18" d="M217.9,258.3h-53.6c-.2,0-.4-.2-.4-.5s.2-.5.4-.5h53.6c.2,0,.4.2.4.5s-.2.5-.4.5Z"/>
              <path class="cls-18" d="M217.9,238.1h-53.6c-.2,0-.4-.2-.4-.5s.2-.5.4-.5h53.6c.2,0,.4.2.4.5s-.2.5-.4.5Z"/>
            </g>
          </g>
          <g>
            <rect class="cls-18" x="77.6" y="216.1" width="54.8" height="63.4"/>
            <path class="cls-18" d="M130.1,282h-50.3c-2.8,0-5.2-2.5-5.2-5.6h60.6c0,3.1-2.3,5.6-5.2,5.6h0Z"/>
            <rect class="cls-20" x="81.2" y="218.8" width="47.4" height="57.6"/>
            <path class="cls-15" d="M116.5,218.8c-1.8,5.5-6.5,10.4-12.8,13.4-3.1,1.5-6.6,2.5-9.1,4.5-6,4.7-4.6,12.6-8.8,18.3-1.2,1.6-2.8,3-4.5,4.2v-10.8c1.6-2.5,2.4-5.4,4.1-7.9,3.4-5.4,10.3-8.8,16-13,4-3,5.2-5.7,6.3-8.7h8.9Z"/>
            <path class="cls-15" d="M128.6,218.8v18.1c-.4.4-.8.8-1.2,1.1-2.6,2.2-5.5,4.4-7.2,7.1-4.2,6.6-.7,15.1-5.8,21.4-3.4,4.1-10.1,6.7-14.7,9.9h-18.5v-9.8c5.6-2.1,11.8-3.4,17-6.1,2-1,3.8-2.3,5-3.9,1.7-2.3,1.9-5,2.6-7.6,2.2-7.8,9.5-14,15.2-20.7,2.8-3.3,4.1-6.4,4.9-9.4h2.8,0Z"/>
            <g>
              <path class="cls-18" d="M95.3,278.4c-.2,0-.4-.2-.4-.5v-60.5c0-.3.2-.5.4-.5s.4.2.4.5v60.5c0,.3-.2.5-.4.5Z"/>
              <path class="cls-18" d="M114.5,278.4c-.2,0-.4-.2-.4-.5v-60.5c0-.3.2-.5.4-.5s.4.2.4.5v60.5c0,.3-.2.5-.4.5Z"/>
            </g>
            <g>
              <path class="cls-18" d="M131.7,258.3h-53.6c-.2,0-.4-.2-.4-.5s.2-.5.4-.5h53.6c.2,0,.4.2.4.5s-.2.5-.4.5Z"/>
              <path class="cls-18" d="M131.7,238.1h-53.6c-.2,0-.4-.2-.4-.5s.2-.5.4-.5h53.6c.2,0,.4.2.4.5s-.2.5-.4.5Z"/>
            </g>
          </g>
          <polygon class="cls-12" points="400.1 102 342.8 180.2 454.7 180.2 400.1 102"/>
          <polygon class="cls-26" points="400.1 102 99.3 102 42 180.2 342.8 180.2 400.1 102"/>
          <path class="cls-12" d="M57.4,178.1c0,0-.2,0-.3-.1-.2-.1-.2-.5,0-.7l52.6-74.7c.2-.2.4-.2.6,0,.2.1.2.5,0,.7l-52.6,74.7c0,.1-.2.2-.3.2Z"/>
          <path class="cls-12" d="M73.5,178.1c0,0-.2,0-.3-.1-.2-.1-.2-.5,0-.7l52.6-74.7c.2-.2.4-.2.6,0s.2.5,0,.7l-52.6,74.7c0,.1-.2.2-.3.2Z"/>
          <path class="cls-12" d="M89.6,178.1c0,0-.2,0-.3-.1-.2-.1-.2-.5,0-.7l52.6-74.7c.2-.2.4-.2.6,0s.2.5,0,.7l-52.6,74.7c0,.1-.2.2-.3.2Z"/>
          <path class="cls-12" d="M105.7,178.1c0,0-.2,0-.3-.1-.2-.1-.2-.5,0-.7l52.6-74.7c.2-.2.4-.2.6,0s.2.5,0,.7l-52.6,74.7c0,.1-.2.2-.3.2Z"/>
          <path class="cls-12" d="M121.8,178.1c0,0-.2,0-.3-.1-.2-.1-.2-.5,0-.7l52.6-74.7c.2-.2.4-.2.6,0s.2.5,0,.7l-52.6,74.7c0,.1-.2.2-.3.2Z"/>
          <path class="cls-12" d="M137.9,178.1c0,0-.2,0-.3-.1-.2-.1-.2-.5,0-.7l52.6-74.7c.2-.2.4-.2.6,0,.2.1.2.5,0,.7l-52.6,74.7c0,.1-.2.2-.3.2Z"/>
          <path class="cls-12" d="M154,178.1c0,0-.2,0-.3-.1-.2-.1-.2-.5,0-.7l52.6-74.7c.2-.2.4-.2.6,0,.2.1.2.5,0,.7l-52.6,74.7c0,.1-.2.2-.3.2Z"/>
          <path class="cls-12" d="M170.1,178.1c0,0-.2,0-.3-.1-.2-.1-.2-.5,0-.7l52.6-74.7c.2-.2.4-.2.6,0,.2.1.2.5,0,.7l-52.6,74.7c0,.1-.2.2-.3.2Z"/>
          <path class="cls-12" d="M186.2,178.1c0,0-.2,0-.3-.1-.2-.1-.2-.5,0-.7l52.6-74.7c.2-.2.4-.2.6,0s.2.5,0,.7l-52.6,74.7c0,.1-.2.2-.3.2Z"/>
          <path class="cls-12" d="M202.3,178.1c0,0-.2,0-.3-.1-.2-.1-.2-.5,0-.7l52.6-74.7c.2-.2.4-.2.6,0s.2.5,0,.7l-52.6,74.7c0,.1-.2.2-.3.2Z"/>
          <path class="cls-12" d="M218.4,178.1c0,0-.2,0-.3-.1-.2-.1-.2-.5,0-.7l52.6-74.7c.2-.2.4-.2.6,0s.2.5,0,.7l-52.6,74.7c0,.1-.2.2-.3.2Z"/>
          <path class="cls-12" d="M234.5,178.1c0,0-.2,0-.3-.1-.2-.1-.2-.5,0-.7l52.6-74.7c.2-.2.4-.2.6,0,.2.1.2.5,0,.7l-52.6,74.7c0,.1-.2.2-.3.2Z"/>
          <path class="cls-12" d="M250.6,178.1c0,0-.2,0-.3-.1-.2-.1-.2-.5,0-.7l52.6-74.7c.2-.2.4-.2.6,0,.2.1.2.5,0,.7l-52.6,74.7c0,.1-.2.2-.3.2Z"/>
          <path class="cls-12" d="M266.7,178.1c0,0-.2,0-.3-.1-.2-.1-.2-.5,0-.7l52.6-74.7c.2-.2.4-.2.6,0,.2.1.2.5,0,.7l-52.6,74.7c0,.1-.2.2-.3.2Z"/>
          <path class="cls-12" d="M282.8,178.1c0,0-.2,0-.3-.1-.2-.1-.2-.5,0-.7l52.6-74.7c.2-.2.4-.2.6,0,.2.1.2.5,0,.7l-52.6,74.7c0,.1-.2.2-.3.2Z"/>
          <path class="cls-12" d="M298.9,178.1c0,0-.2,0-.3-.1-.2-.1-.2-.5,0-.7l52.6-74.7c.2-.2.4-.2.6,0s.2.5,0,.7l-52.6,74.7c0,.1-.2.2-.3.2Z"/>
          <path class="cls-12" d="M315,178.1c0,0-.2,0-.3-.1-.2-.1-.2-.5,0-.7l52.6-74.7c.2-.2.4-.2.6,0s.2.5,0,.7l-52.6,74.7c0,.1-.2.2-.3.2Z"/>
          <path class="cls-12" d="M331.1,178.1c0,0-.2,0-.3-.1-.2-.1-.2-.5,0-.7l52.6-74.7c.2-.2.4-.2.6,0s.2.5,0,.7l-52.6,74.7c0,.1-.2.2-.3.2Z"/>
        </g>
        <g>
          <g>
            <path class="cls-33" d="M236.3,135.3c.1,3.7-5.3,11.7-6.3,14.1-.4,1-1.2,1.9-2,2.6-.9.8-1.9,1.4-2.4,1.6h0c-.2,0-.2.1-.2.1h0c-2.3,1.8-4.9,2.4-7.3,2.5h0c-5.6.2-10.4-2.8-10.4-2.8,0,0-4.2-9.8-3.2-14s6.8-12.9,7.8-16.9c1.1-4,2.8-2.7,3.6-.2.7,2.4.2,8.3.2,8.5,0-.1,1.4-2.2,2.8-3.9h0c.9-1.1,1.8-2,2.4-2.1,1.5-.3,3.2,2,3.2,2,0,0,3.3-1,4.2,2.2,0,0,3.6.4,3.8,3.3,0,0,3.7-.6,3.8,3.1h0Z"/>
            <path class="cls-3" d="M217.8,156.8c-.2,0-.4-.1-.5-.4,0-.2,0-.5.3-.6,0,0,0,0,.3,0h0c.9-.2,5.4-1.5,7.2-2.4.2-.1.5,0,.7.2.1.2,0,.5-.2.6-1.8,1-6.1,2.2-7.4,2.6h0c-.2,0-.3,0-.3,0h-.2Z"/>
          </g>
          <g>
            <path class="cls-1" d="M228.4,311.8h-34.9l-.7-9.3-4.1,9.3h-43.9c.7-8.1,5.9-40.9,5.9-40.9,0,0,75.6-7.7,77,5.1,1.5,12.9.7,35.8.7,35.8h0Z"/>
            <path class="cls-13" d="M195.8,294.7c-.2,0-.3,0-.4-.2-.1-.2,0-.5.2-.6,0,0,2.5-1.5,2.5-3.7s.5-9.9.6-10.2c0-.3.2-.5.5-.5.3,0,.5.2.4.5,0,0-.6,7.7-.6,10.1s-2.8,4.5-3,4.5c0,0-.2,0-.2,0h0Z"/>
          </g>
          <g>
            <path class="cls-19" d="M273.9,232.7c-8.8,10.3-33,25-33,25l-9.6-16.9,18-26.8-18.2-20-.2-.2v2.9c0,12.6-.2,63,1.1,69.8,1.5,7.7-2.9,10.3-2.9,10.3,0,0-19.8,6.2-43.3,5.5s-35.2-5.9-37.1-7.4c-1.7-1.3,1.2-48.6,1.5-66.8,0-2,0-3.6,0-4.8v-.3c0-1.5-.2-3.3-.6-5.4-.5-3.3-1.2-7.1-2-11.2-3.2-15.4-8.1-33.9-8.1-33.9,0,0,2.2-5.9,8.8-9.9,6.6-4,19.4-10.3,36.3-12.1,16.9-1.8,48.1,6.6,53.2,10.6,5.1,4,44.4,55.4,45.8,66s-1.1,15.4-9.9,25.7h0Z"/>
            <path class="cls-32" d="M249.3,214.5c-.1,0-.2,0-.3-.1-.2-.2-.2-.5,0-.7,0,0,1.9-2,4.6-3.3s7.1-1.8,9.9.1c.2.1.3.5.1.7-.2.2-.4.3-.7.1-6.2-4.1-13.2,3-13.3,3,0,.1-.2.1-.3.1h0Z"/>
            <path class="cls-32" d="M230.9,194.3h0c-.3,0-.5-.2-.4-.5.7-9.2.9-15.3.9-15.4,0-.3.2-.5.5-.5s.5.2.5.5-.2,6.2-.9,15.4c0,.2-.2.4-.5.4Z"/>
            <path class="cls-25" d="M234.2,236.7s6.6-1.1,10.6,7,1.1,11,1.1,11l-7.7,4-5.9-19.8,1.8-2.2h0Z"/>
            <path class="cls-10" d="M232,182.3l-.9,11.8-.2,2.6v.4s-29.2-.6-39.1-.6-33.5.8-42.2,1c-.5-3.3-1.2-7.1-2-11.2,8.5-1.1,35.4-4.6,44.2-4.6s40.2.6,40.2.6h0Z"/>
            <path class="cls-10" d="M230.9,200.4l-.6,6s-31.9,2.8-40.2,2.2c-6.9-.5-32-.5-39.9-.5,0-2,0-3.6,0-4.8v-.3c9.6-.4,36-1.5,40.5-1.5s40.2-1.1,40.2-1.1h0Z"/>
          </g>
          <g>
            <path class="cls-33" d="M231,143.1c.8-.9,3.8-4.8,5.6-7.2-.1-3.7-3.8-3.1-3.8-3.1-.2-2.9-3.8-3.3-3.8-3.3-.8-3.2-4.2-2.2-4.2-2.2,0,0-1.7-2.3-3.2-2-.6.1-1.5,1.1-2.4,2.1h0c-.9,1.3-6.2,8.7-5.5,10.4.8,1.9,3,1.1,3,1.1,0,0-.4,2.1.6,3.4s2.9,0,2.9,0c0,0,0,1.4,1.5,2s2.8-.3,2.8-.3c0,0-.5,1,1.4,1.4,1.9.4,3.2,0,5.1-2.4h0Z"/>
            <path class="cls-5" d="M227.1,146.1c-.4,0-.8,0-1.3-.1-.9-.2-1.5-.6-1.7-1.1h0c-.6.2-1.5.3-2.5,0-1-.4-1.4-1.1-1.7-1.7-.9.4-2.2.6-3-.4-.7-.9-.8-2.2-.7-3-1,.1-2.2-.1-2.9-1.6-.2-.6-.3-1.8,2.1-5.8,1.4-2.2,2.9-4.4,3.4-5.1h0s0,0,0,0c1.6-1.9,2.2-2.2,2.7-2.3.2,0,.5.1.6.4,0,.2,0,.5-.4.6-.2,0-.7.3-2.1,2h0c-3.6,4.9-5.8,9-5.4,9.9.7,1.4,2.2.9,2.4.9.2,0,.3,0,.5,0,.1.1.2.3.2.4,0,0-.3,1.9.4,3,.7.9,2.3-.1,2.3-.1.2-.1.3-.1.5,0,.2,0,.2.2.2.4s0,1.1,1.2,1.6c1.2.5,2.2-.2,2.3-.3.2-.1.4-.1.6,0s.2.4,0,.6c0,0,0,.1,0,.2,0,.1.2.4,1.1.5,1.7.4,2.8.1,4.7-2.2.9-1.1,3.8-4.9,5.6-7.2.2-.2.4-.2.7-.1.2.1.2.4,0,.7-1.7,2.4-4.7,6.1-5.6,7.2-1.5,1.9-2.7,2.7-4.3,2.7h0ZM219.6,127.9h0ZM219.6,127.9h0ZM219.7,127.8h0Z"/>
            <path class="cls-5" d="M216.8,139.5c0,0-.2,0-.3,0-.2-.1-.3-.4-.1-.7l7.7-11.2c.2-.2.4-.3.7-.1.2.1.3.4.1.7l-7.7,11.2c0,.1-.2.2-.4.2Z"/>
            <path class="cls-5" d="M220.3,142.9c0,0-.2,0-.2,0-.2-.1-.3-.4-.2-.7l8-12.5c.2-.2.4-.3.7-.1.2.1.3.4.2.7l-8,12.5c0,.1-.2.2-.4.2h0Z"/>
            <path class="cls-5" d="M224.5,144.6c0,0-.2,0-.3-.1-.2-.1-.2-.4,0-.7l8.3-11.3c.2-.2.4-.2.7-.1s.2.4,0,.7l-8.3,11.3c0,.1-.2.2-.4.2h0Z"/>
          </g>
          <g>
            <path class="cls-14" d="M235,238.9c4.6,1.4,5.9,6.9,6.5,11.3.4,3.3-2.3,9.5-4.1,10.5-1.8,1.1-10.3,3.7-12.8,2.6-2.6-1.1-.9-1.6-.9-1.6l3.4-1s-5.1.4-6.2,0c-1.1-.4-.9-2.4-.9-2.4,0,0-2.4-.2-2.6-1.1-.2-.9.6-2.6,1.7-2.8s3.3-.7,3.3-.7l-3.8-.4s0-2.6,1.1-2.9c1.1-.4,7.5-2.4,7.5-2.4l4-2.6v-6.4s2-.7,3.8-.2h0Z"/>
            <path class="cls-3" d="M224.4,264.1c-.9,0-1.4-.2-1.7-.8-.4-.8.3-1.8.5-2-1.1,0-2.1,0-2.5-.2-1.1-.4-1.2-1.7-1.2-2.4-.9-.1-2.3-.5-2.6-1.4-.1-.7,0-1.6.6-2.3.4-.6.9-.9,1.4-1,.2,0,.4-.1.7-.2h-1.1c-.2,0-.4,0-.4-.2,0,0-.6-1.4,0-2.5.2-.5.7-.9,1.4-1.1,1.1-.3,6.8-2.1,7.4-2.4l3.8-2.4v-6.1c0-.3.2-.5.5-.5s.5.2.5.5v6.4c0,.2,0,.3-.2.4l-4,2.6s0,0,0,0c-.2,0-6.4,2.1-7.6,2.4-.4.1-.6.3-.8.5-.2.4,0,1,0,1.4h3.8c.2-.1.4,0,.5.3,0,.2,0,.5-.3.5,0,0-2.7,1-3.8,1.2-.3,0-.6.3-.8.6-.3.5-.5,1.1-.4,1.5,0,.3,1.1.6,2.1.7.1,0,.2,0,.3.2s.1.2,0,.4c0,.5,0,1.7.6,1.9.7.2,4.1,0,6,0,.2,0,.5.1.5.4s0,.5-.3.5l-3.3.9c-.2.3-.4.7-.3.9,0,0,.3.2.9.2,2.9,0,6.4-.6,8.3-1.1.2,0,.5.1.6.4,0,.2,0,.5-.3.6-2,.5-5.6,1-8.6,1.1h-.1.1Z"/>
            <path class="cls-3" d="M218.5,254.3c-.2,0-.4-.2-.5-.4,0-.3.2-.5.4-.5l9.8-1.1,6.6-1.9c.2,0,.5,0,.6.3s0,.5-.3.6l-6.6,1.9h0l-9.9,1.1h0Z"/>
            <path class="cls-3" d="M219.9,258.9c-.2,0-.5-.2-.5-.5s.2-.5.4-.5l8.6-.5,6-2.5c.2-.1.5,0,.6.3,0,.2,0,.5-.3.6l-6.1,2.5c0,0,0,0-.2,0l-8.6.5h0,0Z"/>
            <path class="cls-3" d="M220.8,261.3c-.2,0-.5-.2-.5-.5s.2-.5.5-.5l10.1-.4,4.9-2.2c.2-.1.5,0,.6.2s0,.5-.2.6l-4.9,2.2c0,0-.1,0-.2,0l-10.2.4h0Z"/>
          </g>
          <g>
            <path class="cls-14" d="M200.3,133.3s-1.3,4.2-10.1,5.9c-8.8,1.6-15.1-6.4-15.1-6.4l1.9-16.5.5-4.4,21.7,6.4.7,9,.4,6.1h0Z"/>
            <path class="cls-3" d="M199.9,127.2c-2.8,1.1-8.3,2.7-13.5-.2-5-2.7-7.9-7.8-9.3-10.8l.5-4.4,21.7,6.4.7,9h0Z"/>
          </g>
          <path class="cls-35" d="M170.8,99.6s-3.7-2.8-4.4-4.8,1.5-3.9,1.5-5.8-.4-5.1.6-6.2c.9-1,2.8-2.4,2.8-2.4,0,0-1.3-4.1.7-5.6,2-1.6,10.1-3.4,12.5-5,2.4-1.6,8.6-7.6,13.8-5.8,5.1,1.7,5.3,5.5,6.8,6.5s4.8,1.9,5.9,4.8-.2,5,0,6.4,1.5,3.6,1.7,6.7c.2,3.1-5.7,7-5.7,7l-35.9,4.3h0Z"/>
          <g>
            <path class="cls-14" d="M179.2,81.8c-1.3,1.1,0,3.3,0,6.4s-1.8,6.8-2.8,7.7-3.8-2.2-5.3.2.2,9.7,1.3,11,3.3.7,3.3.7c0,0,2,6.1,4.9,9.9,2.9,3.9,11.2,6.4,15.9,6.1,4.8-.4,8.1-5.3,9.7-11s1.7-14.7,1.1-17.1-.2-9.9-.6-12.5c-.4-2.6-2.8-4.9-5.7-4.6s-2.6-2-9-2.8c-6.4-.7-8.6.7-9,2.8-.4,2-4,3.1-4,3.1h0Z"/>
            <path class="cls-36" d="M187.7,92.7c2-.1,2.1,5,.2,5.1-2,.1-3.8-4.9-.2-5.1Z"/>
            <path class="cls-36" d="M203.5,92.4c1.9,0,1.4,5.2-.4,5.1s-3-5.2.4-5.1Z"/>
            <path class="cls-35" d="M191,89c0,1.5-2.4.4-5,1-2.6.6-3.3,1.1-3.8.5s1.2-2.1,2.9-2.6c1.7-.5,5.9.4,5.9,1.1h0Z"/>
            <path class="cls-21" d="M201.3,108.8c-.2.6-1,2.4-1.4,2.8-.5.5-4.8.7-7.7.2-2.8-.5-3.9-2.5-4-2.7.2,0,.4.1.7.2,1.7.5,7.2-.9,9.3-.9s2.2.2,3.1.3h0Z"/>
            <path class="cls-4" d="M178.5,102.3c-2.2,2.3,8,3.1,8.2,2.2.5-2.3-6.5-4-8.2-2.2Z"/>
            <path class="cls-35" d="M200.4,89.2c-.2,1.1,1.7.2,3.6.4,1.8.1,3.8,1,3.9.2s-2.6-2.4-3.8-2.4-3.6,1.1-3.7,1.8Z"/>
            <path class="cls-3" d="M175.8,105.2c-.2,0-.4-.1-.5-.4-.7-3.6-2.6-5.1-2.6-5.1-.2-.1-.3-.4,0-.7.2-.2.4-.3.7-.1,0,0,2.2,1.6,3,5.7,0,.2-.1.5-.4.6h-.1Z"/>
            <path class="cls-3" d="M172.6,104.2c0,0-.2,0-.2,0-.2-.1-.3-.4-.2-.6,0,0,.9-1.6,3.4-1.1.2,0,.4.3.4.6s-.3.4-.6.4c-1.8-.4-2.4.6-2.4.6,0,.1-.2.2-.4.2h0Z"/>
            <path class="cls-3" d="M189.9,109.9c-.5,0-.8,0-1.2-.1-.2,0-.5-.1-.8-.2-1.2-.4-1.7-.8-1.7-.8-.2-.2-.2-.5,0-.7s.5-.2.7,0c0,0,.4.3,1.4.7.2,0,.5.1.7.2.9.3,3.4-.1,5.4-.4,1.4-.2,2.8-.4,3.7-.4s2,.1,2.8.2h.3c.7.2,1.4.2,1.8.1.2,0,.5.1.6.4,0,.2,0,.5-.3.6-.6.1-1.3,0-2.2,0h-.3c-.8-.2-1.8-.3-2.7-.3s-2.1.2-3.6.4c-1.7.3-3.4.5-4.7.5h0Z"/>
            <path class="cls-3" d="M186.3,109.7h0c-.2,0-.4-.3-.4-.6.2-.9,1-1.9,1.1-1.9.2-.2.5-.2.7,0,.2.2.2.5,0,.7h0c-.3.4-.8,1.1-.9,1.5,0,.2-.2.4-.5.4h0Z"/>
            <path class="cls-3" d="M196.5,104.8c-.7,0-1.2,0-1.5,0-.3,0-.5-.2-.4-.5s.2-.5.5-.4c1.7.1,4.6,0,5.3-.5.2-.2.5-.1.7,0s.1.5,0,.7c-.8.6-2.9.8-4.4.8h0Z"/>
            <path class="cls-3" d="M200.4,101.4c-.2,0-.4-.1-.5-.4,0-.3-1.8-6.8-1.8-8.3s1-4.3,1-4.4c0-.2.3-.4.6-.3s.4.4.3.6c0,0-.9,2.8-.9,4.1s1.3,6.2,1.8,8.1c0,.2,0,.5-.3.6h-.1,0Z"/>
          </g>
          <path class="cls-25" d="M175.7,128.4l-3.5,4.6s1.3,5.1,5.5,8.4c3,2.3,10.3,4.8,11,3.3s2.2-7,2.2-7c0,0,1.5,6.2,2.9,6.2s6.4-3.7,7.3-5.3c.9-1.6,2.4-4,1.8-6.4,0,0-2.6-3.9-3.1-3.3s-3.1,6.7-9,6.8c-10.6.2-15.2-7.3-15.2-7.3h0Z"/>
        </g>
        <g>
          <path class="cls-36" d="M468.8,216.5l-2,13.2-7.3,49-4.9,33c-2.8,0-5.8,0-8.8,0l5.1-34.3,7.3-49,2-13.2c.1-.9,1-1.5,1.9-1.4l5.3.8c.9.1,1.5,1,1.4,1.9h0Z"/>
          <path class="cls-22" d="M490.6,283.5l-71-10.6c-2.5-.4-4.2-2.7-3.8-5.2l6-40c.4-2.5,2.7-4.2,5.2-3.9l71,10.6c2.5.4,4.2,2.7,3.8,5.2l-6,40c-.4,2.5-2.7,4.2-5.2,3.9Z"/>
          <g>
            <path class="cls-25" d="M430.1,260.5c.9.7,2.4,1.4,4.1,1.7,1.8.2,2.8-.3,2.9-1.4.2-1-.6-1.8-2.5-2.8-2.7-1.4-4.2-3.2-3.9-5.6.4-2.9,3.2-4.7,7.1-4.1,1.9.3,3.2.9,4.2,1.5l-1.3,3c-.6-.4-1.8-1.1-3.4-1.3s-2.6.4-2.7,1.2c-.2,1.1.7,1.7,2.8,2.8,2.8,1.5,4,3.3,3.6,5.7-.4,2.8-2.9,4.9-7.6,4.2-1.9-.3-3.8-1.1-4.6-1.7l1.2-3h0Z"/>
            <path class="cls-25" d="M447.4,262.7l-1.8,4.1-3.9-.6,7.7-16,5,.8,2.7,17.6-4.1-.6-.7-4.5-4.8-.7h0ZM452.1,260.5l-.5-3.7c-.2-1-.2-2.3-.3-3.4h0c-.4,1-.8,2.2-1.2,3.1l-1.5,3.4,3.7.5h0Z"/>
            <path class="cls-25" d="M461.7,252.1l3.8.6-2.1,13.6,6.7,1-.5,3.2-10.5-1.6,2.5-16.8h0Z"/>
            <path class="cls-25" d="M483,265.2l-6.2-.9-.6,4,6.9,1-.5,3.1-10.7-1.6,2.5-16.8,10.4,1.5-.5,3.1-6.6-1-.5,3.5,6.2.9-.5,3.1h0Z"/>
          </g>
          <g>
            <path class="cls-25" d="M448.6,245.7l2.6-7.5-1.2-.2.6-1.7,1.2.2.2-.5c.4-1.2,1.1-2.3,2.1-3,.8-.5,1.8-.6,2.6-.5.7.1,1.1.3,1.4.5l-.7,1.7c-.2-.1-.5-.2-.9-.3-1.1-.1-1.8.8-2.2,2l-.2.5,2,.3-.6,1.7-2-.3-2.6,7.5-2.3-.4h0Z"/>
            <path class="cls-25" d="M464.9,242.3c-.5,3.2-3.2,5.7-6.4,5.2-2.4-.4-3.7-2.2-3.3-4.5.5-3.2,3.2-5.7,6.4-5.2,2.6.4,3.6,2.4,3.3,4.5h0ZM457.5,243.2c-.2,1.3.4,2.3,1.5,2.5,1.7.2,3.2-1.9,3.5-3.8.2-1,0-2.2-1.5-2.5-1.8-.3-3.2,2-3.5,3.8h0Z"/>
            <path class="cls-25" d="M465,248.2l2-5.7c.4-1.3.8-2.8,1-3.6l2,.3c-.2.6-.3,1.3-.5,2h0c.8-1.2,2-2,3.3-1.8.2,0,.3,0,.5.1l-.8,2.1c-.1,0-.3,0-.4-.1-1.6-.2-2.9,1.2-3.6,3.2l-1.3,3.7-2.3-.4h0Z"/>
          </g>
        </g>
        <g>
          <path class="cls-27" d="M296.4,279.6c-2.2,1-5.3,2.8-6.9,4.2-2.5,2.2-3.6,4.1-4.9,3.8-1.3-.3-1.1-3.4,0-5.6,1.8-3.5,2.4-5.1,2.4-5.1,0,0-7.8,3-12.5,4-4.6.9-11.1,2.8-12,.6-.5-1.2,6.9-4.7,7.1-4.8-.2,0-3.7-.4-3.5-1.6.2-1.2,8.6-2.4,11.8-3.4,3.2-.9,14.6-8,17.2-7.6,1.7.2,3,.5,4.8,1,2,3.3.5,12.6-3.5,14.5h0Z"/>
          <path class="cls-31" d="M350,242.7s-6.7,7.6-7.8,15.8-7,53.2-7,53.2h86.9s-2.8-49.9-5.1-56.9c-3.1-9.4-8-13.2-8-13.2l-59.1,1h0Z"/>
          <g>
            <path class="cls-17" d="M490.3,165.6h0c-.4.5-27.9,33.4-35.6,41.5-7.7,8.1-17.2,8.1-22.4,5.9s-19.1-16.5-19.1-16.5c-1.5,10.3-1.9,35.4-2.7,39.8,5.9,10.5,8.5,23.6,8.5,23.6,0,0-16.1,7.3-38.9,7.3s-22.5-1.8-38.3-6h0c0,0-.2,0-.2,0-.2,0-.4-.1-.7-.2,1.6-13.5,3.6-18.5,4.6-21.6.3-.9.5-1.6.6-2.4,0-.1,0-.3,0-.4,0-1.5.2-2.9.2-4.1,0-2.8,0-4.5,0-4.5,0,0-.6,2-1.6,4.6-.4,1-.8,2-1.3,3.1-.9,1.9-9.4,11-18.2,20-9.8,10-19.9,20-19.9,20-7.7,0-15.6-10.4-13.2-14,5.9-8.8,29.3-40.7,29.3-40.7,0,0,14.8-53.3,17.1-57.9,2.2-4.7,5.2-6.3,9.9-9.1,1-.6,2.1-1.2,3.2-1.8.2-.1.5-.2.7-.4,1.8-.9,3.5-1.8,4.8-2.5,1.4-.7,2.3-1.1,2.3-1.1l24-6.1s1.2-1,5.9-1.4c1.7-.1,4.8-.1,8.2.1,5.9.5,13,1.9,16.1,5.1,4.8,5.1,24.8,31.7,24.8,31.7h0l39.2-27.9h0c9.4,1.8,12.4,15.5,12.5,15.8h0Z"/>
            <path class="cls-25" d="M397.7,140.8c-4.6,14.4-26.6,39.8-26.6,39.8-6.7-6.1-11.8-23.6-13.4-29.5-.2-.9-.4-1.5-.5-1.8,1.4-.7,2.3-1.1,2.3-1.1l24-6.1s1.2-1,5.9-1.4c1.7-.1,4.8-.1,8.2.1h0Z"/>
            <path class="cls-11" d="M413.3,196.9c-.2,0-.3,0-.4-.2-4.7-6.2-8.8-13.2-8.8-13.2-.1-.2,0-.5.2-.6.2-.1.5,0,.7.2,0,0,4.1,7,8.8,13.1.2.2.1.5,0,.7,0,0-.2.1-.3.1h0Z"/>
            <path class="cls-11" d="M439.3,184.4h0c-.3,0-.4-.3-.4-.5.3-3.1-.7-6-.7-6,0-.2,0-.5.3-.6s.5,0,.6.3c0,.1,1.1,3.1.8,6.4,0,.2-.2.4-.5.4h0Z"/>
            <path class="cls-11" d="M490.3,165.6c-1.2,1.4-3.8,0-6.4-2.4-3.9-3.7-7.8-9.9-6.7-12.6.1-.3.3-.6.6-.8.2-.2.5-.3.8-.4.5-.1,1.1-.1,1.7,0,2.8.6,6.2,4.3,8.4,8.1,0,0,0,.1.1.2.2.4.4.7.6,1,1.4,2.9,2.1,5.6.9,6.9h0Z"/>
            <path class="cls-11" d="M386.4,210.1h-.7c-.3,0-.5-.2-.4-.5s.2-.5.5-.5c0,0,3.5.2,7.1-.9,4.7-1.4,7.5-4,8.2-7.9,0-.2.3-.4.6-.4s.4.3.4.6c-.8,4.2-3.9,7.2-8.9,8.7-2.8.8-5.4.9-6.7.9h0Z"/>
            <path class="cls-11" d="M360.4,212.3h0c-.4,0-9.3-.8-13.8-3-.2-.1-.3-.4-.2-.6s.4-.3.7-.2c4.3,2.1,13.3,2.9,13.4,2.9.3,0,.4.2.4.5s-.2.5-.5.5Z"/>
            <path class="cls-11" d="M329.8,223.7c0,0-.2,0-.3-.1-3.7-2.6-7.9-2.1-7.9-2.1-.2,0-.5-.1-.5-.4s.2-.5.4-.5c.2,0,4.6-.5,8.6,2.3.2.1.3.5,0,.7,0,.1-.2.2-.4.2h0Z"/>
            <path class="cls-11" d="M365.6,266.6c-.3,0-.5-.2-.5-.5,0-4.9.3-12.3.7-20.1.6-12.8,1.1-26.1.4-31.2-1.1-8.2-.6-20.9-.6-21s0-.1,0-.1l4.9-13.2c0-.2.4-.4.6-.3s.4.4.3.6l-4.9,13.1c0,1.1-.5,12.9.6,20.8.7,5.1.1,18.5-.4,31.3-.3,7.8-.7,15.2-.7,20.1s-.2.5-.5.5h0Z"/>
            <path class="cls-11" d="M366.3,195.8c-.2,0-.3,0-.4-.2-.2-.2-.2-.5,0-.7,5.8-4.8,21.1-17.6,22.3-19.7,1.3-2.3-.4-5.8-.4-5.8,0-.1,0-.3,0-.4,0-.1.2-.2.3-.3,2-.7,7.3-2.9,8.2-4.9,1.1-2.5,6.2-21.8,6.2-21.9,0-.2.3-.4.6-.4.2,0,.4.3.3.6-.2.8-5.2,19.5-6.2,22.1-1,2.4-6.4,4.6-8.2,5.2.5,1.1,1.4,4,.1,6.2-1.5,2.6-21.6,19.2-22.5,19.9,0,0-.2.1-.3.1h0Z"/>
            <path class="cls-11" d="M365.6,200.2c-.2,0-.3-.1-.4-.2-1.9-3.6-5.2-16.1-7-23.2-.6-2.4.8-4.9,1.5-6.1-1.2-.3-3.5-.9-4.6-1.8-.3-.2-1.1-.8-2.2-9.2-.6-4.1-.9-8-.9-8.1,0-.3.2-.5.4-.5.3,0,.5.2.5.4,0,0,.4,3.9.9,8,1,7.6,1.7,8.5,1.8,8.6,1.3,1,4.9,1.8,4.9,1.8.2,0,.3.1.3.3,0,.1,0,.3,0,.5,0,0-2.4,3.1-1.8,5.8,3,12.1,5.6,20.5,6.9,23,.1.2,0,.5-.2.6,0,0-.2,0-.2,0h0Z"/>
            <path class="cls-11" d="M370.3,200.4c3.3.2,1.5,6.8-.4,5.9-1.8-.9-2.2-6.1.4-5.9Z"/>
            <path class="cls-11" d="M371.4,247.4c3.3.2,1.5,6.8-.4,5.9-1.8-.9-2.2-6,.4-5.9Z"/>
            <path class="cls-11" d="M371.8,233.1c3.3.2,1.5,6.8-.4,5.9-1.8-.9-2.2-6,.4-5.9Z"/>
            <path class="cls-11" d="M371.8,215.5c3.3.2,1.5,6.8-.4,5.9-1.8-.9-2.2-6,.4-5.9Z"/>
            <path class="cls-36" d="M359.5,148.2s-.7,1.1-1.8,2.9c-1.2,1.9-2.8,4.8-4.4,8.3-1.9,4-3.8,8.8-5.4,14.3-1.3,4.3-2.3,9-2.9,14,0,0,.6-19.6,2.9-27,1.3-4.3,2.8-7,3.8-8.5.2-.1.8-1.8,5.4-3.4,1.5-.5,2.5-.6,2.5-.6h0Z"/>
            <g>
              <path class="cls-36" d="M343.6,202.2s-2.9,11.8-5.1,35.1c-.1,1.3,5.1-1.6,5.1-1.6l3.2-27.3-3.2-6.1h0Z"/>
              <path class="cls-36" d="M346.7,232.4s-13.2.9-15.5,3.8c-4.3,5.4-9.7,38.3-7.9,40.7,3.7,1.3,16.8-.4,16.8-.4,0,0,1.2-8.8,1.9-15.4,0,0-.4-.1-.7-.3,2.2-13.8,5.1-24.4,5.1-24.4l.4-4.1h0Z"/>
            </g>
            <path class="cls-11" d="M346.5,228.4h0c-.3,0-.5-.2-.5-.5l.4-19c-.4-.9-3.3-7.4-3.8-11-.3-2.4-.2-2.9.4-4.5.3-1.1.9-2.7,1.6-5.9,1.6-7.6,3-14.7,3-14.8,0-.2.3-.4.6-.4.2,0,.4.3.4.6,0,0-1.4,7.1-3,14.8-.7,3.2-1.2,4.9-1.6,5.9-.5,1.6-.6,1.9-.3,4.1.5,3.7,3.8,10.8,3.8,10.9,0,0,0,.1,0,.2l-.4,19.1c0,.2-.2.5-.5.5h0Z"/>
          </g>
          <path class="cls-36" d="M367,86.6s11.2-8.3,19.2-7.5c8,.8,9.3,10.4,10.4,12s6.4,6.1,6.4,11.7-3.5,12-3.5,15.2,3.7,8.8,1.9,12.3c-1.9,3.5-8,8.5-23.2,12.3-15.2,3.7-24,1.1-25.1-1.9-1.1-2.9.3-6.1,1.1-11.2.8-5.1-3.7-20.3-.5-31.2s13.3-11.7,13.3-11.7h0Z"/>
          <g>
            <path class="cls-34" d="M366.4,138.1s-1.9,0-2.3,1.9c-.3,1.9-.3,4.1-.9,5.7s-1.6,1.9-1.1,3.6,6.8,8.9,13.5,8.4c6.8-.5,10.7-7.1,12.1-9.8,1.4-2.7,3.2-4.1,3.4-5.5.2-1.4-.7-1.9-.7-3.9s-3.2-2.5-3.2-2.5l-20.8,2.1h0Z"/>
            <path class="cls-16" d="M383,151.5c-.2,0-.4-.1-.5-.4-.4-2-.8-4.1-1.2-6.1,0-.2.1-.5.4-.6.2,0,.5.1.6.4.3,2,.7,4.1,1.2,6.1,0,.2,0,.5-.4.6h0,0Z"/>
            <path class="cls-16" d="M379.6,155.5c-.2,0-.4-.2-.5-.4l-.6-7.5c0-.3.2-.5.4-.5.3,0,.5.2.5.4l.6,7.5c0,.3-.2.5-.4.5h0Z"/>
            <path class="cls-16" d="M370.1,152.3h0c-.3,0-.4-.3-.4-.5.2-2.1.7-4.2,1.4-6.3,0-.2.4-.4.6-.3.2.1.4.4.3.6-.7,1.9-1.2,4-1.4,6.1,0,.2-.2.4-.5.4h0Z"/>
            <path class="cls-16" d="M371.9,155.2c-.3,0-.5-.2-.5-.5v-4.6c0-.3.2-.5.5-.5s.5.2.5.5v4.6c0,.3-.2.5-.5.5Z"/>
            <path class="cls-16" d="M364.6,149.4h0c-.3,0-.4-.3-.4-.6.2-1.8.6-3.6,1.1-5.4,0-.2.3-.4.6-.3s.4.4.3.6c-.5,1.7-.8,3.5-1.1,5.3,0,.2-.2.4-.5.4h0Z"/>
          </g>
          <g>
            <path class="cls-27" d="M387.9,138.8s-3.4,4.4-9.9,5.3c-6.6.9-12-2.7-12-2.7.6-2.8.8-6.9.8-10.1,0-2.4,0-4.1,0-4.1l19.9,3.3,1.1,6.9.2,1.3h0Z"/>
            <path class="cls-8" d="M387.7,137.5c-2,1.8-6.1,4.4-11.7,2.2-5.1-2-7.9-5.8-9.2-8.3,0-2.4,0-4.1,0-4.1l19.9,3.3,1.1,6.9h0Z"/>
          </g>
          <g>
            <path class="cls-27" d="M394.2,118v.2c-.4,4.4-4.1,16.1-10.4,16.8-6.4.8-12-2.1-14.1-4s-6.1-8.5-6.1-8.5c0,0-1.1.8-2.7.3-1.6-.5-5.1-8.3-4-11.5,1.1-3.2,6.4-1.3,6.4-1.3,0,0,2.7-3.2,4.5-5.6,1.9-2.4,5.1-14.1,5.1-14.1,0,0,11.2.5,16.3,3.5,5.1,2.9,4.5,8.3,4.5,11.7s.4,5.9.6,9.3c0,1.1,0,2.2,0,3.2h0Z"/>
            <path class="cls-36" d="M376,106c2.8-.2,2.4,5.1.4,5.1s-2.7-5-.4-5.1Z"/>
            <path class="cls-36" d="M390.2,106.3c2.8-.2,2.4,5.1.4,5.1s-2.7-5-.4-5.1Z"/>
            <path class="cls-36" d="M380.1,103.1c.2,1-4.1.4-5.6.5s-2.8.6-3.2.3.8-1.5,2.6-1.9c1.8-.4,6.1,0,6.2,1.1h0Z"/>
            <path class="cls-21" d="M388.1,122s-.7,2.6-1.5,2.8c-.8.3-3.7.6-6,0-2.3-.6-3.4-2.5-3.4-2.5,0,0,0,0,.2,0,.5.1,1.1.2,1.7.2,1.9.2,4.4-.5,6.8-.5s1.6,0,2.1,0c0,0,0,0,0,0h0Z"/>
            <path class="cls-7" d="M368.1,115.2c-1.4,2.3,6.4,4.9,7.1,2.7s-6.3-4-7.1-2.7Z"/>
            <path class="cls-36" d="M387.9,103.3c-.3.9,1.5.5,3,.4,1.5-.1,2.8.6,2.8.6v-1.9c0,0-2-.4-2.8-.4s-2.8.6-3,1.2Z"/>
            <path class="cls-7" d="M394.2,118v.2c-1.2.4-2.4.4-2.7-.5-.2-.7,1.2-2.6,2.7-3,0,1.1,0,2.2,0,3.2h0Z"/>
            <path class="cls-8" d="M387.3,114.4c-.2,0-.4-.1-.4-.4-2-6.5-.6-11.3-.5-11.5,0-.2.3-.4.6-.3s.4.4.3.6h0c0,0-1.3,4.8.5,10.9,0,.2,0,.5-.3.6h-.2Z"/>
            <path class="cls-8" d="M385,117.9c-1.5,0-2.9-.4-3.2-.4-.2,0-.4-.3-.3-.6,0-.2.3-.4.6-.4,1,.3,3.9.8,5.1-.1.2-.2.5-.1.7,0s.1.5,0,.7c-.7.6-1.7.7-2.7.7h0Z"/>
            <path class="cls-8" d="M379.8,123c-.2,0-.5,0-.7,0-.6,0-1.2-.1-1.8-.2-1.2-.2-2.2-.5-2.2-.5-.2,0-.4-.3-.3-.6s.3-.4.6-.3c0,0,.9.2,2.2.5.6.1,1.2.2,1.7.2,1,.1,2.2,0,3.4-.2,1.1-.1,2.2-.3,3.3-.3s1.5,0,2.1,0c.9,0,1.3.1,1.3.1.2,0,.4.3.4.6,0,.2-.3.4-.6.4,0,0-.4,0-1.2-.1-.6,0-1.3,0-2.1,0s-2.1.1-3.2.3c-1,.1-2,.3-2.9.3h0Z"/>
            <path class="cls-8" d="M363.5,120.4c-.2,0-.4-.1-.5-.4-.8-3.6-3.8-5.6-3.8-5.6-.2-.1-.3-.4-.2-.7s.4-.3.7-.1c.1,0,3.3,2.1,4.2,6.2,0,.2,0,.5-.3.6h0Z"/>
            <path class="cls-8" d="M360.3,119.3c0,0-.2,0-.2,0-.2-.1-.3-.4-.2-.6,0,0,.9-1.8,2.8-1.6.3,0,.4.3.4.5,0,.3-.3.4-.5.4-1.2-.1-1.8,1-1.8,1.1,0,.2-.2.3-.4.3h0Z"/>
          </g>
          <g>
            <path class="cls-27" d="M490.5,155.4s-.7.9-1.8,2.1c0,0,0,.1-.2.2-.2.3-.5.6-.8.9-1.3,1.5-2.8,3.3-3.9,4.6-3.9-3.7-7.8-9.9-6.7-12.6l1.4-1.2,1.9-1.6,1.4-1.2,8.5,8.8h0Z"/>
            <path class="cls-27" d="M480.2,152.3s-.2-6.4,2.3-9.3,9.2-7.3,11-8.3,5.6-4,6.8-4.1c1.2-.1,1.1,3.3-.3,4.9-1.4,1.6-5.8,6-5.8,6l7.8-.2s9.3-6.1,10.5-6,1.7.2,1.7.2c0,0,2.1-1.2,2.7,0s-.5,2.1-.5,2.1c0,0,1.3.4,1.4,2.1,0,1.5-1.1,2.1-1.1,2.1,0,0,1.1,1.5,0,2.9-2.2,3.1-6.9,8.1-8,8.8-1.1.8-10.8,4.8-17.2,4.7,0,0-3.8,1.1-6.9-.4-4.2-1.9-4.3-5.5-4.3-5.5h0Z"/>
            <path class="cls-8" d="M501.6,143.7c-.2,0-.4-.1-.4-.3,0-.2,0-.5.3-.6l4.9-1.8,7.6-6.1c.2-.2.5-.1.7,0s.1.5,0,.7l-7.6,6.1c0,0,0,0-.1,0l-5,1.8c0,0,0,0-.2,0h0Z"/>
            <path class="cls-8" d="M503,147.2c-.2,0-.3-.1-.4-.2-.1-.2,0-.5.2-.6l7-3.8,6.3-5.4c.2-.2.5-.1.7,0s.2.5,0,.7l-6.3,5.4s0,0,0,0l-7.1,3.8c0,0-.2,0-.2,0h0Z"/>
            <path class="cls-8" d="M503.8,150.3c-.2,0-.3-.1-.4-.3-.1-.2,0-.5.2-.6l6.9-3.3c2.9-3.4,5.7-4.8,5.8-4.9.2-.1.5,0,.7.2.1.2,0,.5-.2.6h0s-2.8,1.4-5.6,4.7c0,0,0,.1-.2.1l-7,3.4c0,0-.2,0-.2,0h0Z"/>
            <path class="cls-8" d="M492.5,147.7h0c-.3,0-.4-.3-.4-.6,0-.5.8-4.8,1.8-6.1.2-.2.5-.2.7,0,.2.2.2.5,0,.7-.7.9-1.4,4.4-1.6,5.6,0,.2-.2.4-.5.4h0Z"/>
            <path class="cls-8" d="M491.4,158.6h0c-2.5-.3-5.7-.9-5.8-.9-.2,0-.4-.3-.4-.6,0-.2.3-.4.6-.4,0,0,3.2.6,5.7.9.3,0,.4.3.4.5,0,.2-.2.4-.5.4h0Z"/>
          </g>
        </g>
        <g>
          <path class="cls-37" d="M76.1,311.8s5.1-46.4,9.5-58.1l66.1-7.5s5.6,42.1,4.8,65.6h-80.5,0Z"/>
          <g>
            <path class="cls-22" d="M139.9,286.7s-3.3,3.3-6.6,3.3-.8,0-1.6,0c-10-.3-58.8-2.5-59.8-5.1-1.1-2.8-.6-16.5,2.2-31.4s7.2-18.7,7.2-18.7l48.1,6.6s.7.9,1.8,2.2c1.8,2.4,4.6,6.2,5.9,9.3,2.2,5,2.9,33.8,2.9,33.8h0Z"/>
            <path class="cls-24" d="M139.9,286.7s-3.3,3.3-6.6,3.3-.8,0-1.6,0c-.5-8.9-1.8-35.6-.6-46.3,1.8,2.4,4.6,6.2,5.9,9.3,2.2,5,2.9,33.8,2.9,33.8h0Z"/>
            <path class="cls-24" d="M102,269.6c-.7,0-1.4,0-2.1,0-12.4-.7-27.6-10.2-27.8-10.4-.2-.1-.3-.5-.2-.7s.4-.3.7-.1c.2.1,15.1,9.5,27.3,10.2,12.2.7,30.1-5.4,30.2-5.5.2,0,.5,0,.6.3s0,.5-.3.6c-.2,0-16.2,5.6-28.5,5.6h0Z"/>
            <path class="cls-24" d="M95.2,260.5c-.8,0-.9,3.3-.5,3.6s4.3,1.6,5.2,1.6,4.8-.5,5.1-1.2.5-3.9-.5-3.9-9.4-.1-9.4-.1h0Z"/>
          </g>
          <g>
            <path class="cls-14" d="M57.4,201.1c2.1,3.1,11.2,6.3,13.4,7.7.9.5,2.1.8,3.2.9,1.2,0,2.3,0,2.8-.1h0c.2,0,.3,0,.3,0h0c2.9,0,5.4-.9,7.3-2.2h0c4.6-3.1,6.7-8.4,6.7-8.4,0,0-2.3-10.4-5.7-13.1-3.3-2.7-13.1-6.4-16.3-9.1s-3.8-.5-3,1.9c.8,2.4,4.7,6.9,4.9,7-.1,0-2.4-.9-4.6-1.5h0c-1.4-.4-2.7-.6-3.2-.3-1.4.6-1.4,3.5-1.4,3.5,0,0-3.3,1.1-2.1,4.2,0,0-2.7,2.4-1.1,4.9,0,0-3.3,1.7-1.2,4.8h0Z"/>
            <path class="cls-3" d="M77.1,210c-.2,0-.4-.2-.5-.4,0-.3.2-.5.4-.5,2-.3,6.3-1.9,7.2-2.2h0c.2,0,.3-.1.3-.1.2-.1.5,0,.6.3s0,.5-.3.6c0,0,0,0-.3.1h0c-1.2.5-5.4,2-7.4,2.3h0Z"/>
          </g>
          <g>
            <path class="cls-25" d="M156.1,190.2c.9,4.7-6.7,12-6.7,12,0,0,1.8,14,2.3,44.2-4.1,4.2-24.4,2.5-24.4,2.5,0,0-4.4,4.8-8.1,4.4-3.7-.4-27.7-14.1-42.4-21.2-14.8-7.1-14.7-18.1-12.3-26,3-10,5.3-18.9,10.1-34.2s8.4-20.2,18.2-25.1c3.4-1.8,9.6-3.6,14.5-5.6,1.2-.5,2.4-1.1,3.4-1.6,1.6-.9,2.9-1.7,3.7-2.7,2.1-2.6,3.7-8.7,4.6-12.7.5-2.2.8-3.8.8-3.8l18.2,7.1-.4,9.6v2.7c-.1,0,2.8,3.2,2.8,3.2l2.6,2.8,8.1,8.8s1.8,18.4,5.1,35.6h0Z"/>
            <path class="cls-34" d="M119.9,205.1c-5.3,0-9.1-2-11.5-3.9-3.2-2.6-4.6-5.4-4.7-5.5-.1-.2,0-.5.2-.6.2-.1.5,0,.7.2,0,0,1.4,2.8,4.4,5.2,4.1,3.2,9.1,4.3,14.8,3.3.2,0,.5.1.6.4,0,.2-.1.5-.4.5-1.5.3-2.8.4-4.1.4h0Z"/>
            <path class="cls-34" d="M119.2,253.7c-.2,0-.4-.2-.5-.4,0-.3.2-.5.4-.5.8,0,1.6-.2,2.4-.5,3.1-1.1,5.1-3.5,5.3-3.7.2-.4,3.2-5,3.8-8.8.3-1.9,0-3.2-.8-4-1.5-1.3-7.1-6.1-12.9-11.1-1.7-1.4-3.4-2.9-5.1-4.4l-1.7-1.5c-8.2-7-15.9-11.1-16-11.2-.2-.1-.3-.3-.2-.5l7-27.3c0-.2.3-.4.6-.4s.4.3.3.6l-6.9,26.9c1.6.9,8.5,4.9,15.8,11.1l1.7,1.5c1.7,1.5,3.4,3,5.1,4.4,5.8,5,11.3,9.8,12.9,11.1,1.2,1,1.6,2.6,1.2,4.9-.7,4.1-3.8,9-4,9.2h0c0,.1-2.2,2.8-5.8,4-.9.3-1.8.5-2.7.6h0Z"/>
            <path class="cls-34" d="M82,209.1c-.2,0-.3,0-.4-.2-.2-.2-.2-.5,0-.7.2-.1,4.7-3.8,12.9-1.5.2,0,.4.3.3.6,0,.2-.3.4-.6.4-7.7-2.1-12,1.4-12.1,1.4,0,0-.2.1-.3.1h0Z"/>
            <path class="cls-34" d="M140.9,203.8c-1.2,0-2.1,0-2.2,0-.3,0-.5-.2-.4-.5,0-.3.2-.5.5-.5,0,0,7.8.4,10.3-1.1.2-.1.5,0,.7.2.1.2,0,.5-.2.6-1.9,1-6.1,1.2-8.7,1.2Z"/>
          </g>
          <path class="cls-34" d="M132.1,162.7c-5.5-.4-9.3-6.6-12.8-10.7s-9.7-11.7-9.7-11.7v-.3c1.2-.5,2.3-1,3.3-1.5,1.5-.8,2.7-1.6,3.4-2.5,2-2.4,3.5-8.1,4.3-11.9.4-2.1.7-3.6.7-3.6l17.1,6.7-.4,9.1v2.6c-.1,0,2.7,3,2.7,3l2.4,2.6c1.3,10.6-5.5,18.6-11,18.2h0Z"/>
          <path class="cls-22" d="M125.3,230.2c-2.5-2.1-4.7-4.2-7.1-6.1-.6-13.4-7-54.7-8.9-64.1-3.3-16.2-10.8-16.1-10.8-16.1l4.6-1.2s7.7.7,11.2,17.1c1.8,8.3,10.3,55.9,11,70.5h0Z"/>
          <g>
            <path class="cls-33" d="M129.3,156.1c-4.4-.9-14.8-15.5-16.3-17.6,1.5-.8,2.7-1.6,3.4-2.5,2-2.4,3.5-8.1,4.3-11.9.4-2.1.7-3.6.7-3.6l17.1,6.7-.4,9.1v2.6c-.1,0,2.7,3,2.7,3,.4,14-6.7,15.3-11.4,14.3h0Z"/>
            <path class="cls-5" d="M138.5,127.2l-.4,9.1c-1.8.5-5.3,1-9.1-1.1-4.1-2.3-7-8.1-8.3-11.1.4-2.1.7-3.6.7-3.6l17.1,6.7h0Z"/>
          </g>
          <g>
            <path class="cls-33" d="M143.3,270.3c-.6,2.5-.1,2.5-1.2,3.4-1.1.8-1.6-1.1-1.6-1.1,0,0,0,1.6-1.1,2.4s-1.7-1.8-1.7-1.8c0,0-1.1,1.1-2.2.5-1.1-.5-1.3-2.6-1.3-2.6l-.3-5.5s-1.2-2.6-2.5-5.4c0,0-2.1-.7-5.6-2.9-1.5-1-2.7-2.5-3.6-4.1,3.4-1.2,5.5-3.9,5.5-3.9,0,0,3.2-4.9,3.9-9,3.2-.2,6.5,2.4,8.3,4.1,2.4,2.3,5.5,9.5,6.5,12.4,0,2.2-.2,6.8-.6,10.6-.3,2.5-1.4,4-2.6,2.9h0Z"/>
            <path class="cls-5" d="M137.7,273.6h0c-.3,0-.5-.2-.4-.5l.7-9-2.5-6.3c0-.2,0-.5.3-.6.2-.1.5,0,.6.3l2.6,6.4c0,0,0,.1,0,.2l-.7,9.1c0,.2-.2.5-.5.5h0Z"/>
            <path class="cls-5" d="M140.7,273.6h0c-.3,0-.4-.3-.4-.5l1.2-11.1-3.2-6.6c-.1-.2,0-.5.2-.6.2-.1.5,0,.7.2l3.3,6.7c0,0,0,.2,0,.3l-1.2,11.3c0,.2-.2.4-.5.4h0Z"/>
            <path class="cls-5" d="M143,271.7h0c-.3,0-.4-.3-.4-.5l1.4-12.3-3.2-6.9c0-.2,0-.5.2-.6.2-.1.5,0,.7.2l3.3,7c0,0,0,.2,0,.2l-1.5,12.5c0,.2-.2.4-.5.4Z"/>
          </g>
          <g>
            <path class="cls-14" d="M66.2,204.2c-1.2-.3-5.9-1.6-8.8-2.6-2.1-3.1,1.2-4.8,1.2-4.8-1.6-2.5,1.1-4.9,1.1-4.9-1.2-3.1,2.1-4.2,2.1-4.2,0,0,0-2.9,1.4-3.5.6-.2,1.8,0,3.2.3h0c1.6.5,10.2,3.3,10.6,5.2.4,2.1-1.8,2.7-1.8,2.7,0,0,1.5,1.4,1.6,3.1,0,1.6-2.4,1.7-2.4,1.7,0,0,.8,1.1,0,2.5-.8,1.4-2.4,1.4-2.4,1.4,0,0,1,.5-.3,2s-2.6,1.9-5.5,1.1h0Z"/>
            <path class="cls-3" d="M68.6,205.1c-.7,0-1.6-.1-2.6-.4-1.3-.4-5.9-1.6-8.8-2.5-.2,0-.4-.4-.3-.6,0-.2.3-.4.6-.3,2.8.9,7.4,2.2,8.7,2.5,2.8.8,3.9.3,5.1-1,.6-.6.6-.9.6-1.1,0-.1,0-.1,0-.2-.2-.1-.3-.3-.3-.5,0-.2.2-.4.5-.4s1.3,0,2-1.1c.7-1.1,0-1.9,0-2,0-.1-.1-.3,0-.5s.2-.2.4-.3c0,0,1.9-.1,1.9-1.2s-1.4-2.7-1.4-2.7c-.1-.1-.2-.3-.1-.5s.2-.3.3-.4c.2,0,1.8-.6,1.4-2.1-.2-1-4.5-3-10.2-4.8h0c-2.2-.6-2.8-.4-2.9-.4-.2.1-.5,0-.6-.2s0-.5.2-.6c.4-.2,1.2-.3,3.5.3h0c.7.2,3.3,1.1,5.8,2.1,4.3,1.8,5,2.8,5.2,3.4.3,1.6-.6,2.5-1.4,2.9.5.6,1.2,1.7,1.2,2.9,0,1.3-1.2,1.9-2.2,2.1.2.6.3,1.4-.3,2.4-.6.9-1.4,1.3-2,1.5h0c0,.6-.2,1.2-.8,1.9-1,1.1-2.1,1.6-3.4,1.6h0ZM66.5,185.2h0Z"/>
            <path class="cls-3" d="M75.3,193c0,0,0,0-.2,0l-12.8-4.6c-.2-.1-.4-.4-.3-.6,0-.2.4-.4.6-.3l12.8,4.6c.2.1.4.4.3.6,0,.2-.2.3-.4.3h0Z"/>
            <path class="cls-3" d="M74.5,197.8c0,0-.1,0-.2,0l-13.8-5.4c-.2-.1-.4-.4-.3-.6s.4-.4.6-.3l13.8,5.4c.2.1.4.4.3.6,0,.2-.2.3-.4.3h0Z"/>
            <path class="cls-3" d="M72,201.7h-.2l-13.3-4.2c-.2,0-.4-.4-.3-.6,0-.2.3-.4.6-.3l13.3,4.2c.2,0,.4.4.3.6,0,.2-.2.3-.4.3Z"/>
          </g>
          <g>
            <path class="cls-2" d="M104.7,141.8s-5.5-1.1-5.9-5.6c-.3-4.5,7.5-10.7,8.1-14.7,2.6-19.1,14.5-42.6,20.7-44.4s10,.4,10,.4c0,0,7.6-1.7,11,.7,3.4,2.4,11.1,16.3,10.8,25.6-.3,9.3-2.5,24-2.1,29.9s6.6,11,5.2,20c-1.4,8.9-7.9,14.5-7.9,14.5,0,0-.7,8.6-2.8,8.9-2.1.4-5.2-3.8-5.8-7.6-.7-3.8,0-8.3,0-8.3,0,0-8.3-15-7.9-22.5s.5-11.6.5-11.6l-17.1-6.7s-2.3,12.6-5,15.5c-3.1,3.3-11.7,5.9-11.7,5.9h0Z"/>
            <path class="cls-22" d="M119.5,99.7s6.2-12.5,14.9-14.3,17.2,1.8,19.3,4.8l-3.6-5.4s-10.1-7.9-19.9-1.9c-9.8,5.9-10.7,16.8-10.7,16.8Z"/>
            <path class="cls-23" d="M152,167.4c-.2,0-.3-.1-.4-.3-.6-1.2-.2-2.7.5-3.6.6-.8,1.2-1.4,1.9-1.9.2-.1.3-.3.5-.4,1.6-1.4,3.6-3.6,4.1-6.4.6-3.6-1.1-7-2.8-10.4-.5-1-1.1-2.1-1.5-3.1-2.1-4.9-2.9-10.4-2.1-15.7,0-.3.3-.4.6-.4s.4.3.4.6c-.8,5.1,0,10.4,2.1,15.1.4,1,1,2.1,1.5,3.1,1.8,3.5,3.6,7.1,2.9,10.9-.6,3.2-2.7,5.6-4.4,7-.2.1-.3.3-.6.4-.7.6-1.3,1.1-1.8,1.7-.5.6-.9,1.7-.4,2.6.1.2,0,.5-.2.6,0,0-.2,0-.2,0h0Z"/>
            <path class="cls-23" d="M154.1,151.8c0,0-.2,0-.3-.1-.2-.2-.2-.5,0-.7.6-.8.8-1.9.4-2.8-.2-.4-.3-.7-.6-1.1,0,0,0-.1-.2-.2-.7-1.2-1.3-2.5-1.7-3.8,0-.2,0-.5.3-.6.2,0,.5,0,.6.3.4,1.2.9,2.4,1.6,3.6,0,0,0,.1.2.2.2.4.5.8.7,1.3.4,1.2.2,2.6-.6,3.7,0,.1-.2.2-.4.2h0Z"/>
            <path class="cls-23" d="M149.7,159c0,0,0,0-.2,0-.2,0-.4-.4-.3-.6.8-2.2.7-4.9-.2-8.4-.2-.9-.5-1.8-.8-2.6-.6-1.9-1.2-3.9-1.4-6-.4-3.7.3-7.4.9-10.9,0-.2.3-.4.6-.4.2,0,.4.3.4.6-.7,3.5-1.4,7.1-.9,10.6.2,2,.8,3.9,1.4,5.8.2.9.5,1.8.8,2.6.6,2.3,1.3,5.8.2,8.9,0,.2-.2.3-.4.3h0Z"/>
            <path class="cls-23" d="M103.8,135.7c-.2,0-.3,0-.4-.2-.2-.2-.1-.5,0-.7,4.3-3.4,7.4-8.5,8.4-13.9,0-.2.3-.4.6-.4s.4.3.4.6c-1.1,5.7-4.2,10.9-8.8,14.5,0,0-.2.1-.3.1h0Z"/>
            <path class="cls-23" d="M110.1,132.6c0,0-.2,0-.2,0-.2-.1-.3-.4-.2-.6,2.2-3.6,4.2-7.2,4-11.1,0-.3.2-.5.4-.5s.5.2.5.4c.2,4.1-1.8,7.9-4.1,11.6,0,.1-.2.2-.4.2h0Z"/>
            <path class="cls-23" d="M113.6,113.1c-.2,0-.4-.2-.5-.4-.3-2.8.9-5.6,3.1-7.4.5-.4,1.1-.8,1.6-1.1.4-.3.8-.6,1.2-.9,1.3-1,2.4-2.4,3.1-3.9,0-.2.4-.4.6-.2.2.1.3.4.2.6-.8,1.7-1.9,3.2-3.4,4.3-.4.3-.8.6-1.3.9-.6.4-1.1.7-1.5,1.1-1.9,1.6-3,4.1-2.7,6.6,0,.3-.2.5-.4.5h0Z"/>
          </g>
          <g>
            <path class="cls-33" d="M152.3,101.5c0,.5-.2,1.1-.3,1.6-.4,2.2-1,4.4-1.4,5.1-.8,1.6-.5,5.2-2.1,10.3-1.6,5.2-8.3,12.4-12.9,12.1s-10.8-5.4-12.9-8c-2.1-2.6-2.1-7.5-2.1-7.5,0,0-1.6.2-2.6-.8-1-1-.8-6.2-.8-6.2,5.8-.3,8.9-10.6,11.3-14.1,4.9-7.4,12-6.1,12-6.1,0,0,4.9,0,7.2,1.8s3.9,4.1,4.7,7.5c.2.9,0,2.4-.2,4.1h0Z"/>
            <path class="cls-21" d="M142.2,120.2c0,0,0,0-.1,0-.9.4-.9,1.9-1.6,2.3-.7.4-4.6-.4-6.6-1-1.9-.7-2.4-3-2.4-3h0c.3.2.7.4,1.1.4,1.4.2,5.5.4,7,.6.9,0,1.8.4,2.6.6Z"/>
            <path class="cls-5" d="M142.1,116.6c-.2,0-.3,0-.4-.2-.1-.2,0-.5.2-.6.4-.2,1-.7,1-.9s0-.5,0-1.1c0-2.3-.2-7.1,0-8.4.3-1.6,1.1-3,1.1-3.1.1-.2.4-.3.7-.2.2.1.3.4.2.6,0,0-.7,1.4-1,2.8-.3,1.2,0,6.1,0,8.1,0,.6,0,.9,0,1.1,0,.9-1.2,1.6-1.4,1.8,0,0-.2,0-.2,0h0Z"/>
            <path class="cls-5" d="M140,116.5h0c-2-.3-3.1-.9-3.4-1.7-.2-.6,0-1.1.2-1.3s.5-.2.7,0c.2.1.2.4,0,.7,0,0-.1.2,0,.4s.5.8,2.7,1.1c.2,0,.4.3.4.6,0,.2-.2.4-.5.4h0Z"/>
            <path class="cls-36" d="M132.8,102c1.9.2,1.4,5.4-.7,5s-.7-5.2.7-5Z"/>
            <path class="cls-2" d="M128.5,99.1c.3.9,2.4,0,4.8.4s3.8.9,4.3.5-3.3-2.6-5.3-2.4-3.8,1.6-3.8,1.6h0Z"/>
            <path class="cls-6" d="M129.3,113.9c-1.1,1.6-6.6-2.6-5.3-5,1.2-2.4,6.9,2.8,5.3,5Z"/>
            <path class="cls-2" d="M152.3,101.5c0,.5-.2,1.1-.3,1.6-.3-.2-.8-.4-1.3-.4-1.7-.4-4.4-.2-4.3-1,0-.4,3.7-.7,4.8-.4.3,0,.8.2,1.1.3h0Z"/>
            <path class="cls-36" d="M148,104.9c1.3.4,0,4.1-1.4,3.8-1.4-.4,0-4.2,1.4-3.8Z"/>
            <path class="cls-5" d="M143.4,121c-.4,0-.8-.1-1.4-.3h-.2c-.7-.3-1.5-.6-2.3-.6-.3,0-.9,0-1.4-.1-1.9-.1-4.5-.3-5.6-.5-.4,0-.9-.2-1.3-.6-.9-.6-1.5-1.6-1.5-1.6-.2-.2,0-.5.2-.7.2-.1.5,0,.7.1,0,0,.5.8,1.2,1.3.3.2.6.4.9.4,1.1.2,3.7.4,5.5.5.6,0,1.1,0,1.4.1.9,0,1.8.4,2.5.6h.2c.4.2.8.3,1.1.3.7,0,1.2-.2,1.2-.2.2-.1.5,0,.6.3s0,.5-.3.6c0,0-.7.2-1.6.2h0Z"/>
            <path class="cls-5" d="M129.7,118.6h0c-.2,0-.4-.3-.4-.6.2-.9,1.4-1.7,1.7-1.8.2-.1.5,0,.7.2s0,.5-.2.6c-.6.3-1.2.9-1.2,1.1,0,.2-.2.4-.5.4h0Z"/>
          </g>
        </g>
      </g>
    </g>
  </g>
</svg>