<?xml version="1.0" encoding="UTF-8"?>
<svg id="Layer_1" data-name="Layer 1" xmlns="http://www.w3.org/2000/svg" xmlns:xlink="http://www.w3.org/1999/xlink" viewBox="0 0 565.6 228.73">
  <defs>
    <style>
      .cls-1 {
        fill: url(#linear-gradient);
      }

      .cls-2 {
        fill: url(#linear-gradient-2);
      }
    </style>
    <linearGradient id="linear-gradient" x1="89.66" y1="178.15" x2="89.66" y2="54.16" gradientUnits="userSpaceOnUse">
      <stop offset="0" stop-color="#ffb802"/>
      <stop offset="1" stop-color="#00547e"/>
    </linearGradient>
    <linearGradient id="linear-gradient-2" x1="136.08" y1="47.94" x2="136.08" y2="171.94" xlink:href="#linear-gradient"/>
  </defs>
  <g>
    <path d="m254.46,138.19l-32.74-34.43v21.8c0,5.65,2.62,8.47,7.86,8.47v3.24h-19.18v-3.24c4.31,0,6.47-2.82,6.47-8.47v-33.43c0-1.69-2.52-2.54-7.55-2.54v-3.39h14.56l28.89,30.97v-19.8c0-5.19-2.59-7.78-7.78-7.78v-3.39h19.1v3.39c-4.67,0-7.01,2.59-7.01,7.78v40.13l-2.62.69Z"/>
    <path d="m269.48,137.27v-3.24c4.42,0,6.62-1.18,6.62-3.54v-35.66c0-3.49-2.49-5.24-7.47-5.24v-3.39h27.04v3.39c-4.62,0-6.93,1.75-6.93,5.24v35.66c0,1.69,1.49,2.54,4.47,2.54h1.31c2.26,0,4.18-.06,5.78-.19,1.59-.13,2.98-.59,4.16-1.39,1.18-.8,2.25-2.05,3.2-3.77.95-1.72,1.91-4.15,2.89-7.28l4.47.46-2.46,16.41h-43.06Z"/>
    <path d="m230.89,200.16l-17.33-43.75c-1.44-3.03-3.62-4.54-6.55-4.54v-3.39h25.57v3.39h-3.85c-1.49,0-2.23.31-2.23.92,0,1.08.2,2.16.62,3.24l12.25,32.51,11.25-30.97c.2-.62.31-1.46.31-2.54,0-2.11-2.31-3.16-6.93-3.16v-3.39h19.1v3.39h-2.85c-.72,0-1.35.31-1.89.92-.54.62-1.09,1.52-1.66,2.7l-18.26,45.22-7.55-.54Z"/>
    <path d="m266.86,199.54v-3.24c4.62,0,6.93-1.49,6.93-4.47v-34.2c0-3.85-2.49-5.78-7.47-5.78v-3.39h44.21l.62,15.1-4.7.39c-.46-2.82-1.13-4.99-2-6.51-.87-1.51-1.93-2.62-3.16-3.31-1.23-.69-2.65-1.1-4.24-1.23-1.59-.13-3.36-.19-5.31-.19-1.69,0-3,.24-3.93.73-.92.49-1.39,1.19-1.39,2.11v13.5c0,1.23.59,1.84,1.77,1.84s2.36-.08,3.39-.23c1.03-.15,1.94-.5,2.73-1.04.8-.54,1.45-1.35,1.96-2.43.51-1.08.85-2.54,1-4.39h4.47v20.57h-4.47c-.15-1.75-.41-3.16-.77-4.24-.36-1.08-.86-1.9-1.5-2.46-.64-.56-1.45-.95-2.43-1.16-.98-.2-2.16-.33-3.54-.38-1.75.15-2.62.85-2.62,2.08v14.4c0,2.46,1.93,3.7,5.78,3.7,3.13,0,5.63-.24,7.51-.73,1.87-.49,3.4-1.23,4.58-2.23,1.18-1,2.13-2.27,2.85-3.81.72-1.54,1.46-3.39,2.23-5.55l4.39.62-2.16,15.94h-44.75Z"/>
    <path d="m362.76,200.47l-32.74-34.43v21.8c0,5.65,2.62,8.47,7.86,8.47v3.24h-19.18v-3.24c4.31,0,6.47-2.82,6.47-8.47v-33.43c0-1.69-2.52-2.54-7.55-2.54v-3.39h14.56l28.89,30.97v-19.8c0-5.19-2.59-7.78-7.78-7.78v-3.39h19.1v3.39c-4.67,0-7.01,2.59-7.01,7.78v40.13l-2.62.69Z"/>
    <path d="m419.68,157.95c0-4.06-2.57-6.09-7.7-6.09v-3.39h18.56v3.39c-4.21,0-6.32,2.03-6.32,6.09v22.95c0,2.98-.28,5.69-.85,8.13-.57,2.44-1.61,4.52-3.12,6.24-1.52,1.72-3.56,3.06-6.12,4.01-2.57.95-5.85,1.42-9.86,1.42-3.03,0-5.82-.42-8.36-1.27-2.54-.85-4.73-2.01-6.55-3.5-1.82-1.49-3.25-3.27-4.28-5.35-1.03-2.08-1.54-4.35-1.54-6.82v-26.96c0-3.29-2.39-4.93-7.16-4.93v-3.39h26.96v3.39c-4.78,0-7.16,1.64-7.16,4.93v25.03c0,1.64.14,3.33.42,5.05.28,1.72.82,3.27,1.62,4.66.8,1.39,1.91,2.53,3.32,3.43,1.42.9,3.26,1.35,5.53,1.35,4.48,0,7.7-1.23,9.66-3.7,1.96-2.46,2.94-6.06,2.94-10.78v-23.88Z"/>
    <path d="m435.31,199.54v-3.24c4.62,0,6.93-1.49,6.93-4.47v-34.2c0-3.85-2.49-5.78-7.47-5.78v-3.39h44.21l.62,15.1-4.7.39c-.46-2.82-1.13-4.99-2-6.51-.87-1.51-1.93-2.62-3.16-3.31-1.23-.69-2.65-1.1-4.24-1.23-1.59-.13-3.36-.19-5.31-.19-1.69,0-3,.24-3.93.73-.92.49-1.39,1.19-1.39,2.11v13.5c0,1.23.59,1.84,1.77,1.84s2.36-.08,3.39-.23c1.03-.15,1.94-.5,2.73-1.04.8-.54,1.45-1.35,1.96-2.43.51-1.08.85-2.54,1-4.39h4.47v20.57h-4.47c-.15-1.75-.41-3.16-.77-4.24-.36-1.08-.86-1.9-1.5-2.46-.64-.56-1.45-.95-2.43-1.16-.98-.2-2.16-.33-3.54-.38-1.75.15-2.62.85-2.62,2.08v14.4c0,2.46,1.93,3.7,5.78,3.7,3.13,0,5.64-.24,7.51-.73,1.87-.49,3.4-1.23,4.58-2.23,1.18-1,2.13-2.27,2.85-3.81.72-1.54,1.46-3.39,2.23-5.55l4.39.62-2.16,15.94h-44.75Z"/>
    <path d="m517.66,165.04c-.41-2.05-.92-3.93-1.54-5.62s-1.37-3.16-2.27-4.39c-.9-1.23-1.93-2.18-3.08-2.85-1.16-.67-2.45-1-3.89-1-2.98,0-5.29.61-6.93,1.81-1.64,1.21-2.47,2.79-2.47,4.74,0,1.39.28,2.52.85,3.4.56.88,1.39,1.66,2.46,2.35,1.08.69,2.4,1.34,3.97,1.93,1.57.59,3.32,1.27,5.28,2.04,2.21.87,4.24,1.75,6.09,2.62,1.85.87,3.43,1.93,4.74,3.16s2.32,2.73,3.04,4.47c.72,1.75,1.08,3.96,1.08,6.63s-.42,4.86-1.27,6.87c-.85,2.01-2.05,3.72-3.62,5.13-1.57,1.41-3.44,2.49-5.62,3.24-2.18.75-4.58,1.12-7.2,1.12-1.9,0-3.74-.23-5.51-.69-1.77-.46-3.33-1.28-4.66-2.46-1.03.72-2.09,1.36-3.2,1.93-1.11.56-2.25,1.03-3.43,1.39-.62-1.8-1.05-3.61-1.31-5.43-.26-1.82-.39-3.71-.39-5.66,0-1.33.04-2.64.12-3.93.08-1.28.22-2.59.42-3.93h5.01c0,1.69.22,3.42.65,5.16.44,1.75,1.14,3.35,2.12,4.81.97,1.46,2.25,2.66,3.81,3.58,1.57.92,3.45,1.39,5.66,1.39,2,0,3.68-.22,5.05-.65,1.36-.44,2.46-1.04,3.31-1.81.85-.77,1.46-1.66,1.85-2.66.38-1,.58-2.07.58-3.2,0-1.8-.46-3.3-1.39-4.51-.92-1.21-2.44-2.17-4.54-2.89-3.13-1.08-6.01-2.14-8.63-3.2-2.62-1.05-4.89-2.31-6.82-3.77-1.93-1.46-3.43-3.2-4.51-5.2s-1.62-4.47-1.62-7.39c0-2.21.42-4.2,1.27-5.97.85-1.77,1.99-3.27,3.43-4.51,1.44-1.23,3.12-2.17,5.05-2.81,1.93-.64,3.97-.96,6.12-.96,1.9,0,3.72.35,5.47,1.04,1.74.69,3.21,1.86,4.39,3.5.56-1.03,1.39-1.87,2.46-2.54,1.08-.67,2.16-1.16,3.24-1.46.77,2.46,1.24,5.25,1.43,8.36.18,3.11.27,6.05.27,8.82h-5.31Z"/>
  </g>
  <path d="m539.92,212.94H16.12V17.13h523.8v195.81Zm-520.01-3.78h516.23V20.91H19.9v188.24Z"/>
  <path class="cls-1" d="m53.36,202.31h-25.45l-.24-173.9h8.27l17.43,173.9Zm-6.79-173.9h-8.27l22.37,173.9h25.45L46.57,28.4Zm10.64,0h-8.27l44.49,173.9h25.45L57.21,28.4Zm10.64,0h-8.27l66.62,173.9h25.45L67.85,28.4Z"/>
  <path class="cls-2" d="m172.37,28.4h25.45l.24,173.9h-8.27l-17.43-173.9Zm6.79,173.9h8.27l-22.37-173.9h-25.45l39.56,173.9Zm-10.64,0h8.27L132.3,28.4h-25.45l61.68,173.9Zm-10.64,0h8.27L99.53,28.4h-25.45l83.81,173.9Z"/>
</svg>