<?xml version="1.0" encoding="UTF-8" standalone="no"?>
<!-- Created with Inkscape (http://www.inkscape.org/) -->

<svg
   width="1920"
   height="1080"
   viewBox="0 0 1920 1080"
   version="1.1"
   id="svg1"
   xml:space="preserve"
   inkscape:version="1.3.2 (091e20ef0f, 2023-11-25)"
   sodipodi:docname="bg-beige.svg"
   inkscape:export-filename="../../../projects/collective-interchange-coop/new-to-nl/app/assets/images/journey_map/bg-green.svg"
   inkscape:export-xdpi="96"
   inkscape:export-ydpi="96"
   xmlns:inkscape="http://www.inkscape.org/namespaces/inkscape"
   xmlns:sodipodi="http://sodipodi.sourceforge.net/DTD/sodipodi-0.dtd"
   xmlns="http://www.w3.org/2000/svg"
   xmlns:svg="http://www.w3.org/2000/svg"><sodipodi:namedview
     id="namedview1"
     pagecolor="#505050"
     bordercolor="#ffffff"
     borderopacity="1"
     inkscape:showpageshadow="0"
     inkscape:pageopacity="0"
     inkscape:pagecheckerboard="1"
     inkscape:deskcolor="#505050"
     inkscape:document-units="px"
     inkscape:zoom="0.52407407"
     inkscape:cx="893.9576"
     inkscape:cy="489.43463"
     inkscape:window-width="1912"
     inkscape:window-height="1003"
     inkscape:window-x="4"
     inkscape:window-y="36"
     inkscape:window-maximized="0"
     inkscape:current-layer="layer2"
     inkscape:export-bgcolor="#ffffff00"><sodipodi:guide
       position="0,1920"
       orientation="0,1080"
       id="guide1"
       inkscape:locked="false" /><sodipodi:guide
       position="1917.9208,1145.4989"
       orientation="1920,0"
       id="guide2"
       inkscape:locked="false" /><sodipodi:guide
       position="2033.2563,0.39725419"
       orientation="0,-1080"
       id="guide3"
       inkscape:locked="false" /><sodipodi:guide
       position="0,0"
       orientation="-1920,0"
       id="guide4"
       inkscape:locked="false" /></sodipodi:namedview><defs
     id="defs1"><clipPath
       clipPathUnits="userSpaceOnUse"
       id="clipPath10"><rect
         style="fill:none;stroke:#ced813;stroke-width:0;stroke-linecap:square;stroke-linejoin:miter;stroke-dasharray:none;stroke-dashoffset:0;stroke-opacity:1"
         id="rect11"
         width="410.30862"
         height="575.37323"
         x="151.64371"
         y="60.671375" /></clipPath><clipPath
       clipPathUnits="userSpaceOnUse"
       id="clipPath12"><rect
         style="fill:none;stroke:#ced813;stroke-width:0;stroke-linecap:square;stroke-linejoin:miter;stroke-dasharray:none;stroke-dashoffset:0;stroke-opacity:1"
         id="rect13"
         width="382.45703"
         height="601.16962"
         x="1386.7883"
         y="402.99847" /></clipPath></defs><g
     inkscape:groupmode="layer"
     id="layer2"
     inkscape:label="My Route"><path
       style="fill:none;stroke:#4a7680;stroke-width:70;stroke-linecap:square;stroke-dasharray:none;stroke-dashoffset:0;stroke-opacity:1"
       d="m 114.25964,728.49206 c 0,0 197.55201,60.92319 258.4752,0 57.31292,-57.31292 -57.31292,-185.8452 0,-243.15812 62.05,-62.05 201.20587,-62.05 263.25587,0 97.25358,97.25358 -97.25358,315.35841 0,412.61199 58.55635,58.55635 189.87722,58.55635 248.43357,0 59.80088,-59.80088 -59.80088,-193.91275 0,-253.71363 61.47368,-61.47368 199.33702,61.47368 260.81072,0 120.1836,-120.1836 -120.1836,-389.71222 0,-509.89582 60.3568,-60.356773 195.7153,-60.356773 256.0721,0 60.7957,60.79574 -60.7957,197.13874 0,257.93448 86.9167,86.91669 368.7563,0 368.7563,0"
       id="path5"
       sodipodi:nodetypes="cssssssssssc"
       inkscape:label="Edges" /><path
       style="fill:none;stroke:#5a8f9b;stroke-width:57.8;stroke-linecap:square;stroke-dasharray:none;stroke-dashoffset:0;stroke-opacity:1"
       d="m 114.25964,728.49206 c 0,0 197.55201,60.92319 258.4752,0 57.31292,-57.31292 -57.31292,-185.8452 0,-243.15812 62.05,-62.05 201.20587,-62.05 263.25587,0 97.25358,97.25358 -97.25358,315.35841 0,412.61199 58.55635,58.55635 189.87722,58.55635 248.43357,0 59.80088,-59.80088 -59.80088,-193.91275 0,-253.71363 61.47368,-61.47368 199.33702,61.47368 260.81072,0 120.1836,-120.1836 -120.1836,-389.71222 0,-509.89582 60.3568,-60.356773 195.7153,-60.356773 256.0721,0 60.7957,60.79574 -60.7957,197.13874 0,257.93448 86.9167,86.91669 368.7563,0 368.7563,0"
       id="path4"
       sodipodi:nodetypes="cssssssssssc"
       inkscape:label="Base" /></g><g
     id="g96"
     inkscape:label="Beige"
     style="display:inline"><g
       id="g67"
       inkscape:label="Destination"><circle
         style="fill:#cccccc;stroke:#666666;stroke-width:2;stroke-linecap:square;stroke-linejoin:miter;stroke-dasharray:none;stroke-dashoffset:0;stroke-opacity:1"
         id="circle66"
         cx="1795.4084"
         cy="388.08261"
         inkscape:label="circle8"
         r="60" /><path
         style="fill:#5a8f9b;fill-opacity:1;stroke:#677524;stroke-width:0;stroke-dasharray:none;stroke-opacity:1"
         d="m 892.59225,595.80966 c -1.9221,-2.93343 -2.1611,-5.92067 -0.6931,-8.66355 0.6709,-1.25358 0.67,-2.07919 0,-2.49494 -0.6707,-0.4145 -0.6599,-1.26704 0.033,-2.56069 2.1578,-4.03199 -1.0552,-1.82352 -5.0556,3.47497 -3.4711,4.59754 -5.7394,6.58572 -7.5134,6.58572 -2.1668,0 -1.2125,-7.58294 1.9008,-15.1038 3.1756,-7.67144 3.4188,-8.91545 2.5227,-12.9037 -2.1602,-9.61414 -8.105,-9.24361 -10.4822,0.65334 -1.5558,6.47775 -3.2848,8.53942 -6.5584,7.82042 -3.3114,-0.7273 -8.7197,4.0612 -8.8058,7.79661 -0.081,3.49195 -7.1967,9.73368 -11.0995,9.73548 -1.9574,9.1e-4 -4.4324,0.66234 -5.5,1.46984 -3.1054,2.3488 -4.2796,1.80281 -5.5999,-2.60373 -1.2037,-4.01783 -1.1551,-4.2027 1.7099,-6.49504 1.701,-1.36102 4.2935,-2.36159 6.1263,-2.36446 3.6242,-0.006 7.3226,-3.80242 7.3226,-7.51738 0,-2.63993 1.7954,-4.33841 5.686,-5.37891 1.5477,-0.41391 2.814,-1.26019 2.814,-1.88062 0,-1.61188 2.3327,-3.72866 3.1778,-2.88361 0.973,0.97309 -2.5697,4.35809 -6.7394,6.43931 -2.1688,1.08256 -3.623,2.63932 -3.9384,4.21625 -1.0115,5.0573 -3.9324,8 -7.9407,8 -5.7693,0 -8.8765,3.72033 -7.0718,8.46705 0.958,2.51992 1.0757,2.55164 3.9503,1.0651 1.6296,-0.84268 4.3654,-1.53215 6.0797,-1.53215 3.5157,0 9.9825,-5.89841 9.9825,-9.10509 0,-3.81341 6.0146,-9.11475 9.5819,-8.44553 3.2255,0.60511 3.2434,0.58554 5.4049,-5.90969 2.8895,-8.68306 6.0725,-11.42479 9.8311,-8.46824 2.5909,2.03795 2.5909,2.03795 4.8768,-2.46008 2.1671,-4.26409 2.2283,-7.61137 0.1393,-7.61137 -0.5236,0 -0.6462,0.49489 -0.2724,1.09977 0.4917,0.79549 0.1084,0.794 -1.3852,-0.005 -1.1358,-0.60783 -2.3602,-1.58267 -2.7209,-2.1663 -0.9846,-1.59318 0.4034,-2.46915 1.7611,-1.11143 2.0307,2.03065 4.67,1.30331 6.2321,-1.71745 1.1236,-2.17288 10.335,-10.93646 13.3795,-12.72911 0.1806,-0.10631 -0.3236,-1.43747 -1.1204,-2.95813 -1.4463,-2.76046 -1.4504,-2.76139 -2.6134,-0.58841 -0.8412,1.57188 -2.0975,2.17644 -4.5226,2.17644 -2.0623,0 -3.5799,0.57876 -3.9334,1.5 -0.7512,1.95756 -5.0364,1.93034 -6.6736,-0.0424 -0.9381,-1.13041 -0.9835,-1.83895 -0.1698,-2.65268 0.8138,-0.81373 0.4072,-2.31019 -1.5223,-5.60248 -2.6326,-4.49219 -2.6326,-4.49219 1.0892,-7.47788 6.5407,-5.24711 7.2644,-7.9675 3.0938,-11.62935 -3.2697,-2.87082 -3.9761,-3.06411 -10.4809,-2.86805 -4.8946,0.14754 -6.9748,0.59237 -6.9748,1.49153 0,3.17947 -1.9145,0.80638 -3,-3.71871 -1.3398,-5.58479 -1.771,-5.8393 -5.1392,-3.03327 -2.3608,1.96673 -2.3608,1.96673 0.3302,2 6.0241,0.0745 2.3807,5.13815 -5.2705,7.32492 -3.3749,0.96458 -4.8116,2.04002 -6.0739,4.54665 -0.9094,1.80578 -1.9448,2.81193 -2.3008,2.2359 -0.9175,-1.48465 1.0341,-7.95248 3.0826,-10.21611 1.2437,-1.3743 1.4207,-2.20894 0.6351,-2.99459 -1.3536,-1.35357 -3.5758,-0.11962 -2.9098,1.61579 0.517,1.34738 -1.1254,3.52071 -2.6607,3.52071 -0.4989,0 -0.6248,-0.73535 -0.2799,-1.6341 0.5254,-1.36933 0.085,-1.5461 -2.72,-1.09096 -3.0479,0.49461 -3.7342,0.0936 -7.6797,-4.48681 -3.3865,-3.93145 -4.0248,-5.20607 -2.9231,-5.83636 0.7753,-0.44351 3.6597,-2.44098 6.4097,-4.4388 5,-3.63241 5,-3.63241 1.3036,-3.35239 -2.033,0.15402 -4.0205,-0.0441 -4.4166,-0.44028 -0.3962,-0.39617 -2.2755,-0.7203 -4.1761,-0.7203 -2.8615,0 -3.2544,-0.24264 -2.2848,-1.41098 0.8542,-1.02929 0.8694,-1.59739 0.056,-2.10013 -0.6133,-0.37904 -1.2451,-0.5316 -1.4039,-0.33903 -0.1589,0.19258 -2.8467,3.83764 -5.9729,8.10014 -7.4734,10.18993 -8.7875,10.14806 -7.8455,-0.25 0.2972,-3.28084 1.2211,-6.30697 2.2899,-7.5 2.0353,-2.27194 11.5121,-20.63435 11.1956,-21.69289 -0.1139,-0.38109 1.4718,-2.07681 3.5238,-3.76826 2.5997,-2.14288 3.7459,-3.90369 3.7801,-5.80712 0.027,-1.50245 0.3793,-3.69508 0.7828,-4.8725 0.6051,-1.76603 0.2192,-2.32008 -2.2049,-3.1651 -1.6161,-0.56338 -3.2469,-1.99644 -3.624,-3.18459 -0.8869,-2.7943 -0.1674,-3.4355 2.3456,-2.09056 4.3054,2.3042 8.8556,1.36814 10.0536,-2.06821 1.4737,-4.22751 1.4112,-4.61651 -0.8566,-5.33631 -1.1351,-0.36025 -3.0945,0.12668 -4.6738,1.16145 -1.9863,1.3015 -2.8297,1.45054 -3.1289,0.55292 -0.6538,-1.96153 -2.6276,-1.4676 -9.3969,2.35155 -7.8322,4.4189 -9.846,6.18735 -9.846,8.64653 0,1.05432 -1.1334,3.85092 -2.5187,6.21467 -1.3852,2.36375 -2.2578,4.97732 -1.9391,5.80794 0.3615,0.94192 -0.5593,2.4021 -2.4469,3.88035 -3.3886,2.65367 -9.4518,12.15841 -10.5379,16.51917 -0.3905,1.56803 -2.5543,7.04604 -4.8084,12.17336 -3.7199,8.46128 -3.9899,9.62249 -2.9237,12.571 1.4137,3.90957 1.5125,6.6066 0.2421,6.6066 -0.513,0 -1.2183,-0.9 -1.5674,-2 -0.8335,-2.62596 -1.6594,-2.52371 -4.5607,0.56464 -2.4094,2.56465 -2.4094,2.56465 -0.09,6.59504 2.8234,4.90572 2.3458,9.55042 -0.8084,7.86235 -4.2178,-2.25731 -5.6521,-1.2933 -8.9072,5.98677 -3.7936,8.48415 -3.8345,9.30215 -0.5718,11.43992 1.4091,0.92331 2.4216,2.01351 2.25,2.42266 -0.2447,0.58316 -19.3438,17.9217 -20.6213,18.72035 -0.8203,0.51286 3.0703,11.29449 4.2373,11.74231 2.6141,1.00314 16.7109,-1.80364 18.0148,-3.58689 0.6902,-0.94384 1.5633,-1.40757 1.9404,-1.03051 0.377,0.37705 3.2575,1.06295 6.4011,1.52422 29.1344,4.275 28.5592,4.23305 32.3199,2.35699 1.803,-0.89946 5.0518,-1.91899 7.2195,-2.26563 2.6302,-0.42059 4.0997,-1.23584 4.4174,-2.45073 0.4372,-1.67167 0.7096,-1.69972 3.333,-0.3431 1.763,0.91168 2.649,2.01936 2.3138,2.8928 -0.3125,0.81429 0.3721,1.90527 1.612,2.56881 1.3403,0.71729 1.9324,1.73363 1.5662,2.68803 -0.4478,1.167 -0.1669,1.34829 1.1724,0.75675 0.9688,-0.42785 2.9842,-0.72222 4.4788,-0.65415 3.2544,0.1482 4.4229,-1.31415 2.7046,-3.38463 -2.6115,-3.14658 0.912,-4.3875 6.578,-2.31664 2.75,1.0051 4.2337,1.84617 3.297,1.86905 -0.9366,0.0229 -2.8204,-0.46757 -4.1862,-1.08987 -3.344,-1.52364 -6.3308,-0.44103 -4.5854,1.66205 1.7127,2.06375 -1.6051,6.06315 -3.6334,4.37979 -0.7174,-0.59541 -1.8563,-0.74147 -2.5309,-0.32458 -2.1622,1.33632 -9.7984,1.02209 -10.3537,-0.42605 -0.6587,-1.71777 0.2349,-3.15975 1.958,-3.15975 0.8585,0 1.1561,-0.73131 0.8203,-2.01559 -0.7557,-2.88965 -2.1495,-3.41762 -4.1775,-1.58237 -0.9711,0.87887 -2.5425,1.59796 -3.4918,1.59796 -0.9494,0 -3.8058,0.94737 -6.3475,2.10527 -4.8967,2.23072 -8.8247,2.21534 -23.0189,-0.0901 -14.3023,-2.32302 -18.7367,-2.65705 -19.9018,-1.49914 -0.6334,0.62955 -4.8731,1.67091 -9.4214,2.31413 -9.6003,1.35765 -11.2487,0.6082 -12.4173,-5.6455 -0.3787,-2.02655 -1.1105,-4.19553 -1.6263,-4.81997 -0.6451,-0.78097 2.5207,-4.19322 10.1427,-10.93243 11.0805,-9.7971 11.0805,-9.7971 8.5273,-11.34628 -3.3954,-2.06021 -3.2129,-4.99877 0.8126,-13.08595 3.2308,-6.4904 3.2417,-6.49988 7.4349,-6.41369 4.9982,0.10273 5.3098,-1.05808 1.7073,-6.35969 -2.492,-3.66727 -2.492,-3.66727 1.3885,-7.69695 2.1343,-2.21632 4.1006,-5.37967 4.3696,-7.02967 0.5019,-3.07773 7.8797,-22.02115 10.3209,-26.5 0.7495,-1.375 2.2285,-4.3 3.2868,-6.5 1.0583,-2.2 3.2446,-4.85326 4.8585,-5.89613 2.0599,-1.33106 2.9343,-2.70536 2.9343,-4.61157 0,-1.49349 0.975,-4.0847 2.1667,-5.75824 1.1917,-1.67354 2.1667,-4.21643 2.1667,-5.65085 0,-2.80013 6.5608,-7.73203 15.6119,-11.73574 4.8091,-2.12729 6.0424,-2.09331 5.5369,0.15253 -0.225,0.99937 0.4814,0.73487 2.1165,-0.7925 2.1486,-2.00715 2.7827,-2.14275 5.0944,-1.08948 3.0103,1.37162 3.0762,1.69501 1.4501,7.12239 -1.1902,3.97246 -1.1902,3.97246 -7.1418,3.54195 -5.8918,-0.42617 -5.929,-0.41213 -3.6991,1.39357 1.239,1.00324 2.8778,1.82407 3.6419,1.82407 1.6345,0 1.685,0.48184 0.488,4.65542 -0.5792,2.01957 -0.5353,3.50806 0.1228,4.16616 0.6986,0.69859 -0.1245,2.03227 -2.5904,4.19732 -3.8705,3.39834 -4.5272,4.43672 -10.1052,15.9771 -1.9928,4.12279 -4.6836,8.62279 -5.9796,10 -2.4894,2.64537 -4.1353,13.504 -2.0468,13.504 0.5497,0 3.6113,-3.52257 6.8036,-7.82794 4.8906,-6.59596 6.0388,-7.63307 7.2959,-6.58978 0.8206,0.68098 1.2605,1.84105 0.9778,2.57793 -0.3379,0.8806 0.2748,1.33979 1.7878,1.33979 1.2661,0 2.6211,0.31917 3.0112,0.70926 0.3901,0.3901 2.4901,0.58069 4.6667,0.42353 6.3543,-0.45879 5.3571,0.94666 -6.4025,9.02385 -0.5325,0.36576 0.4801,2.46996 2.2859,4.75 3.8227,4.82652 10.0348,5.90356 12.074,2.09336 1.3641,-2.54892 2.1938,-2.52055 3.8501,0.13167 1.1612,1.85926 1.0529,2.50829 -0.8475,5.07861 -2.6726,3.61493 -2.2021,4.29586 1.5986,2.31376 1.5943,-0.83145 3.7284,-1.51449 4.7424,-1.51788 1.014,-0.003 2.0708,-0.87502 2.3485,-1.93697 0.3003,-1.14804 1.0731,-1.71277 1.9064,-1.39301 0.7708,0.29579 1.4015,0.0396 1.4015,-0.56919 0,-0.60885 -0.7875,-1.11388 -1.75,-1.12231 -4.2428,-0.0371 -4.345,-1.65604 -0.2747,-4.34963 2.8807,-1.90639 4.1827,-2.31828 4.4661,-1.41293 0.2201,0.70283 0.811,2.62788 1.3133,4.27788 0.9131,3 0.9131,3 8.0896,2.7204 7.3745,-0.28732 9.9374,0.46444 13.9057,4.07887 3.2013,2.91582 2.868,4.16694 -2.6694,10.02194 -4.9193,5.2015 -4.9193,5.2015 -2.5428,9.13927 1.834,3.03876 2.1156,4.25217 1.2337,5.31486 -0.8724,1.0511 -0.8031,1.59214 0.2928,2.28556 2.2265,1.40889 4.9357,1.10101 4.9357,-0.5609 0,-1.07288 1.0933,-1.5 3.8395,-1.5 3.1942,0 4.0448,-0.4506 5.0611,-2.68123 1.2216,-2.68122 1.2216,-2.68122 3.1539,0.25 2.7997,4.24706 2.5691,4.80861 -4.1397,10.07935 -6.2442,4.90567 -8.9468,8.7249 -9.388,13.26695 -0.1382,1.42171 -0.969,4.21202 -1.8463,6.2007 -1.5553,3.52533 -1.5328,3.67441 0.9007,5.96054 2.4029,2.25744 2.5156,2.27175 3.0237,0.38423 1.7871,-6.63883 6.23,-14.98457 8.1272,-15.26641 1.1325,-0.16823 2.8508,-1.18073 3.8184,-2.25 1.5274,-1.68771 4.4495,-2.70202 4.4495,-1.54449 0,0.21981 -1.575,4.47785 -3.5,9.46231 -3.9858,10.32045 -3.9537,10.13532 -2.1763,12.56604 1.2133,1.6593 1.6396,1.33434 5.1119,-3.89695 4.1097,-6.19152 4.5437,-6.17387 6.5664,0.26701 1.2496,3.97897 1.1779,4.64713 -0.9664,9 -1.5085,3.06212 -2.4863,7.20976 -2.8037,11.89269 -0.6281,9.26813 -3.8577,13.87667 -8.7319,12.46019 -2.5575,-0.74322 -3.303,-0.50544 -5.0542,1.61193 -2.0542,2.48376 -2.0542,2.48376 -3.75,-0.10437 z m 8.4452,-2.75917 c 1.7366,0.60537 3.2786,1.10068 3.4266,1.10068 1.5919,0 4.4324,-7.5989 4.4324,-11.85752 0,-3.18678 0.9847,-7.58113 2.6066,-11.63273 2.4492,-6.11793 2.5178,-6.73409 1.1357,-10.19941 -1.4711,-3.68812 -1.4711,-3.68812 -5.2483,2.00077 -4.4554,6.71033 -5.0618,6.89091 -6.5116,1.93889 -0.9835,-3.35934 -0.7317,-4.67552 2.4171,-12.63411 3.2094,-8.11199 3.3175,-8.69863 1.2432,-6.75 -1.2494,1.17376 -3.0583,2.13411 -4.0199,2.13411 -1.7431,0 -6.5396,9.1405 -8.0025,15.25 -0.8465,3.53558 -2.0265,3.47222 -4.7835,-0.25687 -2.7983,-3.7849 -4.1232,-2.61402 -2.7342,2.41644 0.9577,3.46831 0.6976,4.72036 -2.627,12.64854 -2.977,7.09919 -3.5136,9.32784 -2.7777,11.53554 0.9121,2.73636 0.9121,2.73636 4.3571,-1.56248 5.4327,-6.77927 7.8941,-9.18064 8.8222,-8.60708 0.9497,0.58696 0.7584,6.58448 -0.3423,10.73277 -0.4118,1.55206 -0.1969,3.60627 0.5169,4.94005 1.222,2.28319 1.222,2.28319 3.0769,-0.008 1.6462,-2.03301 2.2101,-2.16689 5.0123,-1.19005 z m -65.141,-25.89932 c 0,-0.55 -0.675,-1 -1.5,-1 -0.825,0 -1.5,0.45 -1.5,1 0,0.55 0.675,1 1.5,1 0.825,0 1.5,-0.45 1.5,-1 z m -46.4,-69.6 c -0.3559,-0.92744 -0.8721,-1.46126 -1.1471,-1.18626 -0.275,0.275 -0.2088,1.25882 0.1471,2.18626 0.3559,0.92744 0.8721,1.46125 1.1471,1.18625 0.275,-0.275 0.2088,-1.25881 -0.1471,-2.18625 z m -266.0257,96.74368 c -0.9109,-1.76133 -1.3603,-3.68105 -0.9987,-4.26605 1.0793,-1.74634 1.434,-10.87763 0.4226,-10.87763 -0.5143,0 -2.7535,2.46138 -4.9759,5.46973 -8.3183,11.26016 -11.11,6.80809 -4.9737,-7.932 3.7525,-9.01373 3.4585,-16.32017 -0.7679,-19.08943 -2.3351,-1.53002 -2.6022,-1.49491 -4.8756,0.64081 -1.3228,1.24273 -2.4051,2.61419 -2.4051,3.04769 0,0.43349 -0.9186,3.24331 -2.0413,6.24403 -2.0248,5.41155 -2.0669,5.44853 -5.19,4.55284 -3.5151,-1.00811 -8.0616,2.90445 -9.3733,8.06633 -0.3494,1.375 -1.1828,2.95 -1.852,3.5 -0.6692,0.55 -1.7239,1.95235 -2.3437,3.11635 -0.8131,1.52685 -2.4703,2.29453 -5.9496,2.75607 -2.6523,0.35185 -5.8058,1.32846 -7.0076,2.17025 -2.0931,1.46604 -2.2519,1.37099 -3.7702,-2.25608 -1.5832,-3.78222 -1.5815,-3.78977 1.4871,-6.53659 2.0821,-1.8638 4.173,-2.75 6.4882,-2.75 3.7685,0 7.0532,-3.41582 7.7018,-8.0092 0.239,-1.69285 1.4834,-3.01513 3.9103,-4.15518 4.3441,-2.04063 7.1997,-4.97773 4.035,-4.15014 -1.1108,0.29047 -4.1177,-0.18677 -6.682,-1.06052 -5.2285,-1.78152 -6.7875,-1.38126 -5.8708,1.50718 0.8106,2.55387 -1.3104,5.07612 -3.6453,4.33504 -1.0016,-0.31789 -2.7381,-0.0872 -3.8589,0.5126 -1.506,0.80604 -2.0377,0.78788 -2.0377,-0.0696 0,-0.75576 -1.0458,-0.95103 -3,-0.56018 -2.3261,0.46522 -3,0.24316 -3,-0.9885 0,-1.20969 0.7438,-1.47932 3.1193,-1.13068 3.1194,0.45782 3.1194,0.45782 0.8562,-1.24929 -1.2448,-0.9389 -1.9609,-2.19627 -1.5913,-2.79414 0.3695,-0.59788 -0.2112,-1.55962 -1.2905,-2.13722 -2.5889,-1.38555 -3.0937,-1.32649 -3.0937,0.36193 0,0.88533 -1.5854,1.67202 -4.25,2.10887 -2.3375,0.38322 -5.0313,1.38689 -5.9862,2.23037 -1.9351,1.70933 -24.4303,1.03272 -27.9296,-0.84006 -0.971,-0.51966 -3.6934,-1.09292 -6.0498,-1.27393 -2.3565,-0.181 -5.0719,-0.6716 -6.0344,-1.09021 -1.2282,-0.53416 -1.75,-0.31281 -1.75,0.74229 0,1.98071 -16.3453,4.61332 -18.8467,3.03549 -0.8973,-0.56601 -2.4298,-3.23317 -3.4056,-5.92702 -1.9789,-5.46324 -2.2582,-5.0727 13.7523,-19.22811 6,-5.3048 6,-5.3048 3.75,-7.14759 -3.3691,-2.75936 -2.2732,-8.80537 3.4212,-18.87395 0.3785,-0.66926 4.8357,-0.46771 6.5788,0.29749 2.5073,1.1007 2.3311,-4.14591 -0.25,-7.44574 -1.0756,-1.375 -1.9656,-2.97831 -1.9778,-3.56291 -0.025,-1.20033 5.7586,-7.02463 6.3199,-6.36419 0.1996,0.2349 0.8656,1.3271 1.48,2.4271 1.4978,2.68171 1.6164,-0.21624 0.1651,-4.03356 -0.8493,-2.23373 -0.3438,-4.22182 3.1311,-12.3151 2.2791,-5.30824 4.5816,-11.20649 5.1166,-13.10723 0.535,-1.90073 2.051,-5.0427 3.3689,-6.98213 1.3179,-1.93944 2.3962,-4.04338 2.3962,-4.67543 0,-0.63205 1.575,-2.35049 3.5,-3.81876 2.3837,-1.81813 3.5,-3.4812 3.5,-5.21431 0,-1.39961 0.8622,-3.75565 1.9161,-5.23565 1.0538,-1.48 2.318,-4.24946 2.8092,-6.15437 0.73,-2.83097 2.1376,-4.22961 7.7077,-7.65879 8.2456,-5.07631 12.7147,-6.85336 11.9007,-4.73199 -0.7467,1.94583 1.5949,1.80191 3.8472,-0.23646 3.4288,-3.10295 6.8123,-0.14727 5.5453,4.84409 -1.011,3.98297 -1.011,3.98297 -6.8704,3.65133 -6.5868,-0.37281 -8.1421,1.47913 -2.903,3.45666 4.6638,1.76038 3.9383,10.1124 -1.2762,14.69072 -2.0186,1.77236 -3.4393,3.59603 -3.1571,4.05262 0.2822,0.45659 0.033,1.12669 -0.5531,1.48911 -0.5864,0.36242 -2.7747,4.33102 -4.8628,8.8191 -2.0881,4.48808 -4.7656,9.01739 -5.9501,10.06513 -1.5371,1.3597 -2.1579,3.07717 -2.1688,6 -0.01,2.25226 -0.4271,4.74577 -0.9303,5.54114 -0.5633,0.89037 -0.5285,2.16801 0.09,3.32458 0.882,1.64797 1.7488,0.85701 7.0642,-6.44612 3.3324,-4.57852 6.2127,-8.50121 6.4007,-8.71708 1.0636,-1.22113 3.3223,2.26948 2.2806,3.52456 -0.9322,1.12329 -0.5782,1.2555 1.9877,0.74232 2.1669,-0.43337 3.1219,-0.24112 3.1219,0.62843 0,0.90154 1.1216,1.07347 4,0.61318 6.454,-1.03204 5.4796,0.24853 -6.8618,9.01729 -0.199,0.14141 1.3531,2.34995 3.4491,4.90788 3.6636,4.47101 3.9671,4.62581 7.85,4.0049 2.2215,-0.35523 4.4043,-1.29841 4.8506,-2.09597 1.1481,-2.05157 2.4669,-1.79818 3.2349,0.62157 0.3932,1.23897 0.071,2.74627 -0.8021,3.75 -0.8027,0.92309 -1.6805,2.91379 -1.9505,4.42379 -0.4911,2.74546 -0.4911,2.74546 1.8216,0.25 1.272,-1.3725 3.4315,-2.49545 4.7988,-2.49545 1.3673,0 3.9131,-1.30342 5.6573,-2.89649 3.1712,-2.89649 3.1712,-2.89649 -0.1318,-3.62195 -3.1488,-0.69159 -3.2122,-0.79323 -1.3595,-2.17679 4.965,-3.7077 5.3299,-3.64147 6.5459,1.18801 1.0981,4.36059 2.8968,7.03935 2.8983,4.31623 5e-4,-0.94639 1.7319,-1.28974 6.25,-1.23944 8.307,0.0925 8.1441,0.0503 11.6725,3.01932 4.1988,3.53308 3.8791,5.67593 -1.6351,10.95951 -4.7119,4.51476 -4.7119,4.51476 -2.4979,8.73318 1.2177,2.32013 2.1005,5.05614 1.9619,6.08003 -0.4491,3.31564 3.0415,4.52011 5.1326,1.7711 1.3974,-1.83697 2.327,-2.20027 4.1499,-1.62172 1.8462,0.58594 2.7908,0.19159 4.4123,-1.842 2.0633,-2.58755 2.0633,-2.58755 3.7641,0.3759 1.7008,2.96345 1.7008,2.96345 -4.1578,7.70928 -3.2222,2.61021 -6.6898,6.24123 -7.7059,8.06895 -1.5918,2.86346 -2.2901,3.27241 -5.0484,2.95651 -2.5285,-0.28957 -2.9755,-0.0948 -2.1276,0.92688 0.5905,0.71142 1.8434,1.29349 2.7844,1.29349 2.8415,0 3.0514,1.06565 1.0014,5.08398 -2.5368,4.97258 -2.4695,6.08608 0.5389,8.91231 2.9566,2.7776 2.5794,3.12195 5.4731,-4.99629 2.8081,-7.87779 4.7471,-11 6.8314,-11 0.8638,0 2.6121,-0.97844 3.885,-2.17432 3.133,-2.94325 2.9287,-1.23558 -1.0903,9.11524 -2.7492,7.08067 -3.1065,8.89361 -2.2171,11.25 1.4396,3.81374 1.7787,3.65251 6.143,-2.92054 3.8042,-5.72962 3.8042,-5.72962 5.6145,-1.46725 1.7941,4.22452 1.789,4.31028 -0.5753,9.65633 -1.312,2.96667 -2.6957,8.46443 -3.075,12.21724 -0.975,9.64671 -3.5715,13.41655 -8.2516,11.98019 -3.0775,-0.9445 -3.6097,-0.80994 -5.2153,1.31868 -1.7881,2.37053 -1.7881,2.37053 -3.4442,-0.83189 z m -42.5743,-83.64368 c 0,-0.275 -0.225,-0.5 -0.5,-0.5 -0.275,0 -0.5,0.225 -0.5,0.5 0,0.275 0.225,0.5 0.5,0.5 0.275,0 0.5,-0.225 0.5,-0.5 z m 10,-5 c 0,-0.275 -0.225,-0.5 -0.5,-0.5 -0.275,0 -0.5,0.225 -0.5,0.5 0,0.275 0.225,0.5 0.5,0.5 0.275,0 0.5,-0.225 0.5,-0.5 z m -11.5,-4.5 c 0.3399,-0.55 0.393,-1 0.118,-1 -0.275,0 -0.7781,0.45 -1.118,1 -0.34,0.55 -0.3931,1 -0.1181,1 0.275,0 0.7781,-0.45 1.1181,-1 z m 393.5037,70.25 c 0.01,-1.46393 3.983,-7.25 4.9816,-7.25 1.3057,0 1.3156,1.69596 0.015,2.5 -0.55,0.33992 -1,1.71647 -1,3.05901 0,1.77432 -0.5462,2.44099 -2,2.44099 -1.1,0 -1.9983,-0.3375 -1.9963,-0.75 z m 2.6629,-1.91667 c -0.3666,-0.36667 -0.6666,-0.0667 -0.6666,0.66667 0,0.73333 0.3,1.03333 0.6666,0.66666 0.3667,-0.36666 0.3667,-0.96666 0,-1.33333 z m -370.6666,0.77745 c 0,-0.48907 0.8337,-1.91889 1.8528,-3.17738 1.8528,-2.28816 1.8528,-2.28816 1.3865,0.88922 -0.4065,2.76948 -3.2393,4.77053 -3.2393,2.28816 z m 254,-36.93647 c 0,-0.45413 1.0825,-1.84268 2.4056,-3.08568 2.4661,-2.3167 5.777,-1.76225 7.8291,1.31107 1.4531,2.17623 0.6809,2.6003 -4.7347,2.6003 -3.025,0 -5.5,-0.37156 -5.5,-0.82569 z m 9,-1.13913 c 0,-1.85094 -4.0035,-3.27718 -5.5639,-1.98213 -2.3507,1.95084 -1.653,2.94695 2.0639,2.94695 1.925,0 3.5,-0.43417 3.5,-0.96482 z m -375.5,-1.03518 c 2.0458,-2.26061 4.5246,-2.57538 6.3,-0.8 2.1276,2.12766 1.2981,2.8 -3.455,2.8 -4.5916,0 -4.6303,-0.0272 -2.845,-2 z m 466.3125,-25.68312 c 0.7219,-0.28887 1.5844,-0.25334 1.9166,0.079 0.3323,0.33229 -0.2583,0.56864 -1.3125,0.52522 -1.1649,-0.048 -1.4019,-0.28494 -0.6041,-0.60417 z m -19.8125,-10.81688 c 0,-0.825 0.45,-1.5 1,-1.5 0.55,0 1,0.675 1,1.5 0,0.825 -0.45,1.5 -1,1.5 -0.55,0 -1,-0.675 -1,-1.5 z m -335.0633,-2.07622 c -1.0841,-1.30629 -1.0623,-1.73179 0.1276,-2.48469 3.1862,-2.01619 6.1122,-0.0617 3.8993,2.60471 -1.5444,1.86095 -2.4041,1.83533 -4.0269,-0.12002 z m 364.0633,-0.42378 c 0,-1.1 0.45,-2 1,-2 0.55,0 1,0.9 1,2 0,1.1 -0.45,2 -1,2 -0.55,0 -1,-0.9 -1,-2 z m 4.75,0.9199 c -2.4274,-1.41384 -2.1921,-2.39745 0.9119,-3.81173 3.4712,-1.58158 6.5292,0.75165 4.3797,3.34164 -1.4827,1.78663 -2.8263,1.90599 -5.2916,0.47009 z m 4.7073,-0.8508 c 0.3164,-0.512 0.096,-1.22688 -0.4889,-1.58862 -1.48,-0.91467 -4.2321,0.28391 -3.4728,1.51245 0.7816,1.26465 3.1984,1.31111 3.9617,0.0762 z m -378.4573,-0.12812 c 0,-0.58246 0.45,-0.7809 1,-0.44098 0.55,0.33992 1,0.81647 1,1.05901 0,0.24254 -0.45,0.44099 -1,0.44099 -0.55,0 -1,-0.47656 -1,-1.05902 z m 342,-38.44098 c 0,-0.83334 0.8889,-1.5 2,-1.5 2.3842,0 2.6526,1.53559 0.4182,2.39301 -2.2351,0.85767 -2.4182,0.79004 -2.4182,-0.89301 z m -368.1875,-0.18312 c 0.7218,-0.28887 1.5843,-0.25334 1.9166,0.079 0.3323,0.33229 -0.2583,0.56864 -1.3125,0.52522 -1.1649,-0.048 -1.4019,-0.28494 -0.6041,-0.60417 z m 367.8977,-6.31688 c -0.3399,-1.29987 -0.031,-2 0.8834,-2 0.7735,0 1.4064,0.9 1.4064,2 0,1.1 -0.3975,2 -0.8834,2 -0.4858,0 -1.1187,-0.9 -1.4064,-2 z m -368.6313,-0.58334 c 0.048,-1.16494 0.285,-1.4019 0.6042,-0.60416 0.2889,0.72187 0.2533,1.58437 -0.079,1.91666 -0.3323,0.3323 -0.5687,-0.25833 -0.5252,-1.3125 z m -34.3837,-18.9075 c -0.2938,-1.81022 -0.2898,-5.11315 0.01,-7.33984 0.2986,-2.22669 0.2624,-5.16643 -0.081,-6.53277 -0.7772,-3.09634 -1.4157,-3.14688 -57.6236,-4.56079 -22.275,-0.56033 -43.425,-1.46782 -47,-2.01666 -3.575,-0.54884 -14.0165,-1.30558 -23.2032,-1.68165 -15.4725,-0.63337 -16.6344,-0.81242 -15.7687,-2.43007 0.6845,-1.279 0,-3.76271 -2.5467,-9.28131 -1.9148,-4.14425 -3.4814,-7.92409 -3.4814,-8.39964 0,-1.16524 5.9959,-3.26643 9.321,-3.26643 2.8961,0 3.3741,-0.90488 1.479,-2.8 -1.3139,-1.31392 -7.6451,-1.60668 -9.4003,-0.43469 -2.2325,1.49066 -3.3519,5.17437 -3.6065,11.86814 -0.1915,5.03349 -0.7073,7.19757 -1.932,8.10656 -0.9736,0.7226 -1.971,3.43484 -2.3903,6.5 -1.4224,10.3995 -3.0903,11.85421 -7.8707,6.86458 -2.4973,-2.60662 -3.1157,-2.80104 -6.2005,-1.94928 -4.3387,1.19796 -4.4375,1.12475 -7.8883,-5.84414 -1.5827,-3.19615 -2.9817,-5.96013 -3.1089,-6.14219 -0.1272,-0.18206 -1.1201,0.14468 -2.2065,0.72611 -1.6242,0.86925 -2.0671,0.70592 -2.492,-0.91898 -0.3706,-1.41713 -1.3699,-1.97611 -3.5329,-1.97611 -2.5894,0 -3.1882,-0.5216 -4.2329,-3.68709 -1.2168,-3.68709 -1.2168,-3.68709 -2.9878,-1.5 -2.3687,2.92523 -2.687,2.80064 -3.8796,-1.51861 -0.7112,-2.57556 -0.7005,-3.90511 0.035,-4.35957 1.0329,-0.63834 6.0218,-22.05717 5.3151,-22.81933 -1.3775,-1.4857 -6.293,2.46775 -7.4583,5.99846 -2.0006,6.06179 -3.3679,6.04633 -9.9611,-0.11262 -4.6959,-4.38666 -5.6082,-14.88358 -1.0905,-12.54738 1.6298,0.84282 3.2543,1.06212 4.0814,0.55097 1.08,-0.66749 3.7289,-8.06525 3.9637,-11.06962 0.024,-0.31063 -1.5106,-1.30616 -3.4107,-2.21227 -3.9467,-1.88207 -5.4396,-4.37984 -8.5008,-14.22294 -1.1973,-3.85 -2.4096,-7.5625 -2.694,-8.25 -0.3166,-0.76546 0.2905,-1.25 1.5663,-1.25 2.2915,0 3.0815,-5.60181 1.0731,-7.61016 -1.5864,-1.58643 6.678,-5.91042 8.4638,-4.42832 1.0787,0.89521 1.9217,0.41297 3.968,-2.26984 2.5983,-3.40655 2.5983,-3.40655 0.018,-9.04274 -3.8072,-8.31595 -2.9612,-11.70894 1.2809,-5.13765 5.9088,9.15304 7.7134,10.77179 9.6377,8.64546 0.9054,-1.00048 1.3333,-2.1319 0.951,-2.51426 -1.0306,-1.03055 -1.253,-8.87897 -0.302,-10.65589 0.4542,-0.84877 0.3908,-2.31106 -0.1417,-3.26243 -0.7068,-1.26314 -0.5981,-1.72417 0.4066,-1.72417 0.7543,0 2.9221,2.8081 4.8173,6.24022 2.5615,4.63867 4.5322,6.83943 7.6783,8.57493 2.4954,1.37653 4.2323,3.05888 4.2323,4.09926 0,0.9705 1.1462,2.28679 2.5471,2.92507 3.389,1.54414 4.4529,1.46302 4.4529,-0.33948 0,-0.825 0.8393,-1.5 1.8652,-1.5 1.0258,0 3.0093,-0.9 4.4077,-2 3.2884,-2.5867 3.1716,-2.62008 5.8956,1.68401 1.2823,2.02621 2.5864,4.0566 2.8979,4.51198 0.3116,0.45538 2.0365,0.31549 3.8333,-0.31086 3.1072,-1.08318 3.4129,-0.9616 6.2564,2.48802 3.7912,4.59938 9.4747,5.41616 7.8441,1.12728 -1.5048,-3.95785 -0.2067,-8.68133 2.0534,-7.47179 2.6089,1.39626 2.6665,1.34827 3.3357,-2.77864 0.9042,-5.57627 0.905,-5.61534 0.1481,-7.43418 -0.5286,-1.27024 0.2205,-2.15688 3.0479,-3.60739 3.7487,-1.9232 3.7487,-1.9232 0.082,-2.61113 -3.667,-0.68793 -3.667,-0.68793 -3.7373,-7.39262 -0.039,-3.68757 -0.422,-7.60468 -0.8518,-8.70468 -0.6356,-1.62649 -0.2023,-2.24855 2.3203,-3.33084 3.1018,-1.33084 3.1018,-1.33084 -2.1379,-4.01162 -4.3583,-2.22983 -4.9662,-2.85327 -3.6142,-3.70614 1.4949,-0.94296 1.4865,-1.29422 -0.1046,-4.37108 -1.7502,-3.38464 -1.462,-4.18042 1.9585,-5.40617 0.6101,-0.21863 0.3398,-2.16522 -0.6932,-4.99232 -1.1558,-3.16304 -1.3544,-4.84338 -0.6257,-5.29374 2.0925,-1.29327 6.9831,-13.5979 6.3721,-16.03227 -0.3535,-1.4083 0.062,-3.36484 1.0269,-4.83767 3.0418,-4.64238 3.5353,-9.59529 1.3143,-13.18901 -1.1516,-1.86341 -2.5592,-3.01128 -3.3298,-2.71555 -0.9223,0.35391 -1.7048,-1.02938 -2.5314,-4.47499 -0.658,-2.74298 -1.8347,-5.23217 -2.6148,-5.53154 -2.4645,-0.94571 -1.5831,-2.61668 4.5816,-8.68645 6.4013,-6.30273 6.8084,-6.92061 4.559,-6.92061 -1.9772,0 -2.812,-1.62755 -2.0562,-4.00895 0.5293,-1.6677 1.5184,-1.99105 6.0903,-1.99105 5.4583,0 5.4583,0 3.865,-3.08105 -1.1636,-2.25017 -2.047,-2.89678 -3.2757,-2.39772 -6.4356,2.61389 -7.009,2.65214 -9.0571,0.60405 -1.1109,-1.11088 -3.8435,-2.51087 -6.0726,-3.11108 -3.615,-0.97342 -4.0527,-1.42143 -4.0527,-4.14777 0,-3.05648 0,-3.05648 4.6508,-0.33095 4.6507,2.72553 4.6507,2.72553 3.9362,0.34502 -1.6893,-5.62772 -1.7961,-10.75494 -0.2872,-13.77965 1.4627,-2.93197 1.4471,-3.03574 -0.3147,-2.09289 -5.8154,3.11231 -7.7836,-8.32829 -2.1936,-12.75067 1.4017,-1.10895 1.3119,-1.51828 -0.8341,-3.80267 -2.3435,-2.49452 -1.7438,-4.3836 1.4092,-4.43931 0.8528,-0.0151 0.5578,-1.82105 -0.8601,-5.26531 -0.589,-1.43056 -0.1898,-1.75 2.1865,-1.75 1.5989,0 3.447,-0.54 4.107,-1.2 1.4063,-1.40636 1.5793,0.0521 0.2545,2.14612 -0.5603,0.8856 -0.5365,2.15331 0.062,3.27066 0.537,1.0035 0.6583,2.33927 0.2695,2.96837 -0.8796,1.42319 -1.3527,6.81485 -0.598,6.81485 0.3052,0 1.2771,-0.65354 2.1597,-1.4523 1.4475,-1.30993 1.5997,-1.0705 1.5529,2.44257 -0.029,2.14217 -0.3879,4.23084 -0.7986,4.64148 -0.4106,0.41065 1.1494,2.67856 3.4668,5.0398 4.2134,4.29316 4.2134,4.29316 1.9285,6.72531 -2.2678,2.41394 -2.2697,2.44026 -0.2633,3.51406 1.1119,0.59505 2.6648,0.83505 3.4511,0.53335 2.1668,-0.83149 4.4245,5.19053 2.8757,7.67051 -1.0408,1.66669 -0.8739,1.88522 1.4406,1.88522 2.3969,0 2.5838,0.29187 2.2142,3.45741 -0.3363,2.88079 -0.063,3.50621 1.6406,3.75 5.1282,0.73398 1.762,12.79259 -3.5711,12.79259 -0.9716,0 -2.0366,0.4368 -2.3665,0.97068 -0.868,1.40439 3.9135,2.35852 7.9884,1.59406 3.4934,-0.65537 3.4934,-0.65537 3.4934,4.36426 0,4.56596 0.2712,5.15985 3,6.571 3.402,1.75925 4.0111,4.5 1,4.5 -1.1,0 -2,0.40121 -2,0.89159 0,1.11094 4.3768,2.27112 6.1706,1.63567 2.3124,-0.81916 5.3331,2.16094 3.9183,3.86568 -1.5312,1.84498 -0.3881,8.60706 1.455,8.60706 2.2371,0 2.8162,3.94468 0.8913,6.07166 -0.9598,1.06059 -1.372,1.92834 -0.9158,1.92834 0.4561,0 -0.2332,1.13096 -1.5318,2.51324 -2.6522,2.82312 -1.7522,4.81038 2.2678,5.00749 7.5465,0.37004 7.7446,0.44115 7.7446,2.77927 0,1.265 -0.54,2.84 -1.2,3.5 -0.7669,0.76697 -0.8534,1.54654 -0.2396,2.16036 0.5282,0.52819 0.795,3.03987 0.5928,5.5815 -0.3419,4.29916 -0.533,4.57962 -2.7427,4.02501 -3.3091,-0.83051 -10.9718,0.46181 -9.2417,1.55861 0.7322,0.46414 2.3437,0.85078 3.5812,0.8592 1.3266,0.009 2.25,0.63097 2.25,1.51532 0,1.04762 -1.0555,1.5 -3.5,1.5 -1.925,0 -3.5,0.34175 -3.5,0.75945 0,1.59891 4.6511,3.60785 8,3.45541 3.5,-0.15931 3.5,-0.15931 0.5,0.94718 -1.65,0.60858 -3.5337,1.52731 -4.186,2.04162 -0.745,0.58733 -1.9293,0.53739 -3.1843,-0.13427 -2.6374,-1.41147 -3.1297,-1.35124 -3.1297,0.38289 0,1.08099 1.5805,1.5284 6.1819,1.75 5.8993,0.28411 6.2176,0.43214 6.9644,3.23811 0.4805,1.80532 0.363,3.44593 -0.3043,4.25 -0.8574,1.0331 -0.4108,1.30961 2.115,1.30961 3.0375,0 3.1681,0.1541 2.543,3 -0.6502,2.96053 -0.6038,3 3.5276,3 3.3675,0 4.0703,0.3027 3.5926,1.54748 -0.5308,1.38312 -0.367,1.38858 1.5421,0.0514 3.6046,-2.52476 9.581,1.25779 6.6377,4.2011 -1.7538,1.7538 -3.788,1.46537 -3.8789,-0.55 -0.05,-1.10007 -0.2704,-1.27328 -0.5946,-0.46638 -0.6853,1.70629 1.4839,4.21638 3.6438,4.21638 2.9433,0 2.3639,5.79033 -1.0051,10.04404 -3.4042,4.29814 -2.9307,5.50664 1.3002,3.31872 2.2343,-1.1554 3.5859,-1.29594 5.2353,-0.54441 1.7845,0.81308 2.6378,0.59871 4.3225,-1.08592 1.9273,-1.92736 2.1533,-1.95742 2.7633,-0.36767 0.4247,1.10683 -0.012,2.24358 -1.211,3.15148 -2.3882,1.80842 0.4946,2.15884 3.6903,0.44857 1.6929,-0.90601 1.9342,-0.69436 1.9342,1.69617 0,2.73135 0,2.73135 3.2976,-0.46482 4.4151,-4.27922 6.9569,-4.40873 4.7263,-0.24081 -0.7723,1.44319 -0.5636,1.93174 1,2.34064 1.5571,0.40718 1.9761,1.37406 1.9761,4.55929 0,4.0172 0.034,4.05324 5.4334,5.75526 5.4335,1.71274 5.4335,1.71274 10.25,-1.42824 4.8166,-3.14098 4.8166,-3.14098 5.123,0.81499 0.2843,3.67155 0.5887,4.03201 4.234,5.01359 2.1602,0.58169 5.1568,2.11486 6.6591,3.40705 2.7314,2.34944 2.7314,2.34944 -0.7341,4.46201 -2.2455,1.3689 -5.1462,2.1139 -8.2402,2.11632 -4.2036,0.003 -4.8914,0.31055 -5.75,2.56884 -1.3898,3.65551 -1.3691,3.67725 2.8214,2.96927 3.0579,-0.51664 4.1524,-0.24817 5.6258,1.37992 1.4043,1.55166 2.2593,1.79126 3.6796,1.03111 1.6135,-0.86352 2.3055,-0.0863 5.4076,6.07359 3.6433,7.2348 3.6528,7.85903 0.1766,11.72112 -1.7525,1.94706 -1.8547,2.59476 -0.781,4.95113 1.2352,2.71103 1.2352,2.71103 3.1161,-1.49011 1.0345,-2.31062 2.3244,-4.20113 2.8664,-4.20113 0.5421,0 1.1474,-1.4625 1.3452,-3.25 0.3596,-3.25 0.3596,-3.25 1.5335,-0.51341 1.0423,2.42977 1.4649,2.62598 3.7688,1.75 4.2139,-1.60211 5.7043,-1.30264 4.521,0.9084 -1.1898,2.22323 0.7871,4.48611 3.1328,3.58597 1.8261,-0.70073 7.3455,2.07068 5.9013,2.9632 -0.6352,0.3926 0.3348,2.04764 2.4256,4.13838 3.5774,3.57746 5.1242,12.28577 2.4732,13.92418 -0.556,0.34361 -0.9072,1.98454 -0.7806,3.6465 0.1519,1.99366 -0.3547,3.34911 -1.4891,3.98395 -2.5542,1.42941 -2.1019,2.46429 1.5306,3.50154 4.4221,1.26273 5.1476,5.06352 1.0601,5.55414 -2.8101,0.3373 -2.8101,0.3373 1.1899,2.52803 3.5834,1.96256 3.7396,2.19692 1.5,2.25023 -4.4065,0.10489 -5.4383,1.51167 -2.5141,3.42767 5.578,3.65487 5.4634,6.07175 -0.5634,11.87753 -2.9824,2.87303 -8.2311,7.02369 -11.6638,9.22369 -3.5123,2.25103 -6.245,4.72407 -6.25,5.65599 -0.01,1.05903 -1.5896,2.19466 -4.3941,3.15024 -4.3853,1.49424 -4.3853,1.49424 -4.9194,-1.79707 z m -24.4262,-95.1651 c -0.677,-0.27392 -2.027,-0.2906 -3,-0.0371 -0.973,0.25354 -0.419,0.47766 1.231,0.49804 1.65,0.0204 2.446,-0.18707 1.769,-0.46099 z m -30.269,-23.84406 c 0,-0.275 -0.225,-0.5 -0.5,-0.5 -0.275,0 -0.5,0.225 -0.5,0.5 0,0.275 0.225,0.5 0.5,0.5 0.275,0 0.5,-0.225 0.5,-0.5 z m 11,-5 c 0,-0.275 -0.225,-0.5 -0.5,-0.5 -0.275,0 -0.5,0.225 -0.5,0.5 0,0.275 0.225,0.5 0.5,0.5 0.275,0 0.5,-0.225 0.5,-0.5 z m -41,-69 c 0,-0.275 -0.225,-0.5 -0.5,-0.5 -0.275,0 -0.5,0.225 -0.5,0.5 0,0.275 0.225,0.5 0.5,0.5 0.275,0 0.5,-0.225 0.5,-0.5 z m -6,-18 c 0,-0.275 -0.225,-0.5 -0.5,-0.5 -0.275,0 -0.5,0.225 -0.5,0.5 0,0.275 0.225,0.5 0.5,0.5 0.275,0 0.5,-0.225 0.5,-0.5 z m -3,-2.5 c 0,-1.19413 -2.7211,-1.19413 -5.5,0 -1.6044,0.68942 -1.2582,0.87333 1.75,0.92971 2.0625,0.0387 3.75,-0.37971 3.75,-0.92971 z m -17.25,-19.94356 c 2.4992,-2.0849 2.8421,-3.05644 1.0787,-3.05644 -1.3958,0 -4.8287,2.95393 -4.8287,4.15498 0,1.32435 1.3033,0.94254 3.75,-1.09854 z m -6.75,-11.55644 c 0,-0.275 -0.225,-0.5 -0.5,-0.5 -0.275,0 -0.5,0.225 -0.5,0.5 0,0.275 0.225,0.5 0.5,0.5 0.275,0 0.5,-0.225 0.5,-0.5 z m -0.5,-23.5 c 0.3596,-0.58179 -0.6366,-1 -2.382,-1 -1.65,0 -3.2781,0.45 -3.618,1 -0.3596,0.58178 0.6366,1 2.382,1 1.65,0 3.2781,-0.45 3.618,-1 z m -1.5,-8.5 c 0,-0.275 -0.225,-0.5 -0.5,-0.5 -0.275,0 -0.5,0.225 -0.5,0.5 0,0.275 0.225,0.5 0.5,0.5 0.275,0 0.5,-0.225 0.5,-0.5 z m 488.6666,279.83333 c -0.3666,-0.36667 -0.6666,-4.8039 -0.6666,-9.86052 v -9.19385 l -11.75,-0.68131 c -6.4625,-0.37472 -23.45,-0.81288 -37.75,-0.97369 -14.3,-0.16081 -33.425,-0.83671 -42.5,-1.50201 -9.075,-0.6653 -24.5136,-1.45908 -34.3079,-1.76395 -17.8079,-0.55432 -17.8079,-0.55432 -17.2023,-3.31146 0.4294,-1.95514 -0.3215,-4.69789 -2.5815,-9.42914 -1.7529,-3.66961 -2.9641,-6.89492 -2.6917,-7.16736 1.0278,-1.02778 6.914,13.89341 6.3567,16.11384 -0.5627,2.24204 -0.5627,2.24204 17.182,2.7876 9.7596,0.30007 25.1697,1.08056 34.2447,1.73445 9.075,0.65388 27.975,1.3167 42,1.47292 14.025,0.15623 31.0125,0.60617 37.75,0.99987 l 12.25,0.71581 v 9.86274 c 0,5.4245 0.3828,9.86273 0.8508,9.86273 2.8195,0 7.1492,-2.4122 7.1492,-3.9831 0,-1.13511 2.4634,-3.28377 6.75,-5.88749 3.7125,-2.25503 9.1498,-6.53904 12.083,-9.52001 5.3329,-5.41995 5.3329,-5.41995 1.75,-9.38588 -4.3035,-4.76343 -4.3384,-4.9917 -0.833,-5.45101 2.75,-0.36033 2.75,-0.36033 0,-1.72694 -3.4273,-1.70316 -3.4906,-2.8216 -0.2065,-3.64586 3.2641,-0.81922 2.6796,-2.64221 -1.2241,-3.81848 -1.677,-0.50533 -3.6045,-1.80807 -4.2833,-2.89499 -1.0418,-1.66824 -0.9964,-1.88496 0.2917,-1.39067 2.1971,0.84311 4.0071,-1.82501 3.2593,-4.80455 -0.4471,-1.78114 -0.1829,-2.70891 0.8883,-3.11997 3.1497,-1.20866 1.9465,-8.8983 -2.0918,-13.36817 -1.989,-2.20159 -3.2839,-4.00288 -2.8775,-4.00288 0.4063,0 0.1464,-0.71379 -0.5777,-1.58621 -0.869,-1.0471 -2.2404,-1.40139 -4.0352,-1.04244 -3.1219,0.62438 -5.4626,-1.4451 -4.4929,-3.9722 0.5326,-1.38799 0.088,-1.52574 -3.0342,-0.94002 -2.5654,0.48128 -3.9087,0.29116 -4.4969,-0.63642 -0.6486,-1.02302 -0.8421,-0.95045 -0.8539,0.3203 -0.01,0.90365 -0.7052,1.90774 -1.5484,2.2313 -0.8432,0.32356 -2.3487,2.50876 -3.3455,4.85599 -1.8125,4.26769 -1.8125,4.26769 -3.5626,0.88351 -1.75,-3.38418 -1.75,-3.38418 1.2767,-6.41084 3.0266,-3.02665 3.0266,-3.02665 -0.4241,-9.87893 -3.135,-6.22525 -3.6769,-6.79552 -5.9218,-6.23209 -1.785,0.44802 -2.6504,0.15259 -3.1174,-1.06424 -0.5666,-1.47659 -1.6954,-1.59703 -9.1486,-0.97619 -6.2195,0.51809 -8.3147,0.40488 -7.8039,-0.42164 0.3841,-0.62144 2.1599,-1.12988 3.9463,-1.12988 2.6146,0 3.4318,-0.51919 4.1909,-2.66284 0.8439,-2.3827 1.4887,-2.68182 6.1294,-2.84326 3.0377,-0.10568 6.3246,-0.92625 7.9338,-1.98067 2.7475,-1.80024 2.7475,-1.80024 0.012,-4.15317 -1.5045,-1.29412 -4.5593,-2.64459 -6.7885,-3.00105 -4.0531,-0.64811 -4.0531,-0.64811 -3.4366,-4.50356 0.738,-4.61487 0.8309,-4.59655 -4.8956,-0.96491 -4.5579,2.89053 -4.5579,2.89053 -10.2847,1.19548 -5.7268,-1.69505 -5.7268,-1.69505 -6.0316,-6.39054 -0.2153,-3.31739 -0.7346,-4.69548 -1.7691,-4.69548 -1.0878,0 -1.2976,-0.70694 -0.816,-2.75 0.6432,-2.72878 0.6179,-2.72107 -3.2731,1 -4.5084,4.31138 -5.337,4.56626 -5.337,1.64159 0,-1.7355 -0.4314,-2.00015 -2.4387,-1.49633 -2.911,0.73061 -4.5773,-1.2472 -2.1807,-2.5884 0.9138,-0.51138 1.3974,-1.35695 1.0748,-1.87905 -0.3444,-0.55715 -1.4303,-0.35842 -2.6288,0.4811 -1.2417,0.86969 -3.3036,1.22566 -5.2604,0.90813 -2.2108,-0.35877 -3.737,-0.003 -4.8756,1.13524 -1.3632,1.3632 -1.9037,1.42752 -3.0441,0.36225 -1.1703,-1.09323 -0.8747,-1.92057 1.8951,-5.30488 3.7158,-4.54025 3.8833,-9.50965 0.3204,-9.50965 -1.0623,0 -2.4096,-1.10769 -3.0459,-2.50423 -1.4312,-3.1412 -0.2783,-4.50386 1.6269,-1.92277 1.1377,1.5414 1.6752,1.67762 2.6859,0.68074 1.0163,-1.00233 0.8827,-1.53435 -0.6827,-2.71819 -2.4967,-1.88826 -3.8986,-1.90027 -5.4371,-0.0466 -1.4784,1.78142 -3.1553,1.05549 -2.3585,-1.02102 0.437,-1.13865 -0.3269,-1.46797 -3.405,-1.46797 -3.6936,0 -3.9352,-0.17304 -3.4904,-2.5 0.409,-2.13958 0.1092,-2.5 -2.0796,-2.5 -2.9195,0 -4.5533,-1.83954 -2.6684,-3.00447 0.7998,-0.49431 1.0233,-1.73768 0.6091,-3.3882 -0.614,-2.44621 -1.024,-2.60733 -6.6354,-2.60733 -5.3904,0 -5.9809,-0.2053 -5.9809,-2.07946 0,-1.79026 0.4172,-1.98782 3,-1.42054 3.6852,0.80941 3.8212,-0.38342 0.4076,-3.57569 -2.5924,-2.42431 -2.5924,-2.42431 1.0331,-2.92431 4.5861,-0.63248 5.0946,-2.40018 0.8093,-2.81336 -6.474,-0.62421 -2.403,-3.45937 4.9673,-3.45937 3.9652,0 3.885,0.12374 4.1993,-6.47727 0.054,-1.1341 -0.5325,-1.64659 -1.6666,-1.45617 -2.5179,0.42276 -2.1563,-0.89476 0.9183,-3.34637 4.542,-3.62168 1.3387,-6.45183 -6.2849,-5.55274 -2.5915,0.30562 -3.7415,-2.84157 -1.8158,-4.96942 1.5772,-1.74286 1.6551,-2.339 0.539,-4.12623 -1.1038,-1.76735 -1.083,-2.00397 0.135,-1.53658 0.7919,0.30386 2.0079,0.20133 2.7023,-0.22784 1.5913,-0.9835 -0.3122,-5.03465 -2.3656,-5.03465 -1.9994,0 -2.6631,-6.14669 -0.8823,-8.17042 1.3096,-1.48824 1.2405,-1.79319 -0.6337,-2.79624 -1.157,-0.61921 -2.4927,-0.88541 -2.9681,-0.59156 -1.1004,0.68006 -7.0942,-1.37404 -7.0942,-2.4312 0,-0.43657 1.2332,-1.10329 2.7405,-1.4816 2.7406,-0.68784 2.7406,-0.68784 -0.509,-3.35841 -2.8245,-2.32127 -3.2484,-3.28132 -3.2405,-7.33997 0.01,-4.66939 0.01,-4.66939 -3.3817,-3.73318 -3.5837,0.98951 -8.6093,-0.20927 -8.6093,-2.05362 0,-0.55313 1.2375,-1.31381 2.75,-1.69039 5.2418,-1.3051 8.0213,-11.35341 3.1406,-11.35341 -1.8219,0 -2.0537,-0.47702 -1.7008,-3.5 0.4592,-3.93359 -0.084,-4.1102 -7.9614,-2.58679 -2.5403,0.4913 -4.506,0.44668 -4.8501,-0.11008 -0.8936,-1.44589 0.2968,-2.1138 3.9963,-2.24227 4.9762,-0.17281 6.7253,-1.97581 5.4541,-5.62235 -0.952,-2.731 -3.8287,-4.18749 -3.8287,-1.93851 0,1.90132 -1.5046,0.97443 -2.7413,-1.6887 -1.0489,-2.25878 -0.9825,-2.95899 0.4281,-4.51769 1.5777,-1.74339 1.4579,-2.06104 -2.1828,-5.78947 -3.3216,-3.40163 -3.7113,-4.25882 -2.8297,-6.22451 1.4425,-3.21646 0.6053,-4.88791 -2.1073,-4.20709 -2.0933,0.52539 -2.2451,0.27564 -1.9763,-3.25172 0.1602,-2.10145 0.3857,-4.04582 0.5012,-4.32082 0.1155,-0.275 0.2546,-1.94271 0.309,-3.70602 0.091,-2.92868 -0.1172,-3.15439 -2.4009,-2.60932 -3.3268,0.79401 -3.3387,0.81396 -1.9948,3.32512 0.9901,1.84996 0.8478,2.40484 -0.937,3.65499 -2.1043,1.4739 -2.1043,1.4739 -0.076,4.05296 2.0287,2.57905 2.0287,2.57905 0.018,3.98736 -1.1058,0.77457 -2.0106,2.48124 -2.0106,3.79259 0,1.31136 -0.433,2.65191 -0.9623,2.97901 -0.601,0.37146 -0.5273,1.54952 0.1965,3.13803 1.1754,2.5796 2.496,2.73478 7.2658,0.85374 1.8536,-0.73098 1.8353,-0.60757 -0.25,1.68586 -2.5417,2.79535 -3.0405,9.27977 -1.1344,14.7475 1.4411,4.13398 0.6728,4.7828 -2.808,2.37123 -5.051,-3.49939 -5.3076,-3.54727 -5.3076,-0.99036 0,1.93423 0.7768,2.63348 3.9978,3.59851 2.1988,0.65878 4.7956,2.0541 5.7707,3.10071 1.7408,1.86851 1.8493,1.86868 6.0018,0.01 4.229,-1.89338 4.229,-1.89338 5.7294,1.00792 2.3279,4.50174 1.9395,5.00063 -3.8927,5.00063 -3.9953,0 -5.5504,0.40997 -6,1.58178 -0.8408,2.191 -0.7813,2.41608 0.643,2.43353 4.4711,0.0548 3.8468,1.93848 -2.7879,8.41189 -6.5955,6.43517 -6.7437,6.68729 -4.7509,8.08311 1.1314,0.79242 2.3639,3.07668 2.739,5.07614 0.4209,2.24339 1.3561,3.81163 2.4424,4.09571 4.9232,1.28745 6.2494,8.72303 2.7787,15.57871 -1.4413,2.84691 -2.0218,5.14834 -1.5233,6.03916 0.9083,1.62309 -3.1923,12.98645 -5.6772,15.73225 -1.4078,1.55559 -1.394,2.1192 0.1462,5.96858 1.681,4.20117 1.674,4.27102 -0.5976,5.98449 -2.2916,1.72854 -2.2928,1.74322 -0.4183,4.91647 1.4077,2.38313 1.5766,3.3703 0.6722,3.92924 -0.7842,0.48467 0.359,1.6024 3.2594,3.18683 5.2725,2.88018 5.5002,3.59634 1.4279,4.49077 -2.5619,0.56268 -2.9304,1.00724 -2.3455,2.82945 0.3817,1.18904 0.7757,4.63689 0.8755,7.66189 0.269,8.15168 0.193,8 4.0094,8 4.6015,0 4.432,1.27597 -0.4629,3.48325 -3.3133,1.49412 -3.8054,2.08112 -3.0025,3.58149 0.6378,1.1917 0.5366,3.45045 -0.3012,6.72422 -1.1524,4.50286 -1.4552,4.8581 -3.4975,4.1026 -2.0488,-0.75788 -2.2359,-0.53134 -2.2359,2.7064 0,1.94344 0.4658,4.40394 1.0352,5.46778 2.1292,3.97851 -5.0572,2.50367 -8.6496,-1.77511 -2.9692,-3.53661 -3.2761,-3.65981 -6.586,-2.64398 -3.4089,1.04624 -3.5213,0.98689 -6.2274,-3.29059 -3.0071,-4.75316 -3.7021,-5.1094 -5.5722,-2.85606 -0.6847,0.825 -2.0643,1.5 -3.0658,1.5 -1.0014,0 -2.5125,0.98754 -3.3579,2.19455 -1.4953,2.13477 -1.633,2.14883 -5.0567,0.51618 -2.2665,-1.08078 -3.5196,-2.37954 -3.5196,-3.64764 0,-1.27665 -1.2616,-2.56791 -3.587,-3.67137 -2.4448,-1.16017 -4.4348,-3.27511 -6.25,-6.6425 -3.5227,-6.5352 -6.5611,-10.31241 -5.6605,-7.037 0.3346,1.21673 0.1544,3.06029 -0.4003,4.09681 -0.7035,1.31438 -0.6597,2.23348 0.1446,3.03777 0.8528,0.8528 0.8607,1.44564 0.031,2.27587 -0.8216,0.82163 -0.8277,1.77004 -0.023,3.53694 1.7421,3.82368 -1.3233,6.48908 -4.34,3.77354 -2.7512,-2.47659 -8.253,-10.42817 -7.6398,-11.04145 0.2573,-0.25726 1.9004,1.76477 3.6514,4.49341 4.1761,6.50791 5.4645,7.55385 7.0104,5.69114 0.8392,-1.01121 0.9003,-2.0122 0.2025,-3.31621 -0.5867,-1.09612 -0.639,-2.45142 -0.1266,-3.28039 0.5237,-0.84736 0.4467,-1.92616 -0.1923,-2.69611 -0.7571,-0.91226 -0.7371,-1.67888 0.069,-2.65026 0.6238,-0.75169 1.0164,-2.21419 0.8724,-3.25 -0.144,-1.0358 0.1703,-2.10828 0.6983,-2.38328 0.8974,-0.4673 1.9514,0.90959 7.0564,9.21804 1.1091,1.80508 3.6954,4.18196 5.7473,5.28196 2.0886,1.11963 3.732,2.75901 3.7335,3.72432 0,2.9988 5.6769,5.25288 6.9995,2.78154 0.5905,-1.10322 1.888,-2.00586 2.8834,-2.00586 0.9954,0 2.6243,-0.9 3.6198,-2 2.5108,-2.77438 2.9361,-2.60182 6.1582,2.49821 2.9415,4.65601 4.1353,5.21787 7.3879,3.47713 1.598,-0.85524 2.5157,-0.35923 5.5506,3 5.3551,5.92751 7.1884,5.47814 6.5999,-1.6178 -0.4639,-5.59452 -0.4468,-5.63715 2.0152,-5.01922 3.0614,0.76835 5.7214,-5.72605 3.809,-9.29948 -0.9152,-1.70997 -0.5536,-2.23818 2.7116,-3.96174 3.7676,-1.98871 3.7676,-1.98871 0.5176,-2.03291 -3.5512,-0.0483 -3.4549,0.18354 -3.7594,-9.04419 -0.1,-3.025 -0.5062,-6.51215 -0.9032,-7.74923 -0.5952,-1.85513 -0.2281,-2.4398 2.0954,-3.3369 2.8172,-1.08767 2.8172,-1.08767 -2.1299,-3.62009 -4.3011,-2.20177 -4.7323,-2.68942 -3.3025,-3.73493 1.5126,-1.10603 1.4839,-1.46654 -0.3568,-4.49346 -1.1008,-1.81002 -1.8646,-3.40425 -1.6975,-3.54272 0.1671,-0.13847 1.2887,-0.76375 2.4924,-1.3895 2.1316,-1.10814 2.1481,-1.25639 0.6346,-5.69819 -1.4692,-4.31196 -1.4478,-4.67963 0.3921,-6.74772 2.9636,-3.33111 6.4245,-12.6152 5.391,-14.46192 -0.5873,-1.04953 -0.094,-3.02396 1.5106,-6.04115 1.3108,-2.46514 2.3832,-5.55588 2.3832,-6.86832 0,-3.13827 -2.7986,-7.3304 -4.4664,-6.69041 -0.8957,0.34371 -1.7359,-1.13592 -2.6332,-4.63682 -0.7389,-2.88327 -2.1045,-5.5627 -3.1091,-6.10031 -2.6463,-1.41629 -2.1827,-3.54404 1.2087,-5.5474 1.65,-0.97468 3,-2.33665 3,-3.0266 0,-0.68995 1.3673,-2.2654 3.0386,-3.50099 3.0386,-2.24652 3.0386,-2.24652 0.9326,-3.83504 -3.7944,-2.86211 -0.9268,-6.80871 5.2175,-7.18086 4.6431,-0.28123 4.8342,-0.40189 3.5035,-2.21299 -1.3549,-1.84392 -1.5671,-1.85168 -5.676,-0.20761 -4.1277,1.65155 -4.314,1.64304 -5.6455,-0.25793 -0.7573,-1.08122 -3.063,-2.50894 -5.1238,-3.17271 -5.2206,-1.68151 -5.9683,-2.48422 -5.471,-5.87313 0.4352,-2.96489 0.4352,-2.96489 4.0827,-0.66234 3.6474,2.30254 3.6474,2.30254 3.6444,-5.57451 0,-6.47532 -0.2699,-7.82054 -1.503,-7.55944 -2.9657,0.62798 -4.866,-4.98676 -3.2628,-9.64016 0.7796,-2.26281 1.9273,-4.42927 2.5504,-4.81436 0.7939,-0.49069 0.6212,-1.26553 -0.5774,-2.58995 -2.2412,-2.47657 -2.1597,-3.92141 0.2956,-5.23545 1.8795,-1.00585 1.9094,-1.26017 0.4744,-4.03518 -1.5048,-2.90994 -1.4868,-2.96168 1.0293,-2.96168 1.4085,0 3.7609,-0.78628 5.2275,-1.74729 2.5989,-1.70282 2.6453,-1.69646 1.8236,0.25 -1.1194,2.65148 -1.433,14.49729 -0.3838,14.49729 0.4527,0 0.8232,-0.45 0.8232,-1 0,-0.55 0.4981,-1 1.107,-1 0.6088,0 0.8754,0.6033 0.5925,1.34068 -0.283,0.73738 -0.1375,1.95063 0.3232,2.69612 0.472,0.76372 0.3896,2.19272 -0.1887,3.2734 -0.8545,1.59659 -0.3081,2.64992 3.2606,6.28624 4.2872,4.36827 4.2872,4.36827 1.9465,6.85981 -2.4917,2.65224 -1.436,4.07979 2.4856,3.36123 2.3101,-0.42327 5.0455,6.78806 3.3499,8.83113 -0.8924,1.07532 -0.5986,1.35139 1.4381,1.35139 2.3667,0 2.5168,0.26367 1.9916,3.5 -0.5003,3.08267 -0.3139,3.5 1.5628,3.5 1.8862,0 2.1309,0.56581 2.1309,4.92742 0,5.12391 -2.8725,8.945 -6.8849,9.15853 -0.8883,0.0473 -0.3347,0.46983 1.2302,0.93901 1.6498,0.49463 3.883,0.45852 5.3151,-0.086 4.0205,-1.52858 4.3396,-1.19508 4.3396,4.53531 0,5.07116 0.2209,5.58857 3,7.02568 3.132,1.61964 4.0921,4.5 1.5,4.5 -0.825,0 -1.5,0.45 -1.5,1 0,0.95262 1.72,1.34314 5,1.13523 3.0522,-0.19347 5.5967,2.69665 3.8829,4.41038 -1.7668,1.76683 -1.3319,7.45439 0.5701,7.45439 2.3132,0 3.8225,5.03802 2.0846,6.9584 -0.8457,0.93449 -1.5376,2.17104 -1.5376,2.74789 0,0.57685 -0.69,1.62146 -1.5333,2.32135 -2.4178,2.00655 -1.2539,3.17824 3.5729,3.59699 2.4532,0.21283 5.0229,0.59523 5.7104,0.84978 1.7704,0.65552 1.5555,5.47111 -0.2755,6.17375 -1.0619,0.40747 -1.2217,0.95149 -0.526,1.78983 0.5666,0.68266 0.7377,3.4157 0.3951,6.30885 -0.5628,4.75194 -0.7562,5.04678 -2.8004,4.26958 -1.2077,-0.45918 -3.7365,-0.47178 -5.6195,-0.028 -3.2001,0.75416 -3.2421,0.81354 -0.6423,0.90922 5.2168,0.19199 4.9536,3.89784 -0.3539,4.98335 -3.174,0.64914 -3.174,0.64914 -0.6182,2.01695 3.3322,1.78332 5.6907,0.8025 5.6907,-2.36656 0,-2.24679 0.4109,-2.53138 3.655,-2.53138 3.5916,0 3.6236,0.0347 1.845,2 -2.0833,2.30199 -4.3761,2.76055 -2.5,0.5 1.0219,-1.23136 0.9462,-1.5 -0.4229,-1.5 -1.3644,0 -1.5483,0.63661 -1.0111,3.5 0.6075,3.23836 0.4705,3.5 -1.8323,3.5 -1.3688,0 -3.049,0.675 -3.7337,1.5 -1.0671,1.28579 -0.7341,1.5 2.3322,1.5 3.3171,0 3.6264,0.26239 4.2543,3.6095 0.4831,2.57494 0.2811,3.86035 -0.7047,4.48469 -0.9841,0.62328 -0.5848,0.87959 1.3872,0.89049 2.4146,0.0134 2.6931,-0.28741 2.1756,-2.34915 -0.4251,-1.6938 -0.099,-2.55433 1.151,-3.03387 3.1265,-1.19974 4.3957,2.70541 1.9362,5.95721 -2.477,3.2749 -1.7496,4.14017 4.0543,4.8223 9.8949,1.16296 13.8428,4.56673 8.4448,7.28091 -2.3112,1.16208 -2.3112,1.16208 -0.038,1.5 3.3486,0.49773 3.5712,6.01382 0.395,9.78847 -3.1629,3.75897 -3.1567,3.7675 2.5951,3.56512 3.2814,-0.11546 5.6929,-0.81754 7.0611,-2.05574 1.7769,-1.60814 2.2115,-1.66898 3.0014,-0.42017 1.3814,2.18394 1.1472,3.67224 -0.6888,4.37679 -0.9038,0.34679 -1.3923,0.88139 -1.0857,1.18801 0.3066,0.30661 1.562,0.0199 2.7898,-0.63721 1.8528,-0.99159 2.3888,-0.91492 3.1532,0.45099 0.822,1.46878 1.2444,1.3735 3.9301,-0.88633 4.1514,-3.49313 6.7982,-3.16156 4.7853,0.59947 -0.7672,1.43357 -0.6554,1.86852 0.4804,1.86852 1.0518,0 1.5686,1.3491 1.7852,4.65978 0.3035,4.64046 0.326,4.66699 5.4352,6.39845 4.9657,1.68284 5.2225,1.67619 8,-0.20719 8.0159,-5.43555 8.6915,-5.48328 7.9535,-0.56196 -0.6664,4.44364 -0.6497,4.47602 2.6227,5.0944 4.3402,0.82015 9.7934,4.20348 9.7934,6.07614 0,2.02933 -4.9659,4.44034 -10.7328,5.21092 -7.0405,0.94077 -8.9109,4.32946 -2.3897,4.32946 2.2156,0 4.4077,0.63877 5.1145,1.49033 0.7747,0.93356 2.1148,1.26998 3.5869,0.90052 2.1055,-0.52847 2.7162,0.16266 5.8707,6.64452 3.5208,7.23434 3.5208,7.23434 0.5667,10.59882 -1.6995,1.93567 -2.7095,4.00178 -2.3782,4.86515 0.8734,2.27599 2.2489,1.79899 2.9579,-1.02572 0.3487,-1.38951 1.4538,-2.96511 2.4557,-3.50133 1.0381,-0.55554 1.9707,-2.37248 2.1679,-4.22362 0.3461,-3.24867 0.3461,-3.24867 1.7303,-0.48431 0.8782,1.7539 1.9628,2.59371 2.9671,2.29749 6.7056,-1.97775 7.3543,-1.93734 6.1136,0.38086 -1.6103,3.00899 -0.6203,5.48668 1.6784,4.20028 2.267,-1.26872 7.6846,1.38891 6.9157,3.39258 -0.2956,0.77021 -0.1038,1.66831 0.426,1.99578 0.5299,0.32748 1.2334,-0.10811 1.5633,-0.96797 0.33,-0.85986 0.9493,-1.56338 1.3763,-1.56338 1.2162,0 1.8832,3.72647 0.8516,4.75805 -0.5689,0.56895 -0.3312,1.42089 0.6157,2.20677 2.1332,1.77044 2.1907,12.03518 0.067,12.03518 -1.0829,0 -1.3258,0.74593 -0.9138,2.80601 0.3772,1.8859 0.041,3.23768 -1.025,4.12245 -2.1167,1.75672 -2.006,3.07154 0.2588,3.07154 4.1525,0 6.597,5.3715 2.905,6.38343 -2.25,0.6167 -2.25,0.6167 0.171,1.86663 3.8012,1.96249 3.7595,3.74917 -0.088,3.7549 -3.3333,0.005 -3.3333,0.005 -0.6775,2.25 6.6316,5.60593 3.3217,11.33526 -12.5059,21.64736 -3.9536,2.57588 -6.6499,5.03172 -6.6499,6.05685 0,1.13526 -1.3206,2.11991 -3.866,2.88254 -4.523,1.35512 -4.5972,1.36179 -5.4674,0.49162 z m -78.0596,-164.91512 c -0.3339,-0.86998 -0.607,-1.79654 -0.607,-2.05902 0,-0.26247 -0.4304,-0.21126 -0.9563,0.11382 -1.161,0.71751 -0.2288,3.52699 1.1703,3.52699 0.55,0 0.7268,-0.71181 0.393,-1.58179 z m -16.107,-7.41821 c -0.3399,-0.55 -1.0415,-1 -1.559,-1 -0.5176,0 -0.941,0.45 -0.941,1 0,0.55 0.7015,1 1.559,1 0.8575,0 1.2809,-0.45 0.941,-1 z m -28.5,-98.5 c 0,-0.275 -0.225,-0.5 -0.5,-0.5 -0.275,0 -0.5,0.225 -0.5,0.5 0,0.275 0.225,0.5 0.5,0.5 0.275,0 0.5,-0.225 0.5,-0.5 z m 2.6666,-1.16667 c -0.3666,-0.36667 -0.9666,-0.36667 -1.3333,0 -0.3667,0.36667 -0.067,0.66667 0.6667,0.66667 0.7333,0 1.0333,-0.3 0.6666,-0.66667 z m -44.3373,254.53448 c -2.8985,-2.89854 -3.3739,-3.04793 -6.3724,-2.00263 -3.7601,1.31076 -4.4848,0.6821 -8.1967,-7.10992 -1.9097,-4.00888 -2.6126,-4.6642 -4.5322,-4.22544 -1.4765,0.3375 -2.4768,-0.0144 -2.857,-1.00526 -0.3325,-0.86656 -1.8002,-1.52456 -3.4005,-1.52456 -2.3425,0 -3.0137,-0.60085 -3.9961,-3.57745 -1.1806,-3.57744 -1.1806,-3.57744 -3.5055,-1.3934 -2.3248,2.18405 -2.3248,2.18405 -3.5456,-1.89082 -0.9151,-3.05438 -0.9358,-4.41843 -0.082,-5.44672 1.0821,-1.30389 5.5129,-20.67106 4.875,-21.30896 -1.442,-1.442 -4.8223,1.51482 -6.5874,5.76213 -1.9447,4.67941 -2.1916,4.89238 -4.3452,3.74828 -5.0581,-2.68706 -10.601,-8.35148 -9.7448,-9.95838 0.4587,-0.86092 0.4601,-3.22342 0,-5.25 -0.9007,-3.99352 -0.4819,-4.29803 3.4483,-2.50734 3.4333,1.56432 5.0731,-0.17228 5.9386,-6.28922 0.6298,-4.45105 0.5449,-4.65648 -2.4351,-5.89086 -6.6175,-2.74107 -13.4751,-24.86493 -7.7434,-24.98195 1.1216,-0.0229 0.905,-4.80145 -0.25,-5.51531 -2.6999,-1.66862 3.5468,-6.77469 7.6736,-6.27246 1.2053,0.14668 3.2999,-0.79347 4.7016,-2.11032 2.5279,-2.37486 2.5279,-2.37486 0.076,-7.2128 -2.398,-4.73217 -3.4232,-12.62293 -1.4844,-11.42467 0.532,0.32879 0.7145,1.86148 0.4056,3.40599 -0.3785,1.89248 0.2519,4.41348 1.933,7.73108 2.4946,4.9229 2.4946,4.9229 -0.4415,8.20902 -2.1189,2.37148 -3.4795,3.11368 -4.8883,2.66655 -3.0327,-0.96255 -8.0935,2.41965 -6.9151,4.62147 1.5124,2.82592 1.0891,5.54091 -1.0935,7.01417 -2.0162,1.36091 -0.6435,7.48196 4.4846,19.99665 0.3662,0.89358 2.3839,2.39943 4.4837,3.34634 3.6065,1.62632 3.7717,1.89627 2.9831,4.87531 -0.4592,1.73452 -1.0798,4.36117 -1.3792,5.83702 -0.6302,3.10715 -3.5772,4.40207 -6.4813,2.84788 -4.2848,-2.29319 -2.4377,7.76803 2.2519,12.26616 4.6923,4.50064 6.5989,4.43254 8.1888,-0.29248 1.1627,-3.45511 6.8605,-7.97871 8.272,-6.56723 0.8466,0.8466 -3.5277,22.56419 -4.8708,24.1825 -1.059,1.27605 -0.1901,6.37982 1.0862,6.37982 0.4233,0 1.4578,-1.0125 2.2989,-2.25 1.2252,-1.80264 1.6412,-1.95176 2.0923,-0.75 0.3097,0.825 1.0153,2.7375 1.568,4.25 0.7827,2.14205 1.6499,2.75 3.9226,2.75 1.7074,0 3.1635,0.64017 3.51,1.54312 0.4528,1.18003 1.04,1.30341 2.4957,0.52435 1.6183,-0.8661 2.0984,-0.53537 3.2034,2.20687 3.4459,8.55139 5.5372,10.65677 9.4059,9.46941 3.3312,-1.02235 3.7757,-0.88509 6.8809,2.12458 4.0946,3.96862 4.9404,3.20663 6.5022,-5.85821 0.7503,-4.35425 1.7703,-6.98681 3.0998,-8 1.3599,-1.03639 1.7036,-1.9545 1.0957,-2.92665 -0.517,-0.82686 -0.5061,-2.41499 0.026,-3.8151 0.5016,-1.31921 0.9189,-4.05678 0.9273,-6.08347 0.01,-2.1028 0.3451,-3.16593 0.7835,-2.47614 0.5877,0.92468 2.1256,0.78877 6.5441,-0.57831 4.6757,-1.44671 5.506,-2.01092 4.3596,-2.96239 -1.5684,-1.30166 -7.2587,-0.5846 -9.7025,1.22265 -1.2798,0.9464 -1.3112,0.86768 -0.2144,-0.53611 2.0658,-2.64387 7.786,-3.25966 10.6844,-1.15019 3.2228,2.34556 3.1601,3.29055 -0.22,3.31755 -6.2039,0.0495 -10.9325,3.37525 -11.6557,8.19752 -0.3656,2.43831 -0.3914,5.14576 -0.057,6.01656 0.3968,1.03422 -0.077,1.80042 -1.3654,2.20945 -2.1324,0.67681 -2.6891,2.21222 -3.7495,10.34085 -0.4656,3.56959 -1.2743,5.5993 -2.4901,6.25 -2.3729,1.26992 -2.0326,1.40162 -5.6028,-2.16853 z m 202.4088,-0.46305 c -0.3536,-0.35357 0.032,-1.31786 0.8571,-2.14286 0.825,-0.825 1.7893,-1.21071 2.1429,-0.85714 0.3535,0.35357 -0.032,1.31786 -0.8572,2.14286 -0.825,0.825 -1.7893,1.21071 -2.1428,0.85714 z m -368.7381,-0.78232 c 0,-0.20765 0.7875,-0.99515 1.75,-1.75 1.586,-1.24387 1.6214,-1.2085 0.3775,0.37756 -1.3063,1.66575 -2.1275,2.19548 -2.1275,1.37244 z m -13,-53.18146 c 0,-0.85746 0.45,-1.2809 1,-0.94098 0.55,0.33992 1,1.04147 1,1.55901 0,0.51754 -0.45,0.94099 -1,0.94099 -0.55,0 -1,-0.70156 -1,-1.55902 z m 288,-49.32295 c 0,-0.55 0.45,-1.27811 1,-1.61803 0.55,-0.33992 1,-0.16804 1,0.38196 0,0.55 -0.45,1.27812 -1,1.61804 -0.55,0.33992 -1,0.16803 -1,-0.38197 z m 23,-2.11803 c 0,-0.55 0.45,-1 1,-1 0.55,0 1,0.45 1,1 0,0.55 -0.45,1 -1,1 -0.55,0 -1,-0.45 -1,-1 z m -12.4035,-2.84377 c -0.346,-0.55992 -0.1419,-1.31919 0.4537,-1.68727 1.5375,-0.95022 2.5295,0.35135 1.246,1.63484 -0.7182,0.71818 -1.2775,0.73543 -1.6997,0.0524 z m -392.5965,-7.65623 c 0,-0.275 0.225,-0.5 0.5,-0.5 0.275,0 0.5,0.225 0.5,0.5 0,0.275 -0.225,0.5 -0.5,0.5 -0.275,0 -0.5,-0.225 -0.5,-0.5 z m 374,-3.39301 c 0,-0.49116 0.7118,-1.16616 1.5818,-1.5 2.235,-0.85768 2.4182,-0.79005 2.4182,0.89301 0,0.83333 -0.8889,1.5 -2,1.5 -1.1,0 -2,-0.40186 -2,-0.89301 z m -367.1875,-0.79011 c 0.7219,-0.28887 1.5844,-0.25334 1.9167,0.079 0.3323,0.33229 -0.2584,0.56864 -1.3125,0.52522 -1.165,-0.048 -1.4019,-0.28494 -0.6042,-0.60417 z m 353.1875,-21.31688 c 0,-0.55 0.45,-1 1,-1 0.55,0 1,0.45 1,1 0,0.55 -0.45,1 -1,1 -0.55,0 -1,-0.45 -1,-1 z m -371.9648,-4.93426 c -1.4389,-2.68851 -1.3201,-3.06574 0.9648,-3.06574 1.4667,0 2,0.66666 2,2.5 0,2.97743 -1.519,3.26728 -2.9648,0.56574 z m -6.0352,-15.03056 c 0,-1.51671 0.6519,-2.03518 2.559,-2.03518 2.7809,0 2.5049,1.36024 -0.6147,3.0298 -1.6297,0.87219 -1.9443,0.71125 -1.9443,-0.99462 z m 374,-4.91274 c 0,-1.44535 2.8338,-3.34319 3.9562,-2.64952 2.0224,1.24996 1.0823,3.52708 -1.4562,3.52708 -1.375,0 -2.5,-0.3949 -2.5,-0.87756 z m 3.6666,-0.78911 c -0.3666,-0.36667 -0.9666,-0.36667 -1.3333,0 -0.3667,0.36667 -0.067,0.66667 0.6667,0.66667 0.7333,0 1.0333,-0.3 0.6666,-0.66667 z m -371.1666,-0.33333 c 0.3399,-0.55 1.0415,-1 1.559,-1 0.5176,0 0.941,0.45 0.941,1 0,0.55 -0.7016,1 -1.559,1 -0.8575,0 -1.2809,-0.45 -0.941,-1 z m -8.1667,-24.66667 c 0.3667,-0.36667 0.9667,-0.36667 1.3334,0 0.3666,0.36667 0.067,0.66667 -0.6667,0.66667 -0.7333,0 -1.0333,-0.3 -0.6667,-0.66667 z m 369.4792,-0.0165 c 0.7219,-0.28887 1.5844,-0.25334 1.9166,0.079 0.3323,0.33229 -0.2583,0.56864 -1.3125,0.52522 -1.1649,-0.048 -1.4019,-0.28494 -0.6041,-0.60417 z m -13.9225,-5.89282 c 2.4146,-0.758 5.2271,-1.64384 6.25,-1.96851 1.4039,-0.44557 1.86,-0.0834 1.86,1.47706 0,1.87987 -0.5669,2.05842 -6.25,1.96852 -6.25,-0.0989 -6.25,-0.0989 -1.86,-1.47707 z m 7.11,-0.33044 c 0,-0.49851 -0.9,-0.67103 -2,-0.38337 -1.1,0.28765 -2,0.69553 -2,0.90638 0,0.21085 0.9,0.38337 2,0.38337 1.1,0 2,-0.40787 2,-0.90638 z m -362.4573,-8.02452 c -0.3164,-0.512 -0.118,-1.21356 0.441,-1.55902 0.559,-0.34547 1.0163,0.0734 1.0163,0.9309 0,1.75653 -0.6,2.01516 -1.4573,0.62812 z m 368.4573,-1.0691 c 0,-2.38425 1.5356,-2.65262 2.393,-0.41822 0.8577,2.23507 0.79,2.41822 -0.893,2.41822 -0.8334,0 -1.5,-0.88889 -1.5,-2 z m -26.3815,-8.80822 c -1.0002,-1.61838 3.7979,-6.35295 5.6989,-5.62345 1.643,0.63045 1.5578,0.9525 -0.9427,3.56239 -2.8529,2.97779 -3.9072,3.43469 -4.7562,2.06106 z m 5.3815,-4.30679 c 0,-1.35971 -0.4545,-1.09978 -3.0757,1.75922 -2.4243,2.64421 -2.4243,2.64421 0.3257,0.88499 1.5125,-0.96757 2.75,-2.15747 2.75,-2.64421 z m -9.4252,-8.7639 c -0.3098,-0.50134 0.1091,-1.16955 0.9309,-1.48492 0.8219,-0.31537 1.4943,-0.16408 1.4943,0.33619 0,1.35556 -1.7771,2.19732 -2.4252,1.14873 z"
         id="path66"
         clip-path="url(#clipPath10)"
         inkscape:label="NL Filled"
         transform="matrix(0.19431204,0,0,0.19431204,1722.1412,316.43316)" /></g><g
       style="fill:none"
       id="g70"
       transform="matrix(3.0047318,0,0,3.0047318,68.239424,690.71147)"
       inkscape:label="Start"><circle
         style="fill:#cccccc;stroke:#666666;stroke-width:0.763823;stroke-linecap:square;stroke-linejoin:miter;stroke-dasharray:none;stroke-dashoffset:0;stroke-opacity:1"
         id="circle67"
         cx="11.959004"
         cy="14.359036"
         r="22.914677"
         inkscape:label="bg" /><g
         id="g69"
         inkscape:label="Start Icon"
         transform="matrix(1.2346696,0,0,1.2346696,-4.0806759,1.5874642)"><path
           d="m 9.4398632,3.2307558 a 2.1840552,2.1840552 0 1 1 4.3681098,0 2.1840552,2.1840552 0 1 1 -4.3681098,0 z M 11.259913,17.063105 v 5.824148 c 0,0.805369 -0.65067,1.456036 -1.4560398,1.456036 -0.80537,0 -1.45603,-0.650667 -1.45603,-1.456036 V 12.735947 l -1.30134,2.165854 c -0.41406,0.687066 -1.31043,0.910021 -1.9975,0.495961 -0.68707,-0.41406 -0.91002,-1.310433 -0.49596,-1.997499 l 2.65272,-4.4136123 c 0.79172,-1.3149826 2.21135,-2.1203524 3.7447398,-2.1203524 h 1.35139 c 1.53338,0 2.95302,0.8053698 3.74474,2.1203524 l 2.65272,4.4136123 c 0.41406,0.687066 0.1911,1.583439 -0.49596,1.997499 -0.68707,0.41406 -1.58345,0.191105 -1.99751,-0.495961 l -1.30588,-2.165854 v 10.151306 c 0,0.805369 -0.65066,1.456036 -1.45603,1.456036 -0.80538,0 -1.45604,-0.650667 -1.45604,-1.456036 v -5.824148 z"
           id="path67"
           style="display:inline;fill:#5a8f9b;fill-opacity:1;stroke:#677524;stroke-width:0.134776;stroke-dasharray:none;stroke-opacity:1"
           inkscape:label="person" /><path
           style="fill:#4d4d4d;stroke-width:0.0628108"
           d="M 14.630268,3.6175931 C 14.31361,3.5188531 14.222972,3.0894692 14.46846,2.8510542 c 0.284227,-0.2760373 0.766841,-0.066664 0.765329,0.3320249 -0.0012,0.3306162 -0.283965,0.5341585 -0.603521,0.434514 z M 16.19149,3.1611545 C 15.682443,3.0172652 15.53229,2.34338 15.929671,1.9861009 16.265383,1.6842674 16.812063,1.8018224 17.003923,2.2171022 l 0.05795,0.125424 4.39e-4,0.1577784 4.4e-4,0.1577778 -0.06826,0.1386581 c -0.149032,0.3027241 -0.48382,0.4546474 -0.803046,0.364414 z m 1.446717,-1.3814838 c -0.289182,-0.064186 -0.52107,-0.1771098 -0.747394,-0.363952 l -0.120122,-0.099167 -0.08362,0.016198 C 16.024153,1.4611474 15.177269,1.1219675 14.753758,0.55844986 13.814184,-0.6917346 14.516754,-2.4800506 16.040469,-2.7167312 c 0.125689,-0.019519 0.24734,-0.038859 0.270334,-0.042973 0.02299,-0.00411 0.06726,-0.04775 0.09838,-0.096976 0.672808,-1.0644879 2.475072,-1.0644879 3.147881,0 0.03111,0.049227 0.07538,0.092866 0.09838,0.096976 0.02299,0.00411 0.144644,0.023446 0.270334,0.042973 1.523714,0.2366806 2.226285,2.0249966 1.286711,3.27518106 C 20.788976,1.1219675 19.942091,1.4611474 19.27917,1.3327497 l -0.08362,-0.016198 -0.120121,0.099167 c -0.398567,0.3290404 -0.957192,0.4705021 -1.437222,0.363952 z m 0.607647,-0.6933779 c 0.183838,-0.053997 0.339936,-0.1488301 0.496277,-0.30149558 0.09931,-0.096977 0.174333,-0.15146363 0.232563,-0.1689101 l 0.08596,-0.0257522 0.161995,0.0348094 c 1.101808,0.23676639 1.99548,-0.72738394 1.645531,-1.77530512 -0.195349,-0.5849725 -0.727751,-0.9269819 -1.444818,-0.9281355 -0.143664,-2.32e-4 -0.223266,-0.057456 -0.334644,-0.2405672 C 18.90859,-2.6152047 18.673265,-2.816973 18.39075,-2.9175029 l -0.135876,-0.048348 h -0.271751 -0.271752 l -0.135877,0.048348 c -0.279679,0.099521 -0.525196,0.3084264 -0.691531,0.5884102 -0.116488,0.1960781 -0.162189,0.2337963 -0.2955,0.243881 -0.515639,0.03901 -0.741421,0.095725 -0.950402,0.238745 -1.2801,0.87605683 -0.419825,2.79919407 1.105534,2.47141102 l 0.161995,-0.0348094 0.08621,0.0258314 c 0.05799,0.0173723 0.131701,0.0704906 0.225206,0.1622948 0.303527,0.29799878 0.679645,0.41060788 1.02885,0.30803658 z"
           id="path68"
           inkscape:label="thought bubble" /><path
           d="M 13.66113,16.575604 9.9043879,15.501411 V 7.9624906 L 13.66113,9.036684 Z m 0.626124,-0.02348 V 8.9897245 l 2.486885,-0.995928 c 0.309148,-0.123268 0.643734,0.1037018 0.643734,0.4363301 v 6.5508184 c 0,0.191751 -0.117398,0.363935 -0.295453,0.43633 l -2.835166,1.132893 z M 6.4430979,9.1208185 9.2782643,7.9879261 V 15.550326 L 6.7913796,16.544298 C 6.4822308,16.667566 6.1476458,16.440595 6.1476458,16.107968 V 9.5571481 c 0,-0.1917502 0.1173982,-0.3639337 0.2954521,-0.4363296 z"
           id="path69"
           style="fill:#4d4d4d;stroke-width:0.0195663"
           inkscape:label="Map" /></g></g></g></svg>
